<?xml version="1.0" encoding="utf-8" standalone="no"?>
<!DOCTYPE svg PUBLIC "-//W3C//DTD SVG 1.1//EN"
  "http://www.w3.org/Graphics/SVG/1.1/DTD/svg11.dtd">
<svg xmlns:xlink="http://www.w3.org/1999/xlink" width="626.145625pt" height="468.211172pt" viewBox="0 0 626.145625 468.211172" xmlns="http://www.w3.org/2000/svg" version="1.1">
 <metadata>
  <rdf:RDF xmlns:dc="http://purl.org/dc/elements/1.1/" xmlns:cc="http://creativecommons.org/ns#" xmlns:rdf="http://www.w3.org/1999/02/22-rdf-syntax-ns#">
   <cc:Work>
    <dc:type rdf:resource="http://purl.org/dc/dcmitype/StillImage"/>
    <dc:date>2025-03-23T09:45:07.945113</dc:date>
    <dc:format>image/svg+xml</dc:format>
    <dc:creator>
     <cc:Agent>
      <dc:title>Matplotlib v3.9.4, https://matplotlib.org/</dc:title>
     </cc:Agent>
    </dc:creator>
   </cc:Work>
  </rdf:RDF>
 </metadata>
 <defs>
  <style type="text/css">*{stroke-linejoin: round; stroke-linecap: butt}</style>
 </defs>
 <g id="figure_1">
  <g id="patch_1">
   <path d="M 0 468.211172 
L 626.145625 468.211172 
L 626.145625 0 
L 0 0 
L 0 468.211172 
z
" style="fill: none"/>
  </g>
  <g id="axes_1">
   <g id="patch_2">
    <path d="M 27.65 447.720969 
L 585.65 447.720969 
L 585.65 4.200969 
L 27.65 4.200969 
L 27.65 447.720969 
z
" style="fill: none"/>
   </g>
   <g id="matplotlib.axis_1">
    <g id="xtick_1">
     <g id="line2d_1">
      <path d="M 76.071488 447.720969 
L 76.071488 4.200969 
" clip-path="url(#pc3a0428fa4)" style="fill: none; stroke-dasharray: 1,1.65; stroke-dashoffset: 0; stroke: #999999"/>
     </g>
     <g id="line2d_2">
      <defs>
       <path id="m3da2c7b23e" d="M 0 0 
L 0 6 
" style="stroke: #262626; stroke-width: 1.25"/>
      </defs>
      <g>
       <use xlink:href="#m3da2c7b23e" x="76.071488" y="447.720969" style="fill: #262626; stroke: #262626; stroke-width: 1.25"/>
      </g>
     </g>
     <g id="text_1">
      <!-- 2018 -->
      <g style="fill: #262626" transform="translate(63.971488 465.622906) scale(0.121 -0.121)">
       <defs>
        <path id="TimesNewRomanPSMT-32" d="M 2934 816 
L 2638 0 
L 138 0 
L 138 116 
Q 1241 1122 1691 1759 
Q 2141 2397 2141 2925 
Q 2141 3328 1894 3587 
Q 1647 3847 1303 3847 
Q 991 3847 742 3664 
Q 494 3481 375 3128 
L 259 3128 
Q 338 3706 661 4015 
Q 984 4325 1469 4325 
Q 1984 4325 2329 3994 
Q 2675 3663 2675 3213 
Q 2675 2891 2525 2569 
Q 2294 2063 1775 1497 
Q 997 647 803 472 
L 1909 472 
Q 2247 472 2383 497 
Q 2519 522 2628 598 
Q 2738 675 2819 816 
L 2934 816 
z
" transform="scale(0.015625)"/>
        <path id="TimesNewRomanPSMT-30" d="M 231 2094 
Q 231 2819 450 3342 
Q 669 3866 1031 4122 
Q 1313 4325 1613 4325 
Q 2100 4325 2488 3828 
Q 2972 3213 2972 2159 
Q 2972 1422 2759 906 
Q 2547 391 2217 158 
Q 1888 -75 1581 -75 
Q 975 -75 572 641 
Q 231 1244 231 2094 
z
M 844 2016 
Q 844 1141 1059 588 
Q 1238 122 1591 122 
Q 1759 122 1940 273 
Q 2122 425 2216 781 
Q 2359 1319 2359 2297 
Q 2359 3022 2209 3506 
Q 2097 3866 1919 4016 
Q 1791 4119 1609 4119 
Q 1397 4119 1231 3928 
Q 1006 3669 925 3112 
Q 844 2556 844 2016 
z
" transform="scale(0.015625)"/>
        <path id="TimesNewRomanPSMT-31" d="M 750 3822 
L 1781 4325 
L 1884 4325 
L 1884 747 
Q 1884 391 1914 303 
Q 1944 216 2037 169 
Q 2131 122 2419 116 
L 2419 0 
L 825 0 
L 825 116 
Q 1125 122 1212 167 
Q 1300 213 1334 289 
Q 1369 366 1369 747 
L 1369 3034 
Q 1369 3497 1338 3628 
Q 1316 3728 1258 3775 
Q 1200 3822 1119 3822 
Q 1003 3822 797 3725 
L 750 3822 
z
" transform="scale(0.015625)"/>
        <path id="TimesNewRomanPSMT-38" d="M 1228 2134 
Q 725 2547 579 2797 
Q 434 3047 434 3316 
Q 434 3728 753 4026 
Q 1072 4325 1600 4325 
Q 2113 4325 2425 4047 
Q 2738 3769 2738 3413 
Q 2738 3175 2569 2928 
Q 2400 2681 1866 2347 
Q 2416 1922 2594 1678 
Q 2831 1359 2831 1006 
Q 2831 559 2490 242 
Q 2150 -75 1597 -75 
Q 994 -75 656 303 
Q 388 606 388 966 
Q 388 1247 577 1523 
Q 766 1800 1228 2134 
z
M 1719 2469 
Q 2094 2806 2194 3001 
Q 2294 3197 2294 3444 
Q 2294 3772 2109 3958 
Q 1925 4144 1606 4144 
Q 1288 4144 1088 3959 
Q 888 3775 888 3528 
Q 888 3366 970 3203 
Q 1053 3041 1206 2894 
L 1719 2469 
z
M 1375 2016 
Q 1116 1797 991 1539 
Q 866 1281 866 981 
Q 866 578 1086 336 
Q 1306 94 1647 94 
Q 1984 94 2187 284 
Q 2391 475 2391 747 
Q 2391 972 2272 1150 
Q 2050 1481 1375 2016 
z
" transform="scale(0.015625)"/>
       </defs>
       <use xlink:href="#TimesNewRomanPSMT-32"/>
       <use xlink:href="#TimesNewRomanPSMT-30" x="50"/>
       <use xlink:href="#TimesNewRomanPSMT-31" x="100"/>
       <use xlink:href="#TimesNewRomanPSMT-38" x="150"/>
      </g>
     </g>
    </g>
    <g id="xtick_2">
     <g id="line2d_3">
      <path d="M 168.302893 447.720969 
L 168.302893 4.200969 
" clip-path="url(#pc3a0428fa4)" style="fill: none; stroke-dasharray: 1,1.65; stroke-dashoffset: 0; stroke: #999999"/>
     </g>
     <g id="line2d_4">
      <g>
       <use xlink:href="#m3da2c7b23e" x="168.302893" y="447.720969" style="fill: #262626; stroke: #262626; stroke-width: 1.25"/>
      </g>
     </g>
     <g id="text_2">
      <!-- 2019 -->
      <g style="fill: #262626" transform="translate(156.202893 465.622906) scale(0.121 -0.121)">
       <defs>
        <path id="TimesNewRomanPSMT-39" d="M 338 -88 
L 338 28 
Q 744 34 1094 217 
Q 1444 400 1770 856 
Q 2097 1313 2225 1859 
Q 1734 1544 1338 1544 
Q 891 1544 572 1889 
Q 253 2234 253 2806 
Q 253 3363 572 3797 
Q 956 4325 1575 4325 
Q 2097 4325 2469 3894 
Q 2925 3359 2925 2575 
Q 2925 1869 2578 1258 
Q 2231 647 1613 244 
Q 1109 -88 516 -88 
L 338 -88 
z
M 2275 2091 
Q 2331 2497 2331 2741 
Q 2331 3044 2228 3395 
Q 2125 3747 1936 3934 
Q 1747 4122 1506 4122 
Q 1228 4122 1018 3872 
Q 809 3622 809 3128 
Q 809 2469 1088 2097 
Q 1291 1828 1588 1828 
Q 1731 1828 1928 1897 
Q 2125 1966 2275 2091 
z
" transform="scale(0.015625)"/>
       </defs>
       <use xlink:href="#TimesNewRomanPSMT-32"/>
       <use xlink:href="#TimesNewRomanPSMT-30" x="50"/>
       <use xlink:href="#TimesNewRomanPSMT-31" x="100"/>
       <use xlink:href="#TimesNewRomanPSMT-39" x="150"/>
      </g>
     </g>
    </g>
    <g id="xtick_3">
     <g id="line2d_5">
      <path d="M 260.534298 447.720969 
L 260.534298 4.200969 
" clip-path="url(#pc3a0428fa4)" style="fill: none; stroke-dasharray: 1,1.65; stroke-dashoffset: 0; stroke: #999999"/>
     </g>
     <g id="line2d_6">
      <g>
       <use xlink:href="#m3da2c7b23e" x="260.534298" y="447.720969" style="fill: #262626; stroke: #262626; stroke-width: 1.25"/>
      </g>
     </g>
     <g id="text_3">
      <!-- 2020 -->
      <g style="fill: #262626" transform="translate(248.434298 465.622906) scale(0.121 -0.121)">
       <use xlink:href="#TimesNewRomanPSMT-32"/>
       <use xlink:href="#TimesNewRomanPSMT-30" x="50"/>
       <use xlink:href="#TimesNewRomanPSMT-32" x="100"/>
       <use xlink:href="#TimesNewRomanPSMT-30" x="150"/>
      </g>
     </g>
    </g>
    <g id="xtick_4">
     <g id="line2d_7">
      <path d="M 352.765702 447.720969 
L 352.765702 4.200969 
" clip-path="url(#pc3a0428fa4)" style="fill: none; stroke-dasharray: 1,1.65; stroke-dashoffset: 0; stroke: #999999"/>
     </g>
     <g id="line2d_8">
      <g>
       <use xlink:href="#m3da2c7b23e" x="352.765702" y="447.720969" style="fill: #262626; stroke: #262626; stroke-width: 1.25"/>
      </g>
     </g>
     <g id="text_4">
      <!-- 2021 -->
      <g style="fill: #262626" transform="translate(340.665702 465.622906) scale(0.121 -0.121)">
       <use xlink:href="#TimesNewRomanPSMT-32"/>
       <use xlink:href="#TimesNewRomanPSMT-30" x="50"/>
       <use xlink:href="#TimesNewRomanPSMT-32" x="100"/>
       <use xlink:href="#TimesNewRomanPSMT-31" x="150"/>
      </g>
     </g>
    </g>
    <g id="xtick_5">
     <g id="line2d_9">
      <path d="M 444.997107 447.720969 
L 444.997107 4.200969 
" clip-path="url(#pc3a0428fa4)" style="fill: none; stroke-dasharray: 1,1.65; stroke-dashoffset: 0; stroke: #999999"/>
     </g>
     <g id="line2d_10">
      <g>
       <use xlink:href="#m3da2c7b23e" x="444.997107" y="447.720969" style="fill: #262626; stroke: #262626; stroke-width: 1.25"/>
      </g>
     </g>
     <g id="text_5">
      <!-- 2022 -->
      <g style="fill: #262626" transform="translate(432.897107 465.622906) scale(0.121 -0.121)">
       <use xlink:href="#TimesNewRomanPSMT-32"/>
       <use xlink:href="#TimesNewRomanPSMT-30" x="50"/>
       <use xlink:href="#TimesNewRomanPSMT-32" x="100"/>
       <use xlink:href="#TimesNewRomanPSMT-32" x="150"/>
      </g>
     </g>
    </g>
    <g id="xtick_6">
     <g id="line2d_11">
      <path d="M 537.228512 447.720969 
L 537.228512 4.200969 
" clip-path="url(#pc3a0428fa4)" style="fill: none; stroke-dasharray: 1,1.65; stroke-dashoffset: 0; stroke: #999999"/>
     </g>
     <g id="line2d_12">
      <g>
       <use xlink:href="#m3da2c7b23e" x="537.228512" y="447.720969" style="fill: #262626; stroke: #262626; stroke-width: 1.25"/>
      </g>
     </g>
     <g id="text_6">
      <!-- 2023 -->
      <g style="fill: #262626" transform="translate(525.128512 465.622906) scale(0.121 -0.121)">
       <defs>
        <path id="TimesNewRomanPSMT-33" d="M 325 3431 
Q 506 3859 782 4092 
Q 1059 4325 1472 4325 
Q 1981 4325 2253 3994 
Q 2459 3747 2459 3466 
Q 2459 3003 1878 2509 
Q 2269 2356 2469 2072 
Q 2669 1788 2669 1403 
Q 2669 853 2319 450 
Q 1863 -75 997 -75 
Q 569 -75 414 31 
Q 259 138 259 259 
Q 259 350 332 419 
Q 406 488 509 488 
Q 588 488 669 463 
Q 722 447 909 348 
Q 1097 250 1169 231 
Q 1284 197 1416 197 
Q 1734 197 1970 444 
Q 2206 691 2206 1028 
Q 2206 1275 2097 1509 
Q 2016 1684 1919 1775 
Q 1784 1900 1550 2001 
Q 1316 2103 1072 2103 
L 972 2103 
L 972 2197 
Q 1219 2228 1467 2375 
Q 1716 2522 1828 2728 
Q 1941 2934 1941 3181 
Q 1941 3503 1739 3701 
Q 1538 3900 1238 3900 
Q 753 3900 428 3381 
L 325 3431 
z
" transform="scale(0.015625)"/>
       </defs>
       <use xlink:href="#TimesNewRomanPSMT-32"/>
       <use xlink:href="#TimesNewRomanPSMT-30" x="50"/>
       <use xlink:href="#TimesNewRomanPSMT-32" x="100"/>
       <use xlink:href="#TimesNewRomanPSMT-33" x="150"/>
      </g>
     </g>
    </g>
   </g>
   <g id="matplotlib.axis_2">
    <g id="ytick_1">
     <g id="line2d_13">
      <path d="M 27.65 447.720969 
L 585.65 447.720969 
" clip-path="url(#pc3a0428fa4)" style="fill: none; stroke-dasharray: 1,1.65; stroke-dashoffset: 0; stroke: #999999"/>
     </g>
     <g id="line2d_14">
      <defs>
       <path id="m45a6c1a9f2" d="M 0 0 
L -6 0 
" style="stroke: #262626; stroke-width: 1.25"/>
      </defs>
      <g>
       <use xlink:href="#m45a6c1a9f2" x="27.65" y="447.720969" style="fill: #262626; stroke: #262626; stroke-width: 1.25"/>
      </g>
     </g>
     <g id="text_7">
      <!-- 0 -->
      <g style="fill: #262626" transform="translate(12.1 451.921938) scale(0.121 -0.121)">
       <use xlink:href="#TimesNewRomanPSMT-30"/>
      </g>
     </g>
    </g>
    <g id="ytick_2">
     <g id="line2d_15">
      <path d="M 27.65 359.016969 
L 585.65 359.016969 
" clip-path="url(#pc3a0428fa4)" style="fill: none; stroke-dasharray: 1,1.65; stroke-dashoffset: 0; stroke: #999999"/>
     </g>
     <g id="line2d_16">
      <g>
       <use xlink:href="#m45a6c1a9f2" x="27.65" y="359.016969" style="fill: #262626; stroke: #262626; stroke-width: 1.25"/>
      </g>
     </g>
     <g id="text_8">
      <!-- 20 -->
      <g style="fill: #262626" transform="translate(6.05 363.217938) scale(0.121 -0.121)">
       <use xlink:href="#TimesNewRomanPSMT-32"/>
       <use xlink:href="#TimesNewRomanPSMT-30" x="50"/>
      </g>
     </g>
    </g>
    <g id="ytick_3">
     <g id="line2d_17">
      <path d="M 27.65 270.312969 
L 585.65 270.312969 
" clip-path="url(#pc3a0428fa4)" style="fill: none; stroke-dasharray: 1,1.65; stroke-dashoffset: 0; stroke: #999999"/>
     </g>
     <g id="line2d_18">
      <g>
       <use xlink:href="#m45a6c1a9f2" x="27.65" y="270.312969" style="fill: #262626; stroke: #262626; stroke-width: 1.25"/>
      </g>
     </g>
     <g id="text_9">
      <!-- 40 -->
      <g style="fill: #262626" transform="translate(6.05 274.513937) scale(0.121 -0.121)">
       <defs>
        <path id="TimesNewRomanPSMT-34" d="M 2978 1563 
L 2978 1119 
L 2409 1119 
L 2409 0 
L 1894 0 
L 1894 1119 
L 100 1119 
L 100 1519 
L 2066 4325 
L 2409 4325 
L 2409 1563 
L 2978 1563 
z
M 1894 1563 
L 1894 3666 
L 406 1563 
L 1894 1563 
z
" transform="scale(0.015625)"/>
       </defs>
       <use xlink:href="#TimesNewRomanPSMT-34"/>
       <use xlink:href="#TimesNewRomanPSMT-30" x="50"/>
      </g>
     </g>
    </g>
    <g id="ytick_4">
     <g id="line2d_19">
      <path d="M 27.65 181.608969 
L 585.65 181.608969 
" clip-path="url(#pc3a0428fa4)" style="fill: none; stroke-dasharray: 1,1.65; stroke-dashoffset: 0; stroke: #999999"/>
     </g>
     <g id="line2d_20">
      <g>
       <use xlink:href="#m45a6c1a9f2" x="27.65" y="181.608969" style="fill: #262626; stroke: #262626; stroke-width: 1.25"/>
      </g>
     </g>
     <g id="text_10">
      <!-- 60 -->
      <g style="fill: #262626" transform="translate(6.05 185.809937) scale(0.121 -0.121)">
       <defs>
        <path id="TimesNewRomanPSMT-36" d="M 2869 4325 
L 2869 4209 
Q 2456 4169 2195 4045 
Q 1934 3922 1679 3669 
Q 1425 3416 1258 3105 
Q 1091 2794 978 2366 
Q 1428 2675 1881 2675 
Q 2316 2675 2634 2325 
Q 2953 1975 2953 1425 
Q 2953 894 2631 456 
Q 2244 -75 1606 -75 
Q 1172 -75 869 213 
Q 275 772 275 1663 
Q 275 2231 503 2743 
Q 731 3256 1154 3653 
Q 1578 4050 1965 4187 
Q 2353 4325 2688 4325 
L 2869 4325 
z
M 925 2138 
Q 869 1716 869 1456 
Q 869 1156 980 804 
Q 1091 453 1309 247 
Q 1469 100 1697 100 
Q 1969 100 2183 356 
Q 2397 613 2397 1088 
Q 2397 1622 2184 2012 
Q 1972 2403 1581 2403 
Q 1463 2403 1327 2353 
Q 1191 2303 925 2138 
z
" transform="scale(0.015625)"/>
       </defs>
       <use xlink:href="#TimesNewRomanPSMT-36"/>
       <use xlink:href="#TimesNewRomanPSMT-30" x="50"/>
      </g>
     </g>
    </g>
    <g id="ytick_5">
     <g id="line2d_21">
      <path d="M 27.65 92.904969 
L 585.65 92.904969 
" clip-path="url(#pc3a0428fa4)" style="fill: none; stroke-dasharray: 1,1.65; stroke-dashoffset: 0; stroke: #999999"/>
     </g>
     <g id="line2d_22">
      <g>
       <use xlink:href="#m45a6c1a9f2" x="27.65" y="92.904969" style="fill: #262626; stroke: #262626; stroke-width: 1.25"/>
      </g>
     </g>
     <g id="text_11">
      <!-- 80 -->
      <g style="fill: #262626" transform="translate(6.05 97.105937) scale(0.121 -0.121)">
       <use xlink:href="#TimesNewRomanPSMT-38"/>
       <use xlink:href="#TimesNewRomanPSMT-30" x="50"/>
      </g>
     </g>
    </g>
    <g id="ytick_6">
     <g id="line2d_23">
      <path d="M 27.65 4.200969 
L 585.65 4.200969 
" clip-path="url(#pc3a0428fa4)" style="fill: none; stroke-dasharray: 1,1.65; stroke-dashoffset: 0; stroke: #999999"/>
     </g>
     <g id="line2d_24">
      <g>
       <use xlink:href="#m45a6c1a9f2" x="27.65" y="4.200969" style="fill: #262626; stroke: #262626; stroke-width: 1.25"/>
      </g>
     </g>
     <g id="text_12">
      <!-- 100 -->
      <g style="fill: #262626" transform="translate(0 8.401938) scale(0.121 -0.121)">
       <use xlink:href="#TimesNewRomanPSMT-31"/>
       <use xlink:href="#TimesNewRomanPSMT-30" x="50"/>
       <use xlink:href="#TimesNewRomanPSMT-30" x="100"/>
      </g>
     </g>
    </g>
   </g>
   <g id="patch_3">
    <path d="M 53.013636 447.720969 
L 99.129339 447.720969 
L 99.129339 183.369379 
L 53.013636 183.369379 
z
" clip-path="url(#pc3a0428fa4)" style="fill: #4c72b0; stroke: #ffffff; stroke-linejoin: miter"/>
   </g>
   <g id="patch_4">
    <path d="M 145.245041 447.720969 
L 191.360744 447.720969 
L 191.360744 162.525745 
L 145.245041 162.525745 
z
" clip-path="url(#pc3a0428fa4)" style="fill: #4c72b0; stroke: #ffffff; stroke-linejoin: miter"/>
   </g>
   <g id="patch_5">
    <path d="M 237.476446 447.720969 
L 283.592149 447.720969 
L 283.592149 142.328063 
L 237.476446 142.328063 
z
" clip-path="url(#pc3a0428fa4)" style="fill: #4c72b0; stroke: #ffffff; stroke-linejoin: miter"/>
   </g>
   <g id="patch_6">
    <path d="M 329.707851 447.720969 
L 375.823554 447.720969 
L 375.823554 106.007266 
L 329.707851 106.007266 
z
" clip-path="url(#pc3a0428fa4)" style="fill: #4c72b0; stroke: #ffffff; stroke-linejoin: miter"/>
   </g>
   <g id="patch_7">
    <path d="M 421.939256 447.720969 
L 468.054959 447.720969 
L 468.054959 77.619718 
L 421.939256 77.619718 
z
" clip-path="url(#pc3a0428fa4)" style="fill: #4c72b0; stroke: #ffffff; stroke-linejoin: miter"/>
   </g>
   <g id="patch_8">
    <path d="M 514.170661 447.720969 
L 560.286364 447.720969 
L 560.286364 32.920231 
L 514.170661 32.920231 
z
" clip-path="url(#pc3a0428fa4)" style="fill: #4c72b0; stroke: #ffffff; stroke-linejoin: miter"/>
   </g>
   <g id="patch_9">
    <path d="M 27.65 447.720969 
L 27.65 4.200969 
" style="fill: none; stroke: #262626; stroke-width: 1.25; stroke-linejoin: miter; stroke-linecap: square"/>
   </g>
   <g id="patch_10">
    <path d="M 585.65 447.720969 
L 585.65 4.200969 
" style="fill: none; stroke: #262626; stroke-width: 1.25; stroke-linejoin: miter; stroke-linecap: square"/>
   </g>
   <g id="patch_11">
    <path d="M 27.65 447.720969 
L 585.65 447.720969 
" style="fill: none; stroke: #262626; stroke-width: 1.25; stroke-linejoin: miter; stroke-linecap: square"/>
   </g>
   <g id="patch_12">
    <path d="M 27.65 4.200969 
L 585.65 4.200969 
" style="fill: none; stroke: #262626; stroke-width: 1.25; stroke-linejoin: miter; stroke-linecap: square"/>
   </g>
   <g id="text_13">
    <!-- 59.603 -->
    <g style="fill: #262626" transform="translate(57.921488 177.545816) scale(0.132 -0.132)">
     <defs>
      <path id="TimesNewRomanPSMT-35" d="M 2778 4238 
L 2534 3706 
L 1259 3706 
L 981 3138 
Q 1809 3016 2294 2522 
Q 2709 2097 2709 1522 
Q 2709 1188 2573 903 
Q 2438 619 2231 419 
Q 2025 219 1772 97 
Q 1413 -75 1034 -75 
Q 653 -75 479 54 
Q 306 184 306 341 
Q 306 428 378 495 
Q 450 563 559 563 
Q 641 563 702 538 
Q 763 513 909 409 
Q 1144 247 1384 247 
Q 1750 247 2026 523 
Q 2303 800 2303 1197 
Q 2303 1581 2056 1914 
Q 1809 2247 1375 2428 
Q 1034 2569 447 2591 
L 1259 4238 
L 2778 4238 
z
" transform="scale(0.015625)"/>
      <path id="TimesNewRomanPSMT-2e" d="M 800 606 
Q 947 606 1047 504 
Q 1147 403 1147 259 
Q 1147 116 1045 14 
Q 944 -88 800 -88 
Q 656 -88 554 14 
Q 453 116 453 259 
Q 453 406 554 506 
Q 656 606 800 606 
z
" transform="scale(0.015625)"/>
     </defs>
     <use xlink:href="#TimesNewRomanPSMT-35"/>
     <use xlink:href="#TimesNewRomanPSMT-39" x="50"/>
     <use xlink:href="#TimesNewRomanPSMT-2e" x="100"/>
     <use xlink:href="#TimesNewRomanPSMT-36" x="125"/>
     <use xlink:href="#TimesNewRomanPSMT-30" x="175"/>
     <use xlink:href="#TimesNewRomanPSMT-33" x="225"/>
    </g>
   </g>
   <g id="text_14">
    <!-- 64.303 -->
    <g style="fill: #262626" transform="translate(150.152893 156.702182) scale(0.132 -0.132)">
     <use xlink:href="#TimesNewRomanPSMT-36"/>
     <use xlink:href="#TimesNewRomanPSMT-34" x="50"/>
     <use xlink:href="#TimesNewRomanPSMT-2e" x="100"/>
     <use xlink:href="#TimesNewRomanPSMT-33" x="125"/>
     <use xlink:href="#TimesNewRomanPSMT-30" x="175"/>
     <use xlink:href="#TimesNewRomanPSMT-33" x="225"/>
    </g>
   </g>
   <g id="text_15">
    <!-- 68.857 -->
    <g style="fill: #262626" transform="translate(242.384298 136.5045) scale(0.132 -0.132)">
     <defs>
      <path id="TimesNewRomanPSMT-37" d="M 644 4238 
L 2916 4238 
L 2916 4119 
L 1503 -88 
L 1153 -88 
L 2419 3728 
L 1253 3728 
Q 900 3728 750 3644 
Q 488 3500 328 3200 
L 238 3234 
L 644 4238 
z
" transform="scale(0.015625)"/>
     </defs>
     <use xlink:href="#TimesNewRomanPSMT-36"/>
     <use xlink:href="#TimesNewRomanPSMT-38" x="50"/>
     <use xlink:href="#TimesNewRomanPSMT-2e" x="100"/>
     <use xlink:href="#TimesNewRomanPSMT-38" x="125"/>
     <use xlink:href="#TimesNewRomanPSMT-35" x="175"/>
     <use xlink:href="#TimesNewRomanPSMT-37" x="225"/>
    </g>
   </g>
   <g id="text_16">
    <!-- 77.046 -->
    <g style="fill: #262626" transform="translate(334.615702 100.183704) scale(0.132 -0.132)">
     <use xlink:href="#TimesNewRomanPSMT-37"/>
     <use xlink:href="#TimesNewRomanPSMT-37" x="50"/>
     <use xlink:href="#TimesNewRomanPSMT-2e" x="100"/>
     <use xlink:href="#TimesNewRomanPSMT-30" x="125"/>
     <use xlink:href="#TimesNewRomanPSMT-34" x="175"/>
     <use xlink:href="#TimesNewRomanPSMT-36" x="225"/>
    </g>
   </g>
   <g id="text_17">
    <!-- 83.446 -->
    <g style="fill: #262626" transform="translate(426.847107 71.796155) scale(0.132 -0.132)">
     <use xlink:href="#TimesNewRomanPSMT-38"/>
     <use xlink:href="#TimesNewRomanPSMT-33" x="50"/>
     <use xlink:href="#TimesNewRomanPSMT-2e" x="100"/>
     <use xlink:href="#TimesNewRomanPSMT-34" x="125"/>
     <use xlink:href="#TimesNewRomanPSMT-34" x="175"/>
     <use xlink:href="#TimesNewRomanPSMT-36" x="225"/>
    </g>
   </g>
   <g id="text_18">
    <!-- 93.525 -->
    <g style="fill: #262626" transform="translate(519.078512 27.096668) scale(0.132 -0.132)">
     <use xlink:href="#TimesNewRomanPSMT-39"/>
     <use xlink:href="#TimesNewRomanPSMT-33" x="50"/>
     <use xlink:href="#TimesNewRomanPSMT-2e" x="100"/>
     <use xlink:href="#TimesNewRomanPSMT-35" x="125"/>
     <use xlink:href="#TimesNewRomanPSMT-32" x="175"/>
     <use xlink:href="#TimesNewRomanPSMT-35" x="225"/>
    </g>
   </g>
   <g id="legend_1">
    <g id="patch_13">
     <path d="M 43.65 32.254303 
L 67.85 32.254303 
L 67.85 23.784303 
L 43.65 23.784303 
z
" style="fill: #4c72b0; stroke: #ffffff; stroke-linejoin: miter"/>
    </g>
    <g id="text_19">
     <!-- 数字化转型绩效 -->
     <g style="fill: #262626" transform="translate(77.53 32.254303) scale(0.121 -0.121)">
      <defs>
       <path id="STHeitiTC-Medium-6570" d="M 3200 1472 
Q 3117 1190 3049 1014 
Q 2982 838 2899 691 
Q 3046 640 3180 585 
Q 3315 531 3450 461 
Q 3347 352 3286 269 
Q 3226 186 3168 64 
Q 3040 134 2912 201 
Q 2784 269 2637 326 
Q 2496 179 2323 67 
Q 2150 -45 1926 -137 
Q 1702 -230 1417 -310 
Q 1133 -390 781 -474 
Q 717 -346 595 -198 
Q 474 -51 346 45 
Q 934 58 1392 157 
Q 1850 256 2157 493 
Q 1914 563 1635 617 
Q 1357 672 1030 717 
Q 1126 883 1216 1072 
Q 1306 1261 1395 1485 
Q 877 1485 563 1446 
L 563 1901 
Q 742 1882 982 1872 
Q 1222 1862 1530 1856 
Q 1574 1984 1616 2115 
Q 1658 2246 1696 2394 
Q 1843 2336 1955 2310 
Q 2067 2285 2214 2272 
Q 2342 2259 2345 2233 
Q 2349 2208 2253 2144 
Q 2221 2118 2173 2060 
Q 2125 2003 2048 1856 
Q 2368 1856 2598 1859 
Q 2829 1862 3001 1865 
Q 3174 1869 3302 1878 
Q 3430 1888 3552 1901 
L 3552 1446 
Q 3482 1459 3376 1465 
Q 3270 1472 3200 1472 
z
M 1862 1491 
Q 1811 1389 1753 1261 
Q 1696 1133 1626 979 
Q 1869 941 2077 902 
Q 2285 864 2470 819 
Q 2541 928 2614 1107 
Q 2688 1286 2739 1485 
Q 2515 1491 2291 1491 
Q 2067 1491 1862 1491 
z
M 4378 2739 
Q 4384 2291 4441 1936 
Q 4499 1581 4627 1299 
Q 4813 1722 4931 2288 
Q 5050 2854 5088 3642 
L 4352 3642 
Q 4294 3450 4201 3245 
Q 4109 3040 3997 2838 
Q 3885 2637 3760 2448 
Q 3635 2259 3520 2112 
Q 3366 2355 3206 2458 
Q 3398 2720 3561 3037 
Q 3725 3354 3846 3699 
Q 3968 4045 4045 4403 
Q 4122 4762 4147 5107 
Q 4294 5056 4486 5021 
Q 4678 4986 4800 4973 
Q 4870 4966 4880 4924 
Q 4890 4883 4781 4832 
Q 4768 4826 4745 4797 
Q 4723 4768 4691 4688 
Q 4659 4608 4608 4461 
Q 4557 4314 4480 4064 
L 5216 4064 
Q 5498 4064 5690 4077 
Q 5882 4090 6003 4115 
L 6003 3597 
Q 5926 3610 5808 3622 
Q 5690 3635 5562 3635 
Q 5530 3110 5472 2688 
Q 5414 2266 5337 1923 
Q 5261 1581 5158 1315 
Q 5056 1050 4934 832 
Q 5114 627 5386 476 
Q 5658 326 6112 186 
Q 5978 58 5898 -80 
Q 5818 -218 5754 -429 
Q 5523 -288 5350 -176 
Q 5178 -64 5046 35 
Q 4915 134 4819 227 
Q 4723 320 4640 416 
Q 4416 166 4064 -70 
Q 3712 -307 3194 -531 
Q 3136 -429 3037 -313 
Q 2938 -198 2803 -90 
Q 3008 -45 3229 41 
Q 3450 128 3658 246 
Q 3866 365 4048 512 
Q 4230 659 4365 826 
Q 4269 998 4195 1216 
Q 4122 1434 4067 1677 
Q 4013 1920 3984 2173 
Q 3955 2426 3955 2675 
L 4378 2739 
z
M 1549 3462 
Q 1331 3462 1059 3452 
Q 787 3443 589 3424 
L 589 3878 
Q 832 3853 1139 3843 
Q 1446 3834 1850 3834 
L 1850 4435 
Q 1850 4614 1834 4774 
Q 1818 4934 1786 5101 
Q 1933 5088 2073 5081 
Q 2214 5075 2362 5075 
Q 2451 5075 2464 5036 
Q 2477 4998 2406 4966 
Q 2349 4934 2333 4902 
Q 2317 4870 2317 4781 
L 2317 3834 
Q 2675 3834 2995 3846 
Q 3315 3859 3507 3878 
L 3507 3424 
Q 3328 3443 3005 3456 
Q 2682 3469 2317 3469 
Q 2317 3174 2326 2937 
Q 2336 2701 2362 2451 
L 1805 2451 
Q 1830 2682 1840 2899 
Q 1850 3117 1850 3392 
Q 1734 3162 1625 2992 
Q 1517 2822 1392 2678 
Q 1267 2534 1113 2403 
Q 960 2272 755 2125 
Q 685 2234 573 2326 
Q 461 2419 282 2509 
Q 666 2630 1002 2896 
Q 1338 3162 1549 3462 
z
M 3386 4634 
Q 3360 4621 3331 4592 
Q 3302 4563 3260 4499 
Q 3219 4435 3158 4329 
Q 3098 4224 3014 4058 
Q 2944 4077 2832 4093 
Q 2720 4109 2560 4122 
Q 2669 4288 2733 4451 
Q 2797 4614 2861 4858 
Q 2995 4813 3142 4777 
Q 3290 4742 3386 4730 
Q 3456 4717 3459 4691 
Q 3462 4666 3386 4634 
z
M 973 4090 
Q 966 4237 947 4397 
Q 928 4557 883 4742 
L 1389 4806 
Q 1434 4640 1462 4477 
Q 1491 4314 1510 4166 
L 973 4090 
z
M 3046 2451 
Q 2918 2598 2774 2752 
Q 2630 2906 2464 3053 
L 2790 3302 
Q 2970 3149 3104 3017 
Q 3238 2886 3360 2765 
L 3046 2451 
z
" transform="scale(0.015625)"/>
       <path id="STHeitiTC-Medium-5b57" d="M 3002 4371 
Q 2950 4544 2886 4729 
Q 2822 4915 2765 5037 
L 3405 5197 
Q 3456 5011 3526 4787 
Q 3597 4563 3667 4371 
Q 4109 4371 4425 4374 
Q 4742 4378 4979 4381 
Q 5216 4384 5385 4393 
Q 5555 4403 5709 4416 
L 5709 3110 
L 5133 3110 
L 5133 3917 
L 1203 3917 
L 1203 3008 
L 653 3008 
L 653 4416 
Q 819 4403 1008 4393 
Q 1197 4384 1465 4381 
Q 1734 4378 2102 4374 
Q 2470 4371 3002 4371 
z
M 3622 1754 
Q 4403 1760 4963 1773 
Q 5523 1786 5978 1818 
L 5978 1235 
Q 5523 1267 4963 1280 
Q 4403 1293 3622 1299 
L 3622 -26 
Q 3622 -160 3580 -262 
Q 3539 -365 3414 -441 
Q 3290 -518 3066 -576 
Q 2842 -634 2477 -672 
Q 2458 -506 2406 -365 
Q 2355 -224 2240 -32 
Q 2509 -45 2665 -41 
Q 2822 -38 2905 -6 
Q 2989 26 3014 86 
Q 3040 147 3040 250 
L 3040 1299 
Q 2150 1299 1529 1283 
Q 909 1267 422 1235 
L 422 1818 
Q 666 1798 941 1788 
Q 1216 1779 1533 1769 
Q 1850 1760 2224 1757 
Q 2598 1754 3040 1754 
L 3040 2221 
Q 3341 2362 3545 2493 
Q 3750 2624 3898 2758 
L 2163 2758 
Q 1958 2758 1801 2755 
Q 1645 2752 1478 2739 
L 1478 3264 
Q 1664 3251 1827 3244 
Q 1990 3238 2176 3232 
Q 2362 3226 2595 3226 
Q 2829 3226 3155 3226 
Q 3552 3226 3833 3229 
Q 4115 3232 4307 3235 
Q 4499 3238 4624 3244 
Q 4749 3251 4838 3264 
L 4838 2784 
Q 4710 2746 4416 2557 
Q 4122 2368 3622 1984 
L 3622 1754 
z
" transform="scale(0.015625)"/>
       <path id="STHeitiTC-Medium-5316" d="M 1325 2899 
Q 1178 2656 1021 2432 
Q 864 2208 730 2022 
Q 666 2138 557 2256 
Q 448 2374 314 2464 
Q 442 2566 570 2713 
Q 698 2861 819 3027 
Q 941 3194 1043 3376 
Q 1146 3558 1229 3725 
Q 1427 4141 1539 4541 
Q 1651 4941 1683 5210 
Q 1843 5139 2003 5078 
Q 2163 5018 2317 4986 
Q 2445 4960 2461 4915 
Q 2477 4870 2362 4781 
Q 2342 4768 2316 4729 
Q 2291 4691 2233 4595 
Q 2176 4499 2086 4323 
Q 1997 4147 1856 3859 
L 1856 -595 
L 1254 -595 
Q 1286 -390 1305 -108 
Q 1325 173 1325 435 
L 1325 2899 
z
M 3750 2445 
Q 4122 2797 4464 3225 
Q 4806 3654 5158 4243 
Q 5286 4134 5452 4019 
Q 5619 3904 5766 3827 
Q 5837 3789 5837 3753 
Q 5837 3718 5754 3706 
Q 5722 3699 5664 3657 
Q 5606 3616 5539 3555 
Q 5472 3494 5401 3427 
Q 5331 3360 5280 3302 
Q 5082 3078 4915 2899 
Q 4749 2720 4576 2550 
Q 4403 2381 4204 2205 
Q 4006 2029 3750 1811 
L 3750 384 
Q 3750 262 3782 188 
Q 3814 115 3897 76 
Q 3981 38 4131 28 
Q 4282 19 4518 19 
Q 4774 19 4937 38 
Q 5101 58 5203 150 
Q 5306 243 5363 428 
Q 5421 614 5472 941 
Q 5549 845 5613 781 
Q 5677 717 5747 669 
Q 5818 621 5894 585 
Q 5971 550 6080 512 
Q 5971 147 5881 -54 
Q 5792 -256 5641 -355 
Q 5491 -454 5232 -473 
Q 4973 -493 4518 -493 
Q 4083 -493 3827 -467 
Q 3571 -442 3430 -374 
Q 3290 -307 3248 -182 
Q 3206 -58 3206 134 
L 3206 4358 
Q 3206 4589 3196 4813 
Q 3187 5037 3155 5165 
Q 3226 5146 3318 5133 
Q 3411 5120 3507 5110 
Q 3603 5101 3692 5094 
Q 3782 5088 3840 5088 
Q 3930 5088 3939 5043 
Q 3949 4998 3878 4947 
Q 3827 4915 3788 4825 
Q 3750 4736 3750 4672 
L 3750 2445 
z
" transform="scale(0.015625)"/>
       <path id="STHeitiTC-Medium-8f6c" d="M 1594 2413 
Q 1587 2758 1574 2998 
Q 1562 3238 1549 3379 
Q 1606 3366 1683 3360 
Q 1760 3354 1843 3347 
Q 1926 3341 2006 3337 
Q 2086 3334 2144 3334 
Q 2208 3334 2211 3308 
Q 2214 3283 2163 3258 
Q 2125 3238 2102 3196 
Q 2080 3155 2080 3078 
L 2080 2413 
Q 2285 2419 2409 2428 
Q 2534 2438 2656 2464 
L 2656 1984 
Q 2566 1997 2425 2003 
Q 2285 2010 2080 2016 
L 2080 1126 
Q 2381 1178 2576 1219 
Q 2771 1261 2880 1293 
Q 2848 1165 2835 1021 
Q 2822 877 2822 768 
Q 2714 755 2547 732 
Q 2381 710 2080 666 
Q 2080 288 2093 -41 
Q 2106 -371 2138 -710 
L 1536 -710 
Q 1568 -384 1581 -73 
Q 1594 237 1594 589 
Q 1210 518 947 454 
Q 685 390 499 320 
Q 480 461 448 643 
Q 416 826 384 966 
Q 480 966 624 976 
Q 768 986 937 998 
Q 1107 1011 1276 1024 
Q 1446 1037 1594 1056 
L 1594 2010 
Q 1222 1997 979 1968 
Q 736 1939 563 1894 
Q 506 2150 352 2374 
Q 410 2413 474 2486 
Q 538 2560 618 2713 
Q 698 2867 797 3126 
Q 896 3386 1030 3789 
Q 794 3782 678 3772 
Q 563 3763 448 3744 
L 448 4282 
Q 576 4256 736 4246 
Q 896 4237 1171 4230 
Q 1274 4563 1322 4784 
Q 1370 5005 1382 5210 
Q 1459 5178 1548 5149 
Q 1638 5120 1728 5091 
Q 1818 5062 1898 5040 
Q 1978 5018 2035 5005 
Q 2170 4973 2029 4883 
Q 2003 4870 1974 4832 
Q 1946 4794 1907 4717 
Q 1869 4640 1817 4521 
Q 1766 4403 1690 4230 
Q 2118 4230 2352 4243 
Q 2586 4256 2733 4282 
L 2733 3744 
Q 2656 3757 2576 3766 
Q 2496 3776 2368 3779 
Q 2240 3782 2035 3785 
Q 1830 3789 1510 3789 
L 986 2413 
L 1594 2413 
z
M 4640 134 
Q 4819 0 4988 -137 
Q 5158 -275 5344 -429 
L 4922 -870 
Q 4698 -646 4506 -464 
Q 4314 -282 4122 -125 
Q 3930 32 3722 176 
Q 3514 320 3264 467 
L 3578 858 
Q 3782 730 3948 618 
Q 4115 506 4262 403 
L 4915 1350 
L 3341 1350 
Q 3392 1594 3443 1843 
Q 3494 2093 3558 2490 
Q 3328 2477 3097 2467 
Q 2867 2458 2733 2432 
L 2733 2976 
Q 2893 2957 3139 2944 
Q 3386 2931 3616 2925 
Q 3648 3162 3670 3357 
Q 3693 3552 3718 3718 
Q 3514 3712 3296 3699 
Q 3078 3686 2957 3667 
L 2957 4211 
Q 3021 4198 3117 4188 
Q 3213 4179 3321 4172 
Q 3430 4166 3548 4160 
Q 3667 4154 3770 4154 
Q 3795 4352 3808 4496 
Q 3821 4640 3830 4752 
Q 3840 4864 3846 4957 
Q 3853 5050 3853 5146 
Q 4013 5094 4192 5062 
Q 4371 5030 4474 5030 
Q 4550 5030 4556 5001 
Q 4563 4973 4474 4890 
Q 4454 4877 4438 4838 
Q 4422 4800 4400 4717 
Q 4378 4634 4349 4496 
Q 4320 4358 4288 4147 
L 4973 4147 
Q 5158 4147 5334 4163 
Q 5510 4179 5677 4211 
L 5677 3667 
Q 5338 3725 4973 3725 
L 4218 3725 
Q 4192 3558 4163 3360 
Q 4134 3162 4102 2918 
L 5184 2918 
Q 5645 2918 6042 2976 
L 6042 2432 
Q 5843 2464 5625 2480 
Q 5408 2496 5184 2496 
L 4045 2496 
Q 4026 2336 4003 2160 
Q 3981 1984 3955 1792 
L 4992 1792 
Q 5434 1792 5734 1830 
L 5734 1389 
Q 5619 1344 5478 1232 
Q 5338 1120 5248 992 
L 4640 134 
z
" transform="scale(0.015625)"/>
       <path id="STHeitiTC-Medium-578b" d="M 3008 768 
Q 2381 768 1926 761 
Q 1472 755 1120 723 
L 1120 1248 
Q 1485 1216 1933 1209 
Q 2381 1203 3008 1203 
Q 3002 1382 2992 1529 
Q 2982 1677 2970 1760 
Q 3110 1741 3251 1731 
Q 3392 1722 3558 1722 
Q 3648 1722 3657 1690 
Q 3667 1658 3590 1606 
Q 3558 1581 3529 1513 
Q 3501 1446 3501 1389 
L 3501 1203 
Q 4109 1203 4550 1212 
Q 4992 1222 5338 1248 
L 5338 723 
Q 4992 749 4550 758 
Q 4109 768 3501 768 
L 3501 58 
Q 4346 58 4954 67 
Q 5562 77 6035 102 
L 6035 -416 
Q 5530 -390 4864 -380 
Q 4198 -371 3251 -371 
Q 2310 -371 1641 -384 
Q 973 -397 474 -416 
L 474 102 
Q 922 77 1539 67 
Q 2157 58 3008 58 
L 3008 768 
z
M 5702 4909 
Q 5670 4877 5657 4841 
Q 5645 4806 5645 4723 
L 5645 2208 
Q 5645 2016 5606 1897 
Q 5568 1779 5462 1708 
Q 5357 1638 5174 1603 
Q 4992 1568 4698 1536 
Q 4685 1715 4637 1852 
Q 4589 1990 4461 2138 
Q 4826 2067 4989 2131 
Q 5152 2195 5152 2374 
L 5152 4038 
Q 5152 4198 5149 4355 
Q 5146 4512 5136 4649 
Q 5126 4787 5116 4899 
Q 5107 5011 5101 5082 
Q 5350 5030 5658 5050 
Q 5747 5056 5756 5011 
Q 5766 4966 5702 4909 
z
M 4557 4525 
Q 4518 4493 4518 4352 
L 4518 3226 
Q 4518 3034 4524 2835 
Q 4531 2637 4550 2419 
L 4019 2419 
Q 4038 2650 4044 2842 
Q 4051 3034 4051 3226 
L 4051 3994 
Q 4051 4237 4038 4406 
Q 4026 4576 4000 4698 
Q 4147 4666 4291 4653 
Q 4435 4640 4531 4646 
Q 4602 4653 4614 4611 
Q 4627 4570 4557 4525 
z
M 1894 4410 
L 1894 3405 
L 2605 3405 
L 2605 4410 
L 1894 4410 
z
M 1408 4410 
Q 1197 4416 1005 4403 
Q 813 4390 710 4365 
L 710 4864 
Q 787 4851 899 4844 
Q 1011 4838 1180 4832 
Q 1350 4826 1590 4822 
Q 1830 4819 2163 4819 
Q 2509 4819 2752 4822 
Q 2995 4826 3161 4829 
Q 3328 4832 3433 4841 
Q 3539 4851 3610 4864 
L 3610 4365 
Q 3520 4378 3382 4387 
Q 3245 4397 3078 4403 
L 3078 3405 
Q 3283 3411 3465 3420 
Q 3648 3430 3731 3443 
L 3731 2950 
Q 3642 2963 3462 2969 
Q 3283 2976 3078 2976 
Q 3072 2746 3085 2461 
Q 3098 2176 3123 1901 
L 2560 1901 
Q 2592 2176 2601 2464 
Q 2611 2752 2605 2982 
L 1875 2982 
Q 1818 2541 1542 2137 
Q 1267 1734 710 1402 
Q 582 1670 358 1786 
Q 870 2118 1100 2400 
Q 1331 2682 1389 2982 
Q 1062 2982 825 2972 
Q 589 2963 480 2950 
L 480 3443 
Q 589 3430 838 3417 
Q 1088 3405 1408 3405 
L 1408 4410 
z
" transform="scale(0.015625)"/>
       <path id="STHeitiTC-Medium-7ee9" d="M 5536 -698 
Q 5235 -410 4931 -176 
Q 4627 58 4314 230 
L 4634 608 
Q 4966 403 5276 192 
Q 5587 -19 5926 -275 
L 5536 -698 
z
M 2317 858 
Q 2278 755 2268 604 
Q 2259 454 2278 346 
Q 1632 262 1184 150 
Q 736 38 506 -64 
Q 480 122 448 253 
Q 416 384 333 589 
Q 602 570 1117 634 
Q 1632 698 2317 858 
z
M 4429 1434 
Q 4371 1357 4333 1043 
Q 4320 928 4291 803 
Q 4262 678 4220 556 
Q 4179 435 4124 323 
Q 4070 211 3994 128 
Q 3757 -147 3395 -345 
Q 3034 -544 2509 -698 
Q 2406 -410 2099 -256 
Q 2726 -154 3120 41 
Q 3514 237 3661 493 
Q 3712 582 3747 681 
Q 3782 781 3804 912 
Q 3827 1043 3840 1216 
Q 3853 1389 3866 1632 
Q 3994 1606 4154 1593 
Q 4314 1581 4403 1581 
Q 4486 1581 4489 1552 
Q 4493 1523 4429 1434 
z
M 4979 653 
L 4979 1882 
L 3258 1882 
L 3258 570 
L 2720 570 
Q 2739 710 2752 876 
Q 2765 1043 2765 1171 
L 2765 1843 
Q 2765 1971 2755 2118 
Q 2746 2266 2726 2355 
Q 2803 2342 2896 2332 
Q 2989 2323 3136 2316 
Q 3283 2310 3504 2307 
Q 3725 2304 4064 2304 
Q 4403 2304 4640 2307 
Q 4877 2310 5043 2320 
Q 5210 2330 5318 2336 
Q 5427 2342 5510 2355 
Q 5498 2266 5485 2118 
Q 5472 1971 5472 1843 
L 5472 1242 
Q 5472 1114 5485 947 
Q 5498 781 5517 653 
L 4979 653 
z
M 979 2867 
Q 851 2848 739 2816 
Q 627 2784 525 2746 
Q 486 2906 444 3008 
Q 403 3110 339 3213 
Q 442 3270 528 3360 
Q 614 3450 704 3645 
Q 794 3840 906 4185 
Q 1018 4531 1184 5107 
Q 1293 5037 1456 4985 
Q 1619 4934 1766 4909 
Q 1856 4896 1856 4854 
Q 1856 4813 1786 4787 
Q 1766 4781 1728 4726 
Q 1690 4672 1603 4512 
Q 1517 4352 1366 4054 
Q 1216 3757 979 3264 
L 1670 3354 
Q 1741 3494 1792 3609 
Q 1843 3725 1901 3891 
Q 2029 3802 2166 3728 
Q 2304 3654 2394 3622 
Q 2541 3565 2387 3501 
Q 2374 3494 2329 3436 
Q 2285 3379 2160 3203 
Q 2035 3027 1808 2688 
Q 1581 2349 1210 1786 
Q 1357 1805 1485 1824 
Q 1613 1843 1737 1862 
Q 1862 1882 2003 1901 
Q 2144 1920 2317 1946 
Q 2240 1702 2259 1459 
L 1306 1370 
Q 1120 1350 937 1315 
Q 755 1280 602 1235 
Q 589 1382 560 1500 
Q 531 1619 480 1728 
Q 582 1766 672 1820 
Q 762 1875 867 2000 
Q 973 2125 1113 2349 
Q 1254 2573 1459 2950 
L 979 2867 
z
M 3859 4211 
Q 3398 4198 3056 4179 
Q 2714 4160 2432 4128 
L 2432 4666 
Q 2714 4634 3056 4621 
Q 3398 4608 3859 4602 
Q 3853 4768 3840 4915 
Q 3827 5062 3814 5139 
Q 3955 5120 4089 5110 
Q 4224 5101 4390 5101 
Q 4557 5101 4416 4998 
Q 4397 4986 4381 4963 
Q 4365 4941 4355 4899 
Q 4346 4858 4339 4787 
Q 4333 4717 4333 4602 
Q 4832 4608 5197 4621 
Q 5562 4634 5850 4666 
L 5850 4147 
Q 5562 4179 5197 4192 
Q 4832 4205 4333 4211 
L 4333 3840 
Q 4736 3846 5021 3859 
Q 5306 3872 5530 3904 
L 5530 3386 
Q 5306 3418 5021 3430 
Q 4736 3443 4333 3450 
L 4333 3066 
Q 4915 3066 5331 3082 
Q 5747 3098 6067 3130 
L 6067 2611 
Q 5722 2643 5270 2659 
Q 4819 2675 4166 2675 
Q 3520 2675 3078 2659 
Q 2637 2643 2298 2611 
L 2298 3130 
Q 2605 3098 2973 3085 
Q 3341 3072 3859 3066 
L 3859 3450 
Q 3475 3437 3200 3417 
Q 2925 3398 2701 3366 
L 2701 3904 
Q 2925 3872 3200 3859 
Q 3475 3846 3859 3840 
L 3859 4211 
z
" transform="scale(0.015625)"/>
       <path id="STHeitiTC-Medium-6548" d="M 1741 3187 
Q 1869 3155 1722 3066 
Q 1690 3046 1626 2982 
Q 1562 2918 1446 2784 
Q 1331 2650 1148 2426 
Q 966 2202 698 1862 
Q 506 2074 269 2234 
Q 621 2502 880 2822 
Q 1139 3142 1267 3469 
Q 1389 3379 1529 3292 
Q 1670 3206 1741 3187 
z
M 3002 2214 
Q 2912 2336 2787 2477 
Q 2662 2618 2528 2752 
Q 2394 2886 2266 2995 
Q 2138 3104 2042 3162 
L 2451 3469 
Q 2662 3245 2896 3033 
Q 3130 2822 3386 2618 
L 3002 2214 
z
M 3296 3629 
Q 2957 3661 2605 3670 
Q 2253 3680 1869 3680 
Q 1376 3680 1033 3661 
Q 691 3642 454 3622 
L 454 4218 
Q 691 4186 1017 4170 
Q 1344 4154 1882 4154 
Q 2291 4154 2640 4170 
Q 2989 4186 3296 4218 
L 3296 3629 
z
M 1824 4320 
Q 1792 4480 1728 4672 
Q 1664 4864 1574 5088 
L 2176 5242 
Q 2234 5075 2317 4860 
Q 2400 4646 2477 4480 
L 1824 4320 
z
M 1984 1523 
Q 2093 1734 2173 1964 
Q 2253 2195 2291 2387 
Q 2426 2291 2573 2195 
Q 2720 2099 2778 2086 
Q 2829 2074 2822 2045 
Q 2816 2016 2758 1984 
Q 2746 1978 2723 1946 
Q 2701 1914 2662 1843 
Q 2624 1773 2563 1657 
Q 2502 1542 2419 1370 
Q 2400 1331 2377 1289 
Q 2355 1248 2330 1203 
Q 2560 979 2755 774 
Q 2950 570 3078 422 
L 2656 58 
Q 2534 243 2380 428 
Q 2227 614 2061 800 
Q 1459 -45 768 -550 
Q 698 -429 573 -320 
Q 448 -211 288 -141 
Q 474 -51 646 57 
Q 819 166 992 316 
Q 1165 467 1347 665 
Q 1530 864 1728 1133 
Q 1498 1357 1280 1533 
Q 1062 1709 896 1805 
L 1254 2150 
Q 1421 2022 1609 1862 
Q 1798 1702 1984 1523 
z
M 4070 3533 
Q 3974 3328 3888 3158 
Q 3802 2989 3693 2810 
Q 3571 2880 3452 2925 
Q 3334 2970 3206 3002 
Q 3571 3520 3795 4086 
Q 4019 4653 4102 5210 
Q 4250 5158 4432 5110 
Q 4614 5062 4736 5050 
Q 4890 5030 4736 4922 
Q 4704 4902 4675 4864 
Q 4646 4826 4598 4733 
Q 4550 4640 4476 4470 
Q 4403 4301 4282 4026 
Q 4698 4026 4986 4032 
Q 5274 4038 5472 4048 
Q 5670 4058 5792 4067 
Q 5914 4077 6003 4096 
L 6003 3494 
Q 5869 3514 5728 3520 
Q 5587 3526 5414 3533 
Q 5382 2976 5334 2560 
Q 5286 2144 5209 1824 
Q 5133 1504 5030 1254 
Q 4928 1005 4787 787 
Q 5094 499 5456 304 
Q 5818 109 6131 32 
Q 5997 -96 5869 -285 
Q 5741 -474 5690 -621 
Q 5587 -570 5436 -464 
Q 5286 -358 5116 -220 
Q 4947 -83 4784 70 
Q 4621 224 4486 371 
Q 4198 51 3782 -246 
Q 3366 -544 2899 -749 
Q 2822 -634 2716 -518 
Q 2611 -403 2483 -307 
Q 2963 -154 3401 121 
Q 3840 397 4186 781 
Q 3955 1178 3804 1645 
Q 3654 2112 3584 2528 
L 4077 2682 
Q 4083 2547 4121 2352 
Q 4160 2157 4214 1945 
Q 4269 1734 4336 1532 
Q 4403 1331 4480 1178 
Q 4666 1542 4762 2112 
Q 4858 2682 4883 3533 
L 4070 3533 
z
" transform="scale(0.015625)"/>
      </defs>
      <use xlink:href="#STHeitiTC-Medium-6570"/>
      <use xlink:href="#STHeitiTC-Medium-5b57" x="99.999985"/>
      <use xlink:href="#STHeitiTC-Medium-5316" x="199.999969"/>
      <use xlink:href="#STHeitiTC-Medium-8f6c" x="299.999954"/>
      <use xlink:href="#STHeitiTC-Medium-578b" x="399.999939"/>
      <use xlink:href="#STHeitiTC-Medium-7ee9" x="499.999924"/>
      <use xlink:href="#STHeitiTC-Medium-6548" x="599.999908"/>
     </g>
    </g>
   </g>
  </g>
  <g id="axes_2">
   <g id="matplotlib.axis_3">
    <g id="ytick_7">
     <g id="line2d_25">
      <path d="M 27.65 447.720969 
L 585.65 447.720969 
" clip-path="url(#pc3a0428fa4)" style="fill: none; stroke-dasharray: 1,1.65; stroke-dashoffset: 0; stroke: #999999"/>
     </g>
     <g id="line2d_26">
      <defs>
       <path id="mf7bc4cea71" d="M 0 0 
L 6 0 
" style="stroke: #262626; stroke-width: 1.25"/>
      </defs>
      <g>
       <use xlink:href="#mf7bc4cea71" x="585.65" y="447.720969" style="fill: #262626; stroke: #262626; stroke-width: 1.25"/>
      </g>
     </g>
     <g id="text_20">
      <!-- 0.0% -->
      <g style="fill: #262626" transform="translate(595.15 451.887219) scale(0.12 -0.12)">
       <defs>
        <path id="TimesNewRomanPSMT-25" d="M 4350 4334 
L 1263 -175 
L 984 -175 
L 4072 4334 
L 4350 4334 
z
M 1138 4334 
Q 1559 4334 1792 3984 
Q 2025 3634 2025 3181 
Q 2025 2638 1762 2341 
Q 1500 2044 1131 2044 
Q 884 2044 678 2180 
Q 472 2316 348 2584 
Q 225 2853 225 3181 
Q 225 3509 350 3786 
Q 475 4063 692 4198 
Q 909 4334 1138 4334 
z
M 1128 4159 
Q 969 4159 845 3971 
Q 722 3784 722 3184 
Q 722 2750 791 2522 
Q 844 2350 956 2256 
Q 1022 2200 1119 2200 
Q 1269 2200 1375 2363 
Q 1531 2603 1531 3166 
Q 1531 3759 1378 4000 
Q 1278 4159 1128 4159 
z
M 4206 2103 
Q 4428 2103 4648 1962 
Q 4869 1822 4989 1553 
Q 5109 1284 5109 963 
Q 5109 409 4843 117 
Q 4578 -175 4216 -175 
Q 3988 -175 3773 -34 
Q 3559 106 3436 367 
Q 3313 628 3313 963 
Q 3313 1291 3436 1562 
Q 3559 1834 3773 1968 
Q 3988 2103 4206 2103 
z
M 4209 1938 
Q 4059 1938 3950 1769 
Q 3809 1550 3809 941 
Q 3809 381 3953 159 
Q 4059 0 4209 0 
Q 4353 0 4466 172 
Q 4616 400 4616 956 
Q 4616 1544 4466 1778 
Q 4363 1938 4209 1938 
z
" transform="scale(0.015625)"/>
       </defs>
       <use xlink:href="#TimesNewRomanPSMT-30"/>
       <use xlink:href="#TimesNewRomanPSMT-2e" x="50"/>
       <use xlink:href="#TimesNewRomanPSMT-30" x="75"/>
       <use xlink:href="#TimesNewRomanPSMT-25" x="125"/>
      </g>
     </g>
    </g>
    <g id="ytick_8">
     <g id="line2d_27">
      <path d="M 27.65 392.280969 
L 585.65 392.280969 
" clip-path="url(#pc3a0428fa4)" style="fill: none; stroke-dasharray: 1,1.65; stroke-dashoffset: 0; stroke: #999999"/>
     </g>
     <g id="line2d_28">
      <g>
       <use xlink:href="#mf7bc4cea71" x="585.65" y="392.280969" style="fill: #262626; stroke: #262626; stroke-width: 1.25"/>
      </g>
     </g>
     <g id="text_21">
      <!-- 2.5% -->
      <g style="fill: #262626" transform="translate(595.15 396.447219) scale(0.12 -0.12)">
       <use xlink:href="#TimesNewRomanPSMT-32"/>
       <use xlink:href="#TimesNewRomanPSMT-2e" x="50"/>
       <use xlink:href="#TimesNewRomanPSMT-35" x="75"/>
       <use xlink:href="#TimesNewRomanPSMT-25" x="125"/>
      </g>
     </g>
    </g>
    <g id="ytick_9">
     <g id="line2d_29">
      <path d="M 27.65 336.840969 
L 585.65 336.840969 
" clip-path="url(#pc3a0428fa4)" style="fill: none; stroke-dasharray: 1,1.65; stroke-dashoffset: 0; stroke: #999999"/>
     </g>
     <g id="line2d_30">
      <g>
       <use xlink:href="#mf7bc4cea71" x="585.65" y="336.840969" style="fill: #262626; stroke: #262626; stroke-width: 1.25"/>
      </g>
     </g>
     <g id="text_22">
      <!-- 5.0% -->
      <g style="fill: #262626" transform="translate(595.15 341.007219) scale(0.12 -0.12)">
       <use xlink:href="#TimesNewRomanPSMT-35"/>
       <use xlink:href="#TimesNewRomanPSMT-2e" x="50"/>
       <use xlink:href="#TimesNewRomanPSMT-30" x="75"/>
       <use xlink:href="#TimesNewRomanPSMT-25" x="125"/>
      </g>
     </g>
    </g>
    <g id="ytick_10">
     <g id="line2d_31">
      <path d="M 27.65 281.400969 
L 585.65 281.400969 
" clip-path="url(#pc3a0428fa4)" style="fill: none; stroke-dasharray: 1,1.65; stroke-dashoffset: 0; stroke: #999999"/>
     </g>
     <g id="line2d_32">
      <g>
       <use xlink:href="#mf7bc4cea71" x="585.65" y="281.400969" style="fill: #262626; stroke: #262626; stroke-width: 1.25"/>
      </g>
     </g>
     <g id="text_23">
      <!-- 7.5% -->
      <g style="fill: #262626" transform="translate(595.15 285.567219) scale(0.12 -0.12)">
       <use xlink:href="#TimesNewRomanPSMT-37"/>
       <use xlink:href="#TimesNewRomanPSMT-2e" x="50"/>
       <use xlink:href="#TimesNewRomanPSMT-35" x="75"/>
       <use xlink:href="#TimesNewRomanPSMT-25" x="125"/>
      </g>
     </g>
    </g>
    <g id="ytick_11">
     <g id="line2d_33">
      <path d="M 27.65 225.960969 
L 585.65 225.960969 
" clip-path="url(#pc3a0428fa4)" style="fill: none; stroke-dasharray: 1,1.65; stroke-dashoffset: 0; stroke: #999999"/>
     </g>
     <g id="line2d_34">
      <g>
       <use xlink:href="#mf7bc4cea71" x="585.65" y="225.960969" style="fill: #262626; stroke: #262626; stroke-width: 1.25"/>
      </g>
     </g>
     <g id="text_24">
      <!-- 10.0% -->
      <g style="fill: #262626" transform="translate(595.15 230.127219) scale(0.12 -0.12)">
       <use xlink:href="#TimesNewRomanPSMT-31"/>
       <use xlink:href="#TimesNewRomanPSMT-30" x="50"/>
       <use xlink:href="#TimesNewRomanPSMT-2e" x="100"/>
       <use xlink:href="#TimesNewRomanPSMT-30" x="125"/>
       <use xlink:href="#TimesNewRomanPSMT-25" x="175"/>
      </g>
     </g>
    </g>
    <g id="ytick_12">
     <g id="line2d_35">
      <path d="M 27.65 170.520969 
L 585.65 170.520969 
" clip-path="url(#pc3a0428fa4)" style="fill: none; stroke-dasharray: 1,1.65; stroke-dashoffset: 0; stroke: #999999"/>
     </g>
     <g id="line2d_36">
      <g>
       <use xlink:href="#mf7bc4cea71" x="585.65" y="170.520969" style="fill: #262626; stroke: #262626; stroke-width: 1.25"/>
      </g>
     </g>
     <g id="text_25">
      <!-- 12.5% -->
      <g style="fill: #262626" transform="translate(595.15 174.687219) scale(0.12 -0.12)">
       <use xlink:href="#TimesNewRomanPSMT-31"/>
       <use xlink:href="#TimesNewRomanPSMT-32" x="50"/>
       <use xlink:href="#TimesNewRomanPSMT-2e" x="100"/>
       <use xlink:href="#TimesNewRomanPSMT-35" x="125"/>
       <use xlink:href="#TimesNewRomanPSMT-25" x="175"/>
      </g>
     </g>
    </g>
    <g id="ytick_13">
     <g id="line2d_37">
      <path d="M 27.65 115.080969 
L 585.65 115.080969 
" clip-path="url(#pc3a0428fa4)" style="fill: none; stroke-dasharray: 1,1.65; stroke-dashoffset: 0; stroke: #999999"/>
     </g>
     <g id="line2d_38">
      <g>
       <use xlink:href="#mf7bc4cea71" x="585.65" y="115.080969" style="fill: #262626; stroke: #262626; stroke-width: 1.25"/>
      </g>
     </g>
     <g id="text_26">
      <!-- 15.0% -->
      <g style="fill: #262626" transform="translate(595.15 119.247219) scale(0.12 -0.12)">
       <use xlink:href="#TimesNewRomanPSMT-31"/>
       <use xlink:href="#TimesNewRomanPSMT-35" x="50"/>
       <use xlink:href="#TimesNewRomanPSMT-2e" x="100"/>
       <use xlink:href="#TimesNewRomanPSMT-30" x="125"/>
       <use xlink:href="#TimesNewRomanPSMT-25" x="175"/>
      </g>
     </g>
    </g>
    <g id="ytick_14">
     <g id="line2d_39">
      <path d="M 27.65 59.640969 
L 585.65 59.640969 
" clip-path="url(#pc3a0428fa4)" style="fill: none; stroke-dasharray: 1,1.65; stroke-dashoffset: 0; stroke: #999999"/>
     </g>
     <g id="line2d_40">
      <g>
       <use xlink:href="#mf7bc4cea71" x="585.65" y="59.640969" style="fill: #262626; stroke: #262626; stroke-width: 1.25"/>
      </g>
     </g>
     <g id="text_27">
      <!-- 17.5% -->
      <g style="fill: #262626" transform="translate(595.15 63.807219) scale(0.12 -0.12)">
       <use xlink:href="#TimesNewRomanPSMT-31"/>
       <use xlink:href="#TimesNewRomanPSMT-37" x="50"/>
       <use xlink:href="#TimesNewRomanPSMT-2e" x="100"/>
       <use xlink:href="#TimesNewRomanPSMT-35" x="125"/>
       <use xlink:href="#TimesNewRomanPSMT-25" x="175"/>
      </g>
     </g>
    </g>
    <g id="ytick_15">
     <g id="line2d_41">
      <path d="M 27.65 4.200969 
L 585.65 4.200969 
" clip-path="url(#pc3a0428fa4)" style="fill: none; stroke-dasharray: 1,1.65; stroke-dashoffset: 0; stroke: #999999"/>
     </g>
     <g id="line2d_42">
      <g>
       <use xlink:href="#mf7bc4cea71" x="585.65" y="4.200969" style="fill: #262626; stroke: #262626; stroke-width: 1.25"/>
      </g>
     </g>
     <g id="text_28">
      <!-- 20.0% -->
      <g style="fill: #262626" transform="translate(595.15 8.367219) scale(0.12 -0.12)">
       <use xlink:href="#TimesNewRomanPSMT-32"/>
       <use xlink:href="#TimesNewRomanPSMT-30" x="50"/>
       <use xlink:href="#TimesNewRomanPSMT-2e" x="100"/>
       <use xlink:href="#TimesNewRomanPSMT-30" x="125"/>
       <use xlink:href="#TimesNewRomanPSMT-25" x="175"/>
      </g>
     </g>
    </g>
   </g>
   <g id="line2d_43">
    <path d="M 168.302893 272.867308 
L 260.534298 290.66932 
L 352.765702 183.978766 
L 444.997107 263.495909 
L 537.228512 179.887282 
" clip-path="url(#pc3a0428fa4)" style="fill: none; stroke: #c44e52; stroke-width: 2; stroke-linecap: round"/>
    <defs>
     <path id="m061aa67981" d="M 0 3 
C 0.795609 3 1.55874 2.683901 2.12132 2.12132 
C 2.683901 1.55874 3 0.795609 3 0 
C 3 -0.795609 2.683901 -1.55874 2.12132 -2.12132 
C 1.55874 -2.683901 0.795609 -3 0 -3 
C -0.795609 -3 -1.55874 -2.683901 -2.12132 -2.12132 
C -2.683901 -1.55874 -3 -0.795609 -3 0 
C -3 0.795609 -2.683901 1.55874 -2.12132 2.12132 
C -1.55874 2.683901 -0.795609 3 0 3 
z
" style="stroke: #c44e52"/>
    </defs>
    <g clip-path="url(#pc3a0428fa4)">
     <use xlink:href="#m061aa67981" x="168.302893" y="272.867308" style="fill: #c44e52; stroke: #c44e52"/>
     <use xlink:href="#m061aa67981" x="260.534298" y="290.66932" style="fill: #c44e52; stroke: #c44e52"/>
     <use xlink:href="#m061aa67981" x="352.765702" y="183.978766" style="fill: #c44e52; stroke: #c44e52"/>
     <use xlink:href="#m061aa67981" x="444.997107" y="263.495909" style="fill: #c44e52; stroke: #c44e52"/>
     <use xlink:href="#m061aa67981" x="537.228512" y="179.887282" style="fill: #c44e52; stroke: #c44e52"/>
    </g>
   </g>
   <g id="patch_14">
    <path d="M 27.65 447.720969 
L 27.65 4.200969 
" style="fill: none; stroke: #262626; stroke-width: 1.25; stroke-linejoin: miter; stroke-linecap: square"/>
   </g>
   <g id="patch_15">
    <path d="M 585.65 447.720969 
L 585.65 4.200969 
" style="fill: none; stroke: #262626; stroke-width: 1.25; stroke-linejoin: miter; stroke-linecap: square"/>
   </g>
   <g id="patch_16">
    <path d="M 27.65 447.720969 
L 585.65 447.720969 
" style="fill: none; stroke: #262626; stroke-width: 1.25; stroke-linejoin: miter; stroke-linecap: square"/>
   </g>
   <g id="patch_17">
    <path d="M 27.65 4.200969 
L 585.65 4.200969 
" style="fill: none; stroke: #262626; stroke-width: 1.25; stroke-linejoin: miter; stroke-linecap: square"/>
   </g>
   <g id="legend_2">
    <g id="line2d_44">
     <path d="M 171.99 28.019303 
L 184.09 28.019303 
L 196.19 28.019303 
" style="fill: none; stroke: #c44e52; stroke-width: 2; stroke-linecap: round"/>
     <g>
      <use xlink:href="#m061aa67981" x="184.09" y="28.019303" style="fill: #c44e52; stroke: #c44e52"/>
     </g>
    </g>
    <g id="text_29">
     <!-- 复合增长率 -->
     <g style="fill: #262626" transform="translate(205.87 32.254303) scale(0.121 -0.121)">
      <defs>
       <path id="STHeitiTC-Medium-590d" d="M 4659 2605 
L 1837 2605 
L 1837 2182 
L 4659 2182 
L 4659 2605 
z
M 4659 3347 
L 1837 3347 
L 1837 2963 
L 4659 2963 
L 4659 3347 
z
M 3379 422 
Q 3648 557 3875 723 
Q 4102 890 4294 1075 
L 2413 1075 
Q 2650 870 2880 710 
Q 3110 550 3379 422 
z
M 1920 1056 
Q 1709 915 1456 777 
Q 1203 640 883 480 
Q 800 595 713 678 
Q 627 762 461 851 
Q 986 1005 1427 1248 
Q 1869 1491 2163 1798 
Q 1926 1786 1753 1782 
Q 1581 1779 1357 1773 
Q 1376 1990 1385 2204 
Q 1395 2419 1382 2726 
L 1382 3718 
L 3110 3718 
Q 3744 3706 4233 3715 
Q 4723 3725 5165 3750 
Q 5158 3661 5155 3536 
Q 5152 3411 5149 3270 
Q 5146 3130 5146 2986 
Q 5146 2842 5146 2714 
Q 5146 2541 5146 2413 
Q 5146 2285 5149 2182 
Q 5152 2080 5155 1984 
Q 5158 1888 5165 1773 
Q 4922 1786 4682 1795 
Q 4442 1805 4163 1808 
Q 3885 1811 3542 1811 
Q 3200 1811 2752 1811 
Q 2675 1715 2595 1625 
Q 2515 1536 2426 1453 
L 5242 1453 
Q 4973 1107 4653 796 
Q 4333 486 3878 218 
Q 4422 32 4934 -16 
Q 5446 -64 6003 -26 
Q 5875 -198 5827 -358 
Q 5779 -518 5779 -666 
Q 5382 -608 5059 -550 
Q 4736 -493 4451 -419 
Q 4166 -346 3904 -253 
Q 3642 -160 3366 -38 
Q 3040 -186 2681 -301 
Q 2323 -416 1974 -499 
Q 1626 -582 1299 -624 
Q 973 -666 710 -666 
Q 678 -538 604 -406 
Q 531 -275 403 -147 
Q 678 -173 988 -160 
Q 1299 -147 1619 -99 
Q 1939 -51 2256 29 
Q 2573 109 2867 211 
Q 2630 365 2396 579 
Q 2163 794 1920 1056 
z
M 4614 4499 
Q 4845 4499 5008 4502 
Q 5171 4506 5296 4509 
Q 5421 4512 5517 4521 
Q 5613 4531 5702 4550 
L 5702 4045 
Q 5613 4058 5517 4067 
Q 5421 4077 5299 4083 
Q 5178 4090 5014 4093 
Q 4851 4096 4621 4096 
L 1696 4096 
Q 1478 3853 1238 3625 
Q 998 3398 774 3213 
Q 691 3334 620 3414 
Q 550 3494 390 3565 
Q 934 3872 1308 4262 
Q 1683 4653 1952 5114 
Q 2080 5069 2224 5024 
Q 2368 4979 2483 4954 
Q 2534 4941 2528 4909 
Q 2522 4877 2470 4864 
Q 2432 4851 2329 4777 
Q 2227 4704 2042 4499 
L 4614 4499 
z
" transform="scale(0.015625)"/>
       <path id="STHeitiTC-Medium-5408" d="M 4614 2502 
Q 4499 2515 4374 2524 
Q 4250 2534 4086 2537 
Q 3923 2541 3705 2544 
Q 3488 2547 3187 2547 
Q 2886 2547 2665 2544 
Q 2445 2541 2275 2537 
Q 2106 2534 1981 2524 
Q 1856 2515 1741 2502 
L 1741 3046 
Q 1856 3034 1984 3027 
Q 2112 3021 2278 3014 
Q 2445 3008 2665 3005 
Q 2886 3002 3187 3002 
Q 3488 3002 3705 3005 
Q 3923 3008 4086 3011 
Q 4250 3014 4374 3024 
Q 4499 3034 4614 3046 
L 4614 2502 
z
M 3149 4518 
Q 2918 4224 2630 3926 
Q 2342 3629 2028 3341 
Q 1715 3053 1385 2787 
Q 1056 2522 749 2298 
Q 717 2342 662 2403 
Q 608 2464 541 2521 
Q 474 2579 400 2630 
Q 326 2682 262 2720 
Q 493 2816 790 3008 
Q 1088 3200 1392 3443 
Q 1696 3686 1974 3952 
Q 2253 4218 2438 4467 
Q 2675 4774 2771 4937 
Q 2867 5101 2880 5203 
Q 2944 5178 3037 5146 
Q 3130 5114 3226 5085 
Q 3322 5056 3405 5037 
Q 3488 5018 3539 5011 
Q 3610 4998 3616 4960 
Q 3622 4922 3565 4909 
Q 3488 4883 3430 4838 
Q 3648 4486 3981 4185 
Q 4314 3885 4688 3657 
Q 5062 3430 5440 3286 
Q 5818 3142 6131 3104 
Q 6022 2995 5910 2819 
Q 5798 2643 5747 2496 
Q 5338 2675 4957 2889 
Q 4576 3104 4240 3357 
Q 3904 3610 3625 3901 
Q 3347 4192 3149 4518 
z
M 4550 358 
L 4550 1376 
L 1843 1376 
L 1843 358 
L 4550 358 
z
M 1843 -83 
L 1843 -659 
L 1235 -659 
Q 1267 -435 1280 -256 
Q 1293 -77 1293 141 
L 1293 1350 
Q 1293 1517 1286 1638 
Q 1280 1760 1267 1862 
Q 1344 1856 1526 1849 
Q 1709 1843 1965 1840 
Q 2221 1837 2537 1837 
Q 2854 1837 3194 1837 
Q 3507 1837 3820 1837 
Q 4134 1837 4403 1840 
Q 4672 1843 4864 1849 
Q 5056 1856 5126 1862 
Q 5114 1779 5107 1667 
Q 5101 1555 5101 1370 
L 5101 160 
Q 5101 -58 5113 -246 
Q 5126 -435 5158 -640 
L 4550 -640 
L 4550 -83 
L 1843 -83 
z
" transform="scale(0.015625)"/>
       <path id="STHeitiTC-Medium-589e" d="M 3334 2707 
Q 3334 2918 3315 3145 
Q 3296 3373 3264 3507 
L 3635 3546 
Q 3667 3341 3686 3142 
Q 3706 2944 3725 2739 
L 3334 2707 
z
M 5562 2432 
L 5562 3859 
L 4422 3859 
L 4422 2432 
L 5562 2432 
z
M 2982 3859 
L 2982 2432 
L 4000 2432 
L 4000 3859 
L 2982 3859 
z
M 5280 3430 
Q 5274 3418 5248 3357 
Q 5222 3296 5184 3193 
Q 5146 3091 5107 2966 
Q 5069 2842 5030 2707 
Q 4960 2733 4864 2742 
Q 4768 2752 4672 2746 
Q 4723 2918 4755 3113 
Q 4787 3309 4813 3584 
Q 4928 3558 5056 3542 
Q 5184 3526 5280 3526 
Q 5382 3526 5280 3430 
z
M 3469 4243 
Q 3450 4326 3414 4432 
Q 3379 4538 3334 4640 
Q 3290 4742 3242 4832 
Q 3194 4922 3149 4986 
L 3680 5139 
Q 3770 4954 3859 4768 
Q 3949 4582 4026 4410 
L 3469 4243 
z
M 1645 1056 
Q 2054 1184 2406 1325 
Q 2355 1197 2355 1075 
Q 2355 954 2387 819 
Q 2221 781 2006 707 
Q 1792 634 1558 538 
Q 1325 442 1081 326 
Q 838 211 614 90 
Q 576 256 515 435 
Q 454 614 378 768 
Q 774 826 1152 922 
L 1152 2880 
Q 723 2874 461 2822 
L 461 3405 
Q 595 3379 761 3366 
Q 928 3354 1152 3347 
Q 1152 3981 1142 4381 
Q 1133 4781 1107 4973 
Q 1235 4960 1411 4953 
Q 1587 4947 1754 4947 
Q 1824 4947 1833 4918 
Q 1843 4890 1773 4838 
Q 1754 4826 1731 4774 
Q 1709 4723 1689 4656 
Q 1670 4589 1657 4515 
Q 1645 4442 1645 4378 
L 1645 3354 
Q 1830 3360 1968 3373 
Q 2106 3386 2221 3405 
L 2221 2822 
Q 2106 2842 1968 2854 
Q 1830 2867 1645 2874 
L 1645 1056 
z
M 4454 4211 
Q 4595 4480 4691 4720 
Q 4787 4960 4864 5261 
Q 4922 5229 5002 5197 
Q 5082 5165 5162 5136 
Q 5242 5107 5306 5091 
Q 5370 5075 5402 5075 
Q 5478 5062 5395 4992 
Q 5363 4960 5324 4915 
Q 5286 4870 5232 4784 
Q 5178 4698 5101 4560 
Q 5024 4422 4909 4211 
Q 5126 4211 5289 4217 
Q 5453 4224 5577 4230 
Q 5702 4237 5804 4246 
Q 5907 4256 6010 4269 
Q 5984 4058 5977 3747 
Q 5971 3437 5971 3155 
Q 5971 2829 5980 2541 
Q 5990 2253 6016 2016 
Q 5856 2029 5683 2038 
Q 5510 2048 5299 2054 
Q 5088 2061 4838 2064 
Q 4589 2067 4275 2067 
Q 3648 2067 3238 2057 
Q 2829 2048 2515 2022 
Q 2554 2483 2554 3149 
Q 2554 3290 2550 3446 
Q 2547 3603 2544 3753 
Q 2541 3904 2531 4038 
Q 2522 4173 2515 4269 
Q 2650 4256 2787 4243 
Q 2925 4230 3129 4224 
Q 3334 4218 3648 4214 
Q 3962 4211 4454 4211 
z
M 3322 -678 
L 2784 -678 
Q 2803 -550 2816 -377 
Q 2829 -205 2829 -45 
L 2829 1011 
Q 2829 1216 2819 1417 
Q 2810 1619 2784 1728 
Q 2893 1715 3001 1705 
Q 3110 1696 3273 1689 
Q 3437 1683 3673 1680 
Q 3910 1677 4275 1677 
Q 4634 1677 4877 1680 
Q 5120 1683 5283 1689 
Q 5446 1696 5552 1705 
Q 5658 1715 5754 1728 
Q 5734 1613 5724 1398 
Q 5715 1184 5715 1011 
L 5715 77 
Q 5715 -70 5724 -268 
Q 5734 -467 5754 -608 
L 5229 -608 
L 5229 -262 
L 3322 -262 
L 3322 -678 
z
M 3322 51 
L 5229 51 
L 5229 582 
L 3322 582 
L 3322 51 
z
M 5229 1357 
L 3322 1357 
L 3322 902 
L 5229 902 
L 5229 1357 
z
" transform="scale(0.015625)"/>
       <path id="STHeitiTC-Medium-957f" d="M 5299 4749 
Q 5421 4704 5261 4621 
Q 5152 4563 5017 4457 
Q 4883 4352 4704 4154 
Q 4627 4064 4473 3917 
Q 4320 3770 4137 3603 
Q 3955 3437 3766 3270 
Q 3578 3104 3418 2982 
Q 3354 3053 3219 3155 
Q 3085 3258 2938 3328 
Q 3232 3501 3504 3725 
Q 3776 3949 4003 4189 
Q 4230 4429 4400 4662 
Q 4570 4896 4666 5094 
Q 4774 5011 4953 4915 
Q 5133 4819 5299 4749 
z
M 2246 224 
Q 2342 275 2470 364 
Q 2598 454 2732 553 
Q 2867 653 2988 749 
Q 3110 845 3187 915 
Q 3181 768 3225 637 
Q 3270 506 3354 416 
Q 3034 192 2790 22 
Q 2547 -147 2364 -281 
Q 2182 -416 2057 -521 
Q 1933 -627 1856 -717 
Q 1760 -550 1651 -412 
Q 1542 -275 1440 -166 
Q 1510 -96 1561 -6 
Q 1613 83 1641 208 
Q 1670 333 1683 505 
Q 1696 678 1696 915 
L 1696 2221 
Q 1414 2221 1206 2214 
Q 998 2208 838 2205 
Q 678 2202 563 2192 
Q 448 2182 358 2176 
L 358 2739 
Q 448 2726 563 2720 
Q 678 2714 838 2710 
Q 998 2707 1209 2700 
Q 1421 2694 1696 2694 
L 1696 3808 
Q 1696 4243 1689 4576 
Q 1683 4909 1670 5056 
Q 1747 5043 1843 5030 
Q 1939 5018 2032 5014 
Q 2125 5011 2195 5008 
Q 2266 5005 2298 5011 
Q 2374 5024 2403 4989 
Q 2432 4954 2381 4883 
Q 2246 4691 2246 4365 
L 2246 2694 
L 4173 2694 
Q 4557 2694 4848 2697 
Q 5139 2701 5353 2704 
Q 5568 2707 5718 2716 
Q 5869 2726 5984 2739 
L 5984 2176 
Q 5773 2202 5353 2211 
Q 4934 2221 4166 2221 
L 3667 2221 
Q 3802 1798 4064 1475 
Q 4326 1152 4656 918 
Q 4986 685 5347 544 
Q 5709 403 6035 358 
Q 5722 160 5594 -288 
Q 5139 -96 4761 134 
Q 4384 365 4086 662 
Q 3789 960 3565 1341 
Q 3341 1722 3187 2221 
L 2246 2221 
L 2246 224 
z
" transform="scale(0.015625)"/>
       <path id="STHeitiTC-Medium-7387" d="M 2138 3002 
Q 2221 3117 2297 3225 
Q 2374 3334 2451 3456 
Q 2528 3578 2611 3725 
Q 2694 3872 2790 4064 
Q 2918 3981 3030 3923 
Q 3142 3866 3226 3840 
Q 3341 3808 3331 3760 
Q 3322 3712 3194 3693 
Q 3130 3680 3046 3606 
Q 2963 3533 2886 3430 
Q 2810 3328 2717 3222 
Q 2624 3117 2534 3027 
L 3322 3078 
Q 3469 3245 3597 3411 
Q 3725 3578 3808 3706 
Q 3923 3584 4044 3501 
Q 4166 3418 4256 3379 
Q 4346 3341 4336 3289 
Q 4326 3238 4198 3226 
Q 4166 3226 4086 3178 
Q 4006 3130 3900 3056 
Q 3795 2982 3680 2883 
Q 3565 2784 3462 2682 
Q 3283 2496 3062 2297 
Q 2842 2099 2611 1914 
L 3757 1971 
Q 3686 2080 3622 2179 
Q 3558 2278 3501 2349 
L 3885 2586 
Q 4032 2342 4198 2076 
Q 4365 1811 4544 1536 
L 4090 1325 
Q 4058 1395 4022 1468 
Q 3987 1542 3949 1619 
L 3405 1587 
L 3405 954 
Q 4179 954 4848 966 
Q 5517 979 5939 1011 
L 5939 454 
Q 5728 467 5453 480 
Q 5178 493 4851 499 
Q 4525 506 4157 509 
Q 3789 512 3405 512 
Q 3405 378 3411 208 
Q 3418 38 3427 -134 
Q 3437 -307 3446 -470 
Q 3456 -634 3469 -755 
L 2835 -755 
Q 2848 -634 2857 -474 
Q 2867 -314 2876 -141 
Q 2886 32 2889 205 
Q 2893 378 2893 512 
Q 2150 512 1507 496 
Q 864 480 454 454 
L 454 1011 
Q 659 998 960 988 
Q 1261 979 1597 969 
Q 1933 960 2272 957 
Q 2611 954 2899 954 
L 2899 1549 
Q 2630 1530 2400 1498 
Q 2170 1466 2016 1427 
Q 1978 1664 1862 1875 
L 2138 1888 
Q 2285 2022 2486 2217 
Q 2688 2413 2995 2726 
Q 2739 2694 2579 2672 
Q 2419 2650 2320 2634 
Q 2221 2618 2163 2605 
Q 2106 2592 2054 2573 
Q 2042 2662 2010 2787 
Q 1978 2912 1939 2989 
L 2138 3002 
z
M 3014 4557 
Q 2970 4704 2922 4835 
Q 2874 4966 2816 5088 
L 3475 5190 
Q 3488 5030 3507 4873 
Q 3526 4717 3565 4557 
Q 4256 4557 4797 4573 
Q 5338 4589 5786 4621 
L 5786 4051 
Q 5536 4070 5273 4080 
Q 5011 4090 4707 4099 
Q 4403 4109 4035 4112 
Q 3667 4115 3206 4115 
Q 2746 4115 2384 4112 
Q 2022 4109 1718 4099 
Q 1414 4090 1152 4080 
Q 890 4070 627 4051 
L 627 4621 
Q 877 4602 1123 4592 
Q 1370 4582 1651 4572 
Q 1933 4563 2265 4560 
Q 2598 4557 3014 4557 
z
M 5658 3411 
Q 5715 3379 5696 3334 
Q 5677 3290 5574 3296 
Q 5517 3302 5443 3280 
Q 5370 3258 5270 3197 
Q 5171 3136 5033 3024 
Q 4896 2912 4704 2739 
Q 4544 2938 4333 3053 
Q 4582 3219 4822 3433 
Q 5062 3648 5197 3834 
Q 5299 3699 5417 3590 
Q 5536 3482 5658 3411 
z
M 1536 2784 
Q 1350 2995 1187 3145 
Q 1024 3296 826 3443 
L 1171 3795 
Q 1363 3603 1523 3468 
Q 1683 3334 1907 3174 
L 1536 2784 
z
M 5363 1421 
Q 5158 1651 4905 1859 
Q 4653 2067 4410 2227 
L 4774 2611 
Q 4986 2426 5248 2230 
Q 5510 2035 5760 1869 
L 5363 1421 
z
M 1952 2106 
Q 1901 2080 1827 2029 
Q 1754 1978 1642 1885 
Q 1530 1792 1366 1645 
Q 1203 1498 973 1286 
Q 838 1581 653 1824 
Q 800 1882 928 1952 
Q 1056 2022 1181 2112 
Q 1306 2202 1443 2320 
Q 1581 2438 1747 2598 
Q 1766 2464 1814 2349 
Q 1862 2234 1952 2106 
z
" transform="scale(0.015625)"/>
      </defs>
      <use xlink:href="#STHeitiTC-Medium-590d"/>
      <use xlink:href="#STHeitiTC-Medium-5408" x="99.999985"/>
      <use xlink:href="#STHeitiTC-Medium-589e" x="199.999969"/>
      <use xlink:href="#STHeitiTC-Medium-957f" x="299.999954"/>
      <use xlink:href="#STHeitiTC-Medium-7387" x="399.999939"/>
     </g>
    </g>
   </g>
  </g>
 </g>
 <defs>
  <clipPath id="pc3a0428fa4">
   <rect x="27.65" y="4.200969" width="558" height="443.52"/>
  </clipPath>
 </defs>
</svg>
