<?xml version="1.0" encoding="utf-8" standalone="no"?>
<!DOCTYPE svg PUBLIC "-//W3C//DTD SVG 1.1//EN"
  "http://www.w3.org/Graphics/SVG/1.1/DTD/svg11.dtd">
<svg xmlns:xlink="http://www.w3.org/1999/xlink" width="620.145625pt" height="468.487203pt" viewBox="0 0 620.145625 468.487203" xmlns="http://www.w3.org/2000/svg" version="1.1">
 <metadata>
  <rdf:RDF xmlns:dc="http://purl.org/dc/elements/1.1/" xmlns:cc="http://creativecommons.org/ns#" xmlns:rdf="http://www.w3.org/1999/02/22-rdf-syntax-ns#">
   <cc:Work>
    <dc:type rdf:resource="http://purl.org/dc/dcmitype/StillImage"/>
    <dc:date>2025-03-23T10:16:49.226051</dc:date>
    <dc:format>image/svg+xml</dc:format>
    <dc:creator>
     <cc:Agent>
      <dc:title>Matplotlib v3.9.4, https://matplotlib.org/</dc:title>
     </cc:Agent>
    </dc:creator>
   </cc:Work>
  </rdf:RDF>
 </metadata>
 <defs>
  <style type="text/css">*{stroke-linejoin: round; stroke-linecap: butt}</style>
 </defs>
 <g id="figure_1">
  <g id="patch_1">
   <path d="M 0 468.487203 
L 620.145625 468.487203 
L 620.145625 0 
L 0 0 
L 0 468.487203 
z
" style="fill: none"/>
  </g>
  <g id="axes_1">
   <g id="patch_2">
    <path d="M 27.65 447.720969 
L 585.65 447.720969 
L 585.65 4.200969 
L 27.65 4.200969 
L 27.65 447.720969 
z
" style="fill: none"/>
   </g>
   <g id="matplotlib.axis_1">
    <g id="xtick_1">
     <g id="line2d_1">
      <path d="M 89.247403 447.720969 
L 89.247403 4.200969 
" clip-path="url(#pa64ca06698)" style="fill: none; stroke-dasharray: 1,1.65; stroke-dashoffset: 0; stroke: #999999"/>
     </g>
     <g id="line2d_2">
      <defs>
       <path id="m92869907bc" d="M 0 0 
L 0 6 
" style="stroke: #262626; stroke-width: 1.25"/>
      </defs>
      <g>
       <use xlink:href="#m92869907bc" x="89.247403" y="447.720969" style="fill: #262626; stroke: #262626; stroke-width: 1.25"/>
      </g>
     </g>
     <g id="text_1">
      <!-- 民营 -->
      <g style="fill: #262626" transform="translate(77.147403 465.777937) scale(0.121 -0.121)">
       <defs>
        <path id="STHeitiTC-Medium-6c11" d="M 4595 3494 
L 4595 4294 
L 1421 4294 
L 1421 3494 
L 4595 3494 
z
M 3514 2221 
Q 3878 2221 4214 2224 
Q 4550 2227 4819 2233 
Q 5088 2240 5277 2246 
Q 5466 2253 5536 2266 
L 5536 1709 
Q 5466 1715 5270 1718 
Q 5075 1722 4806 1728 
Q 4538 1734 4227 1737 
Q 3917 1741 3622 1741 
Q 3680 1555 3763 1366 
Q 3846 1178 3945 1005 
Q 4045 832 4166 685 
Q 4288 538 4422 435 
Q 4704 218 4870 115 
Q 5037 13 5136 35 
Q 5235 58 5296 211 
Q 5357 365 5421 666 
Q 5536 538 5664 442 
Q 5792 346 5907 314 
Q 5786 -77 5690 -291 
Q 5594 -506 5466 -579 
Q 5338 -653 5152 -598 
Q 4966 -544 4666 -403 
Q 4326 -243 4051 38 
Q 3776 320 3514 730 
Q 3405 896 3299 1149 
Q 3194 1402 3104 1741 
L 1421 1741 
L 1421 192 
L 2547 717 
Q 2541 589 2576 461 
Q 2611 333 2682 218 
L 1549 -346 
Q 1472 -384 1379 -438 
Q 1286 -493 1190 -553 
Q 1094 -614 1008 -675 
Q 922 -736 858 -781 
Q 787 -621 681 -477 
Q 576 -333 486 -243 
L 890 -58 
L 890 4128 
Q 890 4326 880 4496 
Q 870 4666 845 4832 
Q 960 4819 1123 4806 
Q 1286 4794 1536 4787 
Q 1786 4781 2154 4777 
Q 2522 4774 3053 4774 
Q 3507 4774 3849 4777 
Q 4192 4781 4445 4790 
Q 4698 4800 4874 4809 
Q 5050 4819 5165 4832 
Q 5146 4672 5136 4470 
Q 5126 4269 5126 4109 
L 5126 3546 
Q 5126 3430 5136 3283 
Q 5146 3136 5171 2970 
Q 5062 2976 4934 2985 
Q 4806 2995 4608 2998 
Q 4410 3002 4122 3008 
Q 3834 3014 3418 3014 
Q 3430 2822 3456 2614 
Q 3482 2406 3514 2221 
z
M 3002 2221 
Q 2970 2406 2941 2611 
Q 2912 2816 2893 3014 
L 1421 3014 
L 1421 2221 
L 3002 2221 
z
" transform="scale(0.015625)"/>
        <path id="STHeitiTC-Medium-8425" d="M 4250 2400 
L 2099 2400 
L 2099 1907 
L 4250 1907 
L 4250 2400 
z
M 4774 1504 
Q 4486 1510 4099 1516 
Q 3712 1523 3155 1523 
Q 2598 1523 2220 1513 
Q 1843 1504 1568 1498 
Q 1587 1626 1593 1798 
Q 1600 1971 1600 2150 
Q 1600 2336 1590 2509 
Q 1581 2682 1568 2810 
Q 1862 2797 2236 2790 
Q 2611 2784 3174 2784 
Q 3450 2784 3680 2784 
Q 3910 2784 4102 2787 
Q 4294 2790 4460 2796 
Q 4627 2803 4774 2810 
Q 4762 2682 4758 2509 
Q 4755 2336 4755 2150 
Q 4755 1965 4758 1798 
Q 4762 1632 4774 1504 
z
M 4678 224 
L 4678 730 
L 1702 730 
L 1702 224 
L 4678 224 
z
M 1702 -173 
L 1702 -640 
L 1133 -640 
Q 1158 -506 1168 -390 
Q 1178 -275 1178 -128 
L 1178 826 
Q 1178 915 1165 995 
Q 1152 1075 1139 1133 
Q 1280 1126 1427 1123 
Q 1574 1120 1798 1120 
Q 2022 1120 2355 1120 
Q 2688 1120 3200 1120 
Q 3712 1120 4051 1120 
Q 4390 1120 4614 1120 
Q 4838 1120 4985 1123 
Q 5133 1126 5261 1133 
Q 5248 1082 5238 1008 
Q 5229 934 5229 826 
L 5229 -64 
Q 5229 -211 5238 -326 
Q 5248 -442 5274 -576 
L 4678 -576 
L 4678 -173 
L 1702 -173 
z
M 4262 3629 
Q 4563 3635 4800 3638 
Q 5037 3642 5225 3648 
Q 5414 3654 5561 3657 
Q 5709 3661 5837 3667 
L 5837 2598 
L 5325 2598 
L 5325 3213 
L 1062 3213 
L 1062 2560 
L 550 2560 
L 550 3667 
Q 672 3661 819 3654 
Q 966 3648 1148 3641 
Q 1331 3635 1561 3632 
Q 1792 3629 2086 3629 
L 2086 4154 
Q 1587 4147 1168 4134 
Q 749 4122 448 4096 
L 448 4602 
Q 755 4576 1171 4563 
Q 1587 4550 2086 4550 
Q 2080 4768 2070 4880 
Q 2061 4992 2035 5114 
Q 2176 5094 2339 5081 
Q 2502 5069 2630 5069 
Q 2701 5069 2713 5040 
Q 2726 5011 2662 4973 
Q 2611 4941 2598 4915 
Q 2586 4890 2586 4826 
L 2586 4550 
L 3763 4550 
Q 3757 4755 3747 4870 
Q 3738 4986 3718 5107 
Q 3859 5088 4016 5078 
Q 4173 5069 4307 5069 
Q 4378 5069 4390 5040 
Q 4403 5011 4339 4973 
Q 4288 4941 4275 4915 
Q 4262 4890 4262 4826 
L 4262 4550 
Q 4774 4550 5206 4563 
Q 5638 4576 5946 4602 
L 5946 4096 
Q 5638 4128 5206 4141 
Q 4774 4154 4262 4154 
L 4262 3629 
z
M 3763 3629 
L 3763 4154 
L 2586 4154 
L 2586 3629 
L 3763 3629 
z
" transform="scale(0.015625)"/>
       </defs>
       <use xlink:href="#STHeitiTC-Medium-6c11"/>
       <use xlink:href="#STHeitiTC-Medium-8425" x="99.999985"/>
      </g>
     </g>
    </g>
    <g id="xtick_2">
     <g id="line2d_3">
      <path d="M 234.182468 447.720969 
L 234.182468 4.200969 
" clip-path="url(#pa64ca06698)" style="fill: none; stroke-dasharray: 1,1.65; stroke-dashoffset: 0; stroke: #999999"/>
     </g>
     <g id="line2d_4">
      <g>
       <use xlink:href="#m92869907bc" x="234.182468" y="447.720969" style="fill: #262626; stroke: #262626; stroke-width: 1.25"/>
      </g>
     </g>
     <g id="text_2">
      <!-- 国企 -->
      <g style="fill: #262626" transform="translate(222.082468 465.898937) scale(0.121 -0.121)">
       <defs>
        <path id="STHeitiTC-Medium-56fd" d="M 4045 1235 
Q 3930 1510 3674 1779 
L 4090 2042 
Q 4192 1894 4291 1766 
Q 4390 1638 4499 1523 
L 4045 1235 
z
M 3347 1107 
Q 3846 1107 4211 1116 
Q 4576 1126 4851 1152 
L 4851 634 
Q 4563 666 4188 672 
Q 3814 678 3290 678 
Q 2918 678 2652 675 
Q 2387 672 2185 669 
Q 1984 666 1833 656 
Q 1683 646 1549 634 
L 1549 1152 
Q 1664 1139 1785 1129 
Q 1907 1120 2060 1117 
Q 2214 1114 2406 1110 
Q 2598 1107 2861 1107 
L 2861 2150 
Q 2515 2150 2268 2140 
Q 2022 2131 1818 2112 
L 1818 2605 
Q 2035 2586 2275 2576 
Q 2515 2566 2861 2560 
L 2861 3309 
Q 2406 3302 2128 3289 
Q 1850 3277 1702 3264 
L 1702 3795 
Q 1888 3776 2259 3763 
Q 2630 3750 3270 3750 
Q 3776 3750 4160 3760 
Q 4544 3770 4704 3795 
L 4704 3264 
Q 4550 3277 4182 3293 
Q 3814 3309 3347 3309 
L 3347 2560 
Q 3763 2560 4048 2569 
Q 4333 2579 4570 2605 
L 4570 2112 
Q 4333 2138 4048 2144 
Q 3763 2150 3347 2150 
L 3347 1107 
z
M 5184 4326 
L 1216 4326 
L 1216 122 
L 5184 122 
L 5184 4326 
z
M 1216 -730 
L 640 -730 
Q 672 -448 685 -208 
Q 698 32 698 320 
L 698 4109 
Q 698 4301 685 4477 
Q 672 4653 640 4838 
Q 736 4826 893 4813 
Q 1050 4800 1334 4790 
Q 1619 4781 2067 4777 
Q 2515 4774 3200 4774 
Q 3885 4774 4329 4777 
Q 4774 4781 5056 4790 
Q 5338 4800 5494 4813 
Q 5651 4826 5760 4838 
Q 5728 4685 5715 4489 
Q 5702 4294 5702 4109 
L 5702 333 
Q 5702 90 5715 -137 
Q 5728 -365 5760 -634 
L 5184 -634 
L 5184 -326 
L 1216 -326 
L 1216 -730 
z
" transform="scale(0.015625)"/>
        <path id="STHeitiTC-Medium-4f01" d="M 3648 2048 
Q 3994 2048 4259 2051 
Q 4525 2054 4729 2060 
Q 4934 2067 5081 2080 
Q 5229 2093 5338 2106 
L 5338 1530 
Q 5229 1542 5081 1552 
Q 4934 1562 4729 1568 
Q 4525 1574 4259 1577 
Q 3994 1581 3648 1581 
L 3648 192 
Q 4026 192 4333 195 
Q 4640 198 4909 208 
Q 5178 218 5421 234 
Q 5664 250 5914 269 
L 5914 -371 
Q 5677 -352 5430 -339 
Q 5184 -326 4877 -316 
Q 4570 -307 4176 -304 
Q 3782 -301 3251 -301 
Q 2688 -301 2269 -304 
Q 1850 -307 1523 -316 
Q 1197 -326 937 -339 
Q 678 -352 442 -371 
L 442 269 
Q 794 237 1066 221 
Q 1338 205 1562 198 
L 1562 1517 
Q 1562 1754 1558 1920 
Q 1555 2086 1552 2208 
Q 1549 2330 1539 2410 
Q 1530 2490 1517 2560 
Q 1664 2541 1840 2528 
Q 2016 2515 2144 2522 
Q 2221 2528 2230 2496 
Q 2240 2464 2170 2419 
Q 2125 2394 2105 2333 
Q 2086 2272 2086 2202 
L 2086 192 
L 3123 192 
L 3123 2285 
Q 3123 2490 3120 2643 
Q 3117 2797 3110 2918 
Q 3104 3040 3094 3139 
Q 3085 3238 3072 3328 
Q 3226 3302 3418 3289 
Q 3610 3277 3782 3290 
Q 3872 3296 3881 3261 
Q 3891 3226 3814 3187 
Q 3744 3149 3696 3043 
Q 3648 2938 3648 2835 
L 3648 2048 
z
M 3238 4640 
Q 2970 4250 2707 3939 
Q 2445 3629 2150 3363 
Q 1856 3098 1510 2861 
Q 1165 2624 742 2387 
Q 634 2534 525 2646 
Q 416 2758 256 2867 
Q 506 2931 774 3062 
Q 1043 3194 1299 3363 
Q 1555 3533 1785 3728 
Q 2016 3923 2195 4122 
Q 2362 4301 2483 4454 
Q 2605 4608 2685 4742 
Q 2765 4877 2819 4995 
Q 2874 5114 2906 5229 
Q 3098 5178 3283 5146 
Q 3469 5114 3597 5101 
Q 3686 5088 3680 5040 
Q 3674 4992 3533 4941 
Q 3731 4614 4006 4336 
Q 4282 4058 4614 3850 
Q 4947 3642 5334 3510 
Q 5722 3379 6144 3341 
Q 6016 3213 5904 3059 
Q 5792 2906 5702 2707 
Q 5229 2867 4864 3043 
Q 4499 3219 4208 3443 
Q 3917 3667 3683 3958 
Q 3450 4250 3238 4640 
z
" transform="scale(0.015625)"/>
       </defs>
       <use xlink:href="#STHeitiTC-Medium-56fd"/>
       <use xlink:href="#STHeitiTC-Medium-4f01" x="99.999985"/>
      </g>
     </g>
    </g>
    <g id="xtick_3">
     <g id="line2d_5">
      <path d="M 379.117532 447.720969 
L 379.117532 4.200969 
" clip-path="url(#pa64ca06698)" style="fill: none; stroke-dasharray: 1,1.65; stroke-dashoffset: 0; stroke: #999999"/>
     </g>
     <g id="line2d_6">
      <g>
       <use xlink:href="#m92869907bc" x="379.117532" y="447.720969" style="fill: #262626; stroke: #262626; stroke-width: 1.25"/>
      </g>
     </g>
     <g id="text_3">
      <!-- 其他 -->
      <g style="fill: #262626" transform="translate(367.017532 465.811969) scale(0.121 -0.121)">
       <defs>
        <path id="STHeitiTC-Medium-5176" d="M 2854 250 
Q 2906 211 2896 188 
Q 2886 166 2835 166 
Q 2758 166 2678 147 
Q 2598 128 2419 41 
Q 2240 -45 1917 -217 
Q 1594 -390 1043 -691 
Q 986 -563 890 -454 
Q 794 -346 659 -230 
Q 1056 -128 1475 83 
Q 1894 294 2355 691 
Q 2470 570 2598 461 
Q 2726 352 2854 250 
z
M 5312 -614 
Q 5158 -493 4969 -374 
Q 4781 -256 4576 -147 
Q 4371 -38 4150 58 
Q 3930 154 3718 230 
L 4038 653 
Q 4448 486 4873 288 
Q 5299 90 5690 -115 
L 5312 -614 
z
M 1779 4358 
Q 1779 4544 1760 4739 
Q 1741 4934 1709 5094 
Q 1856 5069 2022 5056 
Q 2189 5043 2323 5050 
Q 2394 5056 2410 5030 
Q 2426 5005 2374 4966 
Q 2323 4928 2310 4883 
Q 2298 4838 2298 4755 
L 2298 4358 
L 4122 4358 
Q 4122 4634 4109 4829 
Q 4096 5024 4064 5171 
Q 4237 5139 4384 5123 
Q 4531 5107 4659 5101 
Q 4768 5094 4781 5065 
Q 4794 5037 4742 5005 
Q 4672 4954 4649 4912 
Q 4627 4870 4627 4800 
L 4627 4358 
Q 4915 4365 5184 4374 
Q 5453 4384 5709 4410 
L 5709 3878 
Q 5453 3904 5184 3913 
Q 4915 3923 4627 3930 
L 4627 1312 
Q 5350 1312 5997 1370 
L 5997 806 
Q 5830 819 5632 832 
Q 5434 845 5120 854 
Q 4806 864 4348 867 
Q 3891 870 3206 870 
Q 2528 870 2067 867 
Q 1606 864 1292 854 
Q 979 845 774 832 
Q 570 819 403 806 
L 403 1370 
Q 1056 1312 1779 1312 
L 1779 3930 
Q 1472 3930 1184 3917 
Q 896 3904 627 3878 
L 627 4410 
Q 896 4384 1184 4371 
Q 1472 4358 1779 4358 
z
M 2298 1312 
L 4122 1312 
L 4122 1978 
L 2298 1978 
L 2298 1312 
z
M 4122 3366 
L 4122 3930 
L 2298 3930 
L 2298 3366 
L 4122 3366 
z
M 2298 2957 
L 2298 2387 
L 4122 2387 
L 4122 2957 
L 2298 2957 
z
" transform="scale(0.015625)"/>
        <path id="STHeitiTC-Medium-4ed6" d="M 1670 -640 
L 1107 -640 
Q 1120 -499 1133 -323 
Q 1146 -147 1155 41 
Q 1165 230 1171 425 
Q 1178 621 1178 800 
L 1178 2810 
Q 1069 2605 944 2403 
Q 819 2202 672 1971 
Q 563 2138 476 2243 
Q 390 2349 262 2438 
Q 378 2566 509 2748 
Q 640 2931 774 3142 
Q 909 3354 1030 3584 
Q 1152 3814 1242 4038 
Q 1370 4346 1469 4650 
Q 1568 4954 1606 5222 
Q 1946 5030 2278 4966 
Q 2387 4941 2384 4909 
Q 2381 4877 2272 4800 
Q 2234 4768 2128 4595 
Q 2022 4422 1824 4038 
Q 1786 3968 1747 3888 
Q 1709 3808 1670 3738 
L 1670 -640 
z
M 4333 3546 
Q 4915 3750 5260 3891 
Q 5606 4032 5728 4096 
L 5606 1894 
Q 5594 1690 5568 1568 
Q 5542 1446 5452 1369 
Q 5363 1293 5187 1238 
Q 5011 1184 4704 1126 
Q 4646 1434 4454 1760 
Q 4826 1690 4950 1722 
Q 5075 1754 5082 1882 
L 5165 3328 
L 4333 3053 
L 4333 1459 
Q 4333 1286 4342 1046 
Q 4352 806 4371 557 
L 3782 557 
Q 3808 813 3821 1046 
Q 3834 1280 3834 1459 
L 3834 2886 
L 3040 2618 
L 3040 544 
Q 3040 416 3059 336 
Q 3078 256 3139 211 
Q 3200 166 3315 144 
Q 3430 122 3616 102 
Q 3706 90 3856 83 
Q 4006 77 4179 77 
Q 4352 77 4531 83 
Q 4710 90 4858 102 
Q 5024 122 5142 157 
Q 5261 192 5344 281 
Q 5427 371 5478 534 
Q 5530 698 5568 966 
Q 5696 787 5830 707 
Q 5965 627 6138 576 
Q 6022 250 5932 64 
Q 5843 -122 5740 -218 
Q 5638 -314 5497 -342 
Q 5357 -371 5139 -378 
Q 4979 -384 4774 -390 
Q 4570 -397 4346 -397 
Q 4122 -397 3885 -393 
Q 3648 -390 3424 -384 
Q 3123 -378 2947 -339 
Q 2771 -301 2681 -224 
Q 2592 -147 2569 -19 
Q 2547 109 2547 294 
L 2547 2451 
Q 2298 2362 2134 2294 
Q 1971 2227 1920 2189 
L 1754 2733 
Q 1888 2765 2080 2813 
Q 2272 2861 2547 2950 
Q 2547 3520 2531 3897 
Q 2515 4275 2490 4410 
Q 2643 4397 2828 4387 
Q 3014 4378 3130 4384 
Q 3238 4390 3248 4336 
Q 3258 4282 3168 4250 
Q 3110 4224 3075 4147 
Q 3040 4070 3040 4013 
L 3040 3104 
Q 3213 3162 3411 3226 
Q 3610 3290 3834 3373 
L 3834 4410 
Q 3834 4678 3814 4880 
Q 3795 5082 3763 5165 
Q 3955 5139 4086 5129 
Q 4218 5120 4397 5120 
Q 4518 5120 4534 5094 
Q 4550 5069 4442 5024 
Q 4390 5005 4361 4921 
Q 4333 4838 4333 4653 
L 4333 3546 
z
" transform="scale(0.015625)"/>
       </defs>
       <use xlink:href="#STHeitiTC-Medium-5176"/>
       <use xlink:href="#STHeitiTC-Medium-4ed6" x="99.999985"/>
      </g>
     </g>
    </g>
    <g id="xtick_4">
     <g id="line2d_7">
      <path d="M 524.052597 447.720969 
L 524.052597 4.200969 
" clip-path="url(#pa64ca06698)" style="fill: none; stroke-dasharray: 1,1.65; stroke-dashoffset: 0; stroke: #999999"/>
     </g>
     <g id="line2d_8">
      <g>
       <use xlink:href="#m92869907bc" x="524.052597" y="447.720969" style="fill: #262626; stroke: #262626; stroke-width: 1.25"/>
      </g>
     </g>
     <g id="text_4">
      <!-- 外资 -->
      <g style="fill: #262626" transform="translate(511.952597 465.789281) scale(0.121 -0.121)">
       <defs>
        <path id="STHeitiTC-Medium-5916" d="M 4269 4301 
Q 4269 4602 4256 4816 
Q 4243 5030 4211 5203 
Q 4403 5165 4537 5152 
Q 4672 5139 4838 5139 
Q 5082 5139 4877 5011 
Q 4832 4979 4813 4931 
Q 4794 4883 4794 4774 
L 4794 1958 
Q 5331 1453 6163 1043 
Q 6029 922 5939 810 
Q 5850 698 5741 499 
Q 5466 704 5232 889 
Q 4998 1075 4794 1254 
L 4794 666 
Q 4794 448 4797 275 
Q 4800 102 4806 -45 
Q 4813 -192 4825 -317 
Q 4838 -442 4851 -563 
L 4211 -563 
Q 4224 -442 4237 -317 
Q 4250 -192 4256 -45 
Q 4262 102 4265 275 
Q 4269 448 4269 666 
L 4269 1760 
Q 3917 2138 3667 2550 
Q 3418 2963 3226 3520 
L 3654 3814 
Q 3763 3462 3913 3152 
Q 4064 2842 4269 2554 
L 4269 4301 
z
M 2323 1971 
Q 2432 2266 2509 2621 
Q 2586 2976 2624 3360 
L 1613 3360 
Q 1510 3085 1417 2864 
Q 1325 2643 1229 2448 
Q 1133 2253 1030 2073 
Q 928 1894 806 1702 
Q 672 1837 515 1917 
Q 358 1997 237 2010 
Q 378 2150 499 2313 
Q 621 2477 729 2675 
Q 838 2874 940 3114 
Q 1043 3354 1146 3648 
Q 1274 4006 1341 4358 
Q 1408 4710 1421 5043 
Q 1645 4979 1821 4944 
Q 1997 4909 2150 4896 
Q 2310 4877 2163 4755 
Q 2131 4730 2083 4643 
Q 2035 4557 1965 4352 
Q 1920 4224 1878 4102 
Q 1837 3981 1798 3872 
Q 2170 3872 2413 3875 
Q 2656 3878 2806 3881 
Q 2957 3885 3040 3891 
Q 3123 3898 3174 3910 
Q 3155 3546 3104 3155 
Q 3053 2765 2969 2397 
Q 2886 2029 2771 1712 
Q 2656 1395 2502 1184 
Q 2310 915 2134 704 
Q 1958 493 1776 310 
Q 1594 128 1386 -38 
Q 1178 -205 922 -384 
Q 710 -102 326 51 
Q 672 211 941 374 
Q 1210 538 1418 707 
Q 1626 877 1779 1059 
Q 1933 1242 2054 1434 
Q 1894 1702 1718 1900 
Q 1542 2099 1350 2246 
L 1760 2618 
Q 1939 2445 2073 2288 
Q 2208 2131 2323 1971 
z
" transform="scale(0.015625)"/>
        <path id="STHeitiTC-Medium-8d44" d="M 5248 -678 
Q 4826 -410 4333 -160 
Q 3840 90 3354 288 
L 3622 691 
Q 4147 474 4659 246 
Q 5171 19 5606 -192 
L 5248 -678 
z
M 3533 1434 
Q 3469 1382 3421 1296 
Q 3373 1210 3315 1005 
Q 3226 666 3069 390 
Q 2912 115 2643 -99 
Q 2374 -314 1974 -464 
Q 1574 -614 998 -698 
Q 947 -589 864 -477 
Q 781 -365 653 -262 
Q 1370 -198 1830 -19 
Q 2291 160 2477 371 
Q 2662 576 2745 877 
Q 2829 1178 2861 1619 
Q 2989 1587 3155 1558 
Q 3322 1530 3482 1517 
Q 3571 1517 3577 1497 
Q 3584 1478 3533 1434 
z
M 4531 480 
L 4531 1850 
L 1907 1850 
L 1907 442 
L 1357 442 
Q 1376 608 1382 739 
Q 1389 870 1389 1024 
L 1389 1754 
Q 1389 1978 1382 2112 
Q 1376 2246 1357 2317 
Q 1472 2304 1603 2297 
Q 1734 2291 1936 2288 
Q 2138 2285 2445 2285 
Q 2752 2285 3219 2285 
Q 3686 2285 3990 2285 
Q 4294 2285 4496 2291 
Q 4698 2298 4829 2301 
Q 4960 2304 5082 2317 
Q 5056 2189 5056 1754 
L 5056 1062 
Q 5056 909 5062 777 
Q 5069 646 5082 480 
L 4531 480 
z
M 2125 3091 
Q 1651 2810 1308 2598 
Q 966 2387 672 2202 
Q 602 2362 528 2486 
Q 454 2611 358 2739 
Q 742 2874 1164 3078 
Q 1587 3283 1990 3565 
Q 2016 3398 2045 3299 
Q 2074 3200 2125 3091 
z
M 1606 3776 
Q 1184 4128 659 4378 
L 973 4794 
Q 1248 4666 1504 4531 
Q 1760 4397 1971 4262 
L 1606 3776 
z
M 3085 4077 
Q 2970 3930 2845 3792 
Q 2720 3654 2573 3507 
Q 2387 3693 2099 3750 
Q 2522 4115 2768 4457 
Q 3014 4800 3142 5190 
Q 3264 5133 3414 5088 
Q 3565 5043 3686 5030 
Q 3898 5011 3718 4883 
Q 3648 4832 3571 4752 
Q 3494 4672 3386 4506 
L 4646 4506 
Q 4768 4506 4950 4512 
Q 5133 4518 5312 4524 
Q 5491 4531 5641 4540 
Q 5792 4550 5862 4557 
L 5510 3565 
L 4928 3642 
L 5126 4077 
L 4115 4077 
Q 4243 3738 4428 3507 
Q 4614 3277 4854 3126 
Q 5094 2976 5392 2896 
Q 5690 2816 6042 2784 
Q 5914 2643 5837 2502 
Q 5760 2362 5709 2214 
Q 5082 2374 4618 2713 
Q 4154 3053 3949 3603 
Q 3763 3162 3382 2822 
Q 3002 2483 2496 2317 
Q 2432 2394 2339 2474 
Q 2246 2554 2125 2618 
Q 2784 2874 3161 3232 
Q 3539 3590 3686 4077 
L 3085 4077 
z
" transform="scale(0.015625)"/>
       </defs>
       <use xlink:href="#STHeitiTC-Medium-5916"/>
       <use xlink:href="#STHeitiTC-Medium-8d44" x="99.999985"/>
      </g>
     </g>
    </g>
   </g>
   <g id="matplotlib.axis_2">
    <g id="ytick_1">
     <g id="line2d_9">
      <path d="M 27.65 447.720969 
L 585.65 447.720969 
" clip-path="url(#pa64ca06698)" style="fill: none; stroke-dasharray: 1,1.65; stroke-dashoffset: 0; stroke: #999999"/>
     </g>
     <g id="line2d_10">
      <defs>
       <path id="mb71ecfc5a6" d="M 0 0 
L -6 0 
" style="stroke: #262626; stroke-width: 1.25"/>
      </defs>
      <g>
       <use xlink:href="#mb71ecfc5a6" x="27.65" y="447.720969" style="fill: #262626; stroke: #262626; stroke-width: 1.25"/>
      </g>
     </g>
     <g id="text_5">
      <!-- 0 -->
      <g style="fill: #262626" transform="translate(12.1 451.921937) scale(0.121 -0.121)">
       <defs>
        <path id="TimesNewRomanPSMT-30" d="M 231 2094 
Q 231 2819 450 3342 
Q 669 3866 1031 4122 
Q 1313 4325 1613 4325 
Q 2100 4325 2488 3828 
Q 2972 3213 2972 2159 
Q 2972 1422 2759 906 
Q 2547 391 2217 158 
Q 1888 -75 1581 -75 
Q 975 -75 572 641 
Q 231 1244 231 2094 
z
M 844 2016 
Q 844 1141 1059 588 
Q 1238 122 1591 122 
Q 1759 122 1940 273 
Q 2122 425 2216 781 
Q 2359 1319 2359 2297 
Q 2359 3022 2209 3506 
Q 2097 3866 1919 4016 
Q 1791 4119 1609 4119 
Q 1397 4119 1231 3928 
Q 1006 3669 925 3112 
Q 844 2556 844 2016 
z
" transform="scale(0.015625)"/>
       </defs>
       <use xlink:href="#TimesNewRomanPSMT-30"/>
      </g>
     </g>
    </g>
    <g id="ytick_2">
     <g id="line2d_11">
      <path d="M 27.65 373.800969 
L 585.65 373.800969 
" clip-path="url(#pa64ca06698)" style="fill: none; stroke-dasharray: 1,1.65; stroke-dashoffset: 0; stroke: #999999"/>
     </g>
     <g id="line2d_12">
      <g>
       <use xlink:href="#mb71ecfc5a6" x="27.65" y="373.800969" style="fill: #262626; stroke: #262626; stroke-width: 1.25"/>
      </g>
     </g>
     <g id="text_6">
      <!-- 50 -->
      <g style="fill: #262626" transform="translate(6.05 378.001937) scale(0.121 -0.121)">
       <defs>
        <path id="TimesNewRomanPSMT-35" d="M 2778 4238 
L 2534 3706 
L 1259 3706 
L 981 3138 
Q 1809 3016 2294 2522 
Q 2709 2097 2709 1522 
Q 2709 1188 2573 903 
Q 2438 619 2231 419 
Q 2025 219 1772 97 
Q 1413 -75 1034 -75 
Q 653 -75 479 54 
Q 306 184 306 341 
Q 306 428 378 495 
Q 450 563 559 563 
Q 641 563 702 538 
Q 763 513 909 409 
Q 1144 247 1384 247 
Q 1750 247 2026 523 
Q 2303 800 2303 1197 
Q 2303 1581 2056 1914 
Q 1809 2247 1375 2428 
Q 1034 2569 447 2591 
L 1259 4238 
L 2778 4238 
z
" transform="scale(0.015625)"/>
       </defs>
       <use xlink:href="#TimesNewRomanPSMT-35"/>
       <use xlink:href="#TimesNewRomanPSMT-30" x="50"/>
      </g>
     </g>
    </g>
    <g id="ytick_3">
     <g id="line2d_13">
      <path d="M 27.65 299.880969 
L 585.65 299.880969 
" clip-path="url(#pa64ca06698)" style="fill: none; stroke-dasharray: 1,1.65; stroke-dashoffset: 0; stroke: #999999"/>
     </g>
     <g id="line2d_14">
      <g>
       <use xlink:href="#mb71ecfc5a6" x="27.65" y="299.880969" style="fill: #262626; stroke: #262626; stroke-width: 1.25"/>
      </g>
     </g>
     <g id="text_7">
      <!-- 100 -->
      <g style="fill: #262626" transform="translate(0 304.081937) scale(0.121 -0.121)">
       <defs>
        <path id="TimesNewRomanPSMT-31" d="M 750 3822 
L 1781 4325 
L 1884 4325 
L 1884 747 
Q 1884 391 1914 303 
Q 1944 216 2037 169 
Q 2131 122 2419 116 
L 2419 0 
L 825 0 
L 825 116 
Q 1125 122 1212 167 
Q 1300 213 1334 289 
Q 1369 366 1369 747 
L 1369 3034 
Q 1369 3497 1338 3628 
Q 1316 3728 1258 3775 
Q 1200 3822 1119 3822 
Q 1003 3822 797 3725 
L 750 3822 
z
" transform="scale(0.015625)"/>
       </defs>
       <use xlink:href="#TimesNewRomanPSMT-31"/>
       <use xlink:href="#TimesNewRomanPSMT-30" x="50"/>
       <use xlink:href="#TimesNewRomanPSMT-30" x="100"/>
      </g>
     </g>
    </g>
    <g id="ytick_4">
     <g id="line2d_15">
      <path d="M 27.65 225.960969 
L 585.65 225.960969 
" clip-path="url(#pa64ca06698)" style="fill: none; stroke-dasharray: 1,1.65; stroke-dashoffset: 0; stroke: #999999"/>
     </g>
     <g id="line2d_16">
      <g>
       <use xlink:href="#mb71ecfc5a6" x="27.65" y="225.960969" style="fill: #262626; stroke: #262626; stroke-width: 1.25"/>
      </g>
     </g>
     <g id="text_8">
      <!-- 150 -->
      <g style="fill: #262626" transform="translate(0 230.161937) scale(0.121 -0.121)">
       <use xlink:href="#TimesNewRomanPSMT-31"/>
       <use xlink:href="#TimesNewRomanPSMT-35" x="50"/>
       <use xlink:href="#TimesNewRomanPSMT-30" x="100"/>
      </g>
     </g>
    </g>
    <g id="ytick_5">
     <g id="line2d_17">
      <path d="M 27.65 152.040969 
L 585.65 152.040969 
" clip-path="url(#pa64ca06698)" style="fill: none; stroke-dasharray: 1,1.65; stroke-dashoffset: 0; stroke: #999999"/>
     </g>
     <g id="line2d_18">
      <g>
       <use xlink:href="#mb71ecfc5a6" x="27.65" y="152.040969" style="fill: #262626; stroke: #262626; stroke-width: 1.25"/>
      </g>
     </g>
     <g id="text_9">
      <!-- 200 -->
      <g style="fill: #262626" transform="translate(0 156.241937) scale(0.121 -0.121)">
       <defs>
        <path id="TimesNewRomanPSMT-32" d="M 2934 816 
L 2638 0 
L 138 0 
L 138 116 
Q 1241 1122 1691 1759 
Q 2141 2397 2141 2925 
Q 2141 3328 1894 3587 
Q 1647 3847 1303 3847 
Q 991 3847 742 3664 
Q 494 3481 375 3128 
L 259 3128 
Q 338 3706 661 4015 
Q 984 4325 1469 4325 
Q 1984 4325 2329 3994 
Q 2675 3663 2675 3213 
Q 2675 2891 2525 2569 
Q 2294 2063 1775 1497 
Q 997 647 803 472 
L 1909 472 
Q 2247 472 2383 497 
Q 2519 522 2628 598 
Q 2738 675 2819 816 
L 2934 816 
z
" transform="scale(0.015625)"/>
       </defs>
       <use xlink:href="#TimesNewRomanPSMT-32"/>
       <use xlink:href="#TimesNewRomanPSMT-30" x="50"/>
       <use xlink:href="#TimesNewRomanPSMT-30" x="100"/>
      </g>
     </g>
    </g>
    <g id="ytick_6">
     <g id="line2d_19">
      <path d="M 27.65 78.120969 
L 585.65 78.120969 
" clip-path="url(#pa64ca06698)" style="fill: none; stroke-dasharray: 1,1.65; stroke-dashoffset: 0; stroke: #999999"/>
     </g>
     <g id="line2d_20">
      <g>
       <use xlink:href="#mb71ecfc5a6" x="27.65" y="78.120969" style="fill: #262626; stroke: #262626; stroke-width: 1.25"/>
      </g>
     </g>
     <g id="text_10">
      <!-- 250 -->
      <g style="fill: #262626" transform="translate(0 82.321937) scale(0.121 -0.121)">
       <use xlink:href="#TimesNewRomanPSMT-32"/>
       <use xlink:href="#TimesNewRomanPSMT-35" x="50"/>
       <use xlink:href="#TimesNewRomanPSMT-30" x="100"/>
      </g>
     </g>
    </g>
    <g id="ytick_7">
     <g id="line2d_21">
      <path d="M 27.65 4.200969 
L 585.65 4.200969 
" clip-path="url(#pa64ca06698)" style="fill: none; stroke-dasharray: 1,1.65; stroke-dashoffset: 0; stroke: #999999"/>
     </g>
     <g id="line2d_22">
      <g>
       <use xlink:href="#mb71ecfc5a6" x="27.65" y="4.200969" style="fill: #262626; stroke: #262626; stroke-width: 1.25"/>
      </g>
     </g>
     <g id="text_11">
      <!-- 300 -->
      <g style="fill: #262626" transform="translate(0 8.401937) scale(0.121 -0.121)">
       <defs>
        <path id="TimesNewRomanPSMT-33" d="M 325 3431 
Q 506 3859 782 4092 
Q 1059 4325 1472 4325 
Q 1981 4325 2253 3994 
Q 2459 3747 2459 3466 
Q 2459 3003 1878 2509 
Q 2269 2356 2469 2072 
Q 2669 1788 2669 1403 
Q 2669 853 2319 450 
Q 1863 -75 997 -75 
Q 569 -75 414 31 
Q 259 138 259 259 
Q 259 350 332 419 
Q 406 488 509 488 
Q 588 488 669 463 
Q 722 447 909 348 
Q 1097 250 1169 231 
Q 1284 197 1416 197 
Q 1734 197 1970 444 
Q 2206 691 2206 1028 
Q 2206 1275 2097 1509 
Q 2016 1684 1919 1775 
Q 1784 1900 1550 2001 
Q 1316 2103 1072 2103 
L 972 2103 
L 972 2197 
Q 1219 2228 1467 2375 
Q 1716 2522 1828 2728 
Q 1941 2934 1941 3181 
Q 1941 3503 1739 3701 
Q 1538 3900 1238 3900 
Q 753 3900 428 3381 
L 325 3431 
z
" transform="scale(0.015625)"/>
       </defs>
       <use xlink:href="#TimesNewRomanPSMT-33"/>
       <use xlink:href="#TimesNewRomanPSMT-30" x="50"/>
       <use xlink:href="#TimesNewRomanPSMT-30" x="100"/>
      </g>
     </g>
    </g>
   </g>
   <g id="patch_3">
    <path d="M 53.013636 447.720969 
L 125.481169 447.720969 
L 125.481169 36.637435 
L 53.013636 36.637435 
z
" clip-path="url(#pa64ca06698)" style="fill: #4c72b0; stroke: #ffffff; stroke-linejoin: miter"/>
   </g>
   <g id="patch_4">
    <path d="M 197.948701 447.720969 
L 270.416234 447.720969 
L 270.416234 245.094973 
L 197.948701 245.094973 
z
" clip-path="url(#pa64ca06698)" style="fill: #4c72b0; stroke: #ffffff; stroke-linejoin: miter"/>
   </g>
   <g id="patch_5">
    <path d="M 342.883766 447.720969 
L 415.351299 447.720969 
L 415.351299 423.548935 
L 342.883766 423.548935 
z
" clip-path="url(#pa64ca06698)" style="fill: #4c72b0; stroke: #ffffff; stroke-linejoin: miter"/>
   </g>
   <g id="patch_6">
    <path d="M 487.818831 447.720969 
L 560.286364 447.720969 
L 560.286364 425.084062 
L 487.818831 425.084062 
z
" clip-path="url(#pa64ca06698)" style="fill: #4c72b0; stroke: #ffffff; stroke-linejoin: miter"/>
   </g>
   <g id="patch_7">
    <path d="M 27.65 447.720969 
L 27.65 4.200969 
" style="fill: none; stroke: #262626; stroke-width: 1.25; stroke-linejoin: miter; stroke-linecap: square"/>
   </g>
   <g id="patch_8">
    <path d="M 585.65 447.720969 
L 585.65 4.200969 
" style="fill: none; stroke: #262626; stroke-width: 1.25; stroke-linejoin: miter; stroke-linecap: square"/>
   </g>
   <g id="patch_9">
    <path d="M 27.65 447.720969 
L 585.65 447.720969 
" style="fill: none; stroke: #262626; stroke-width: 1.25; stroke-linejoin: miter; stroke-linecap: square"/>
   </g>
   <g id="patch_10">
    <path d="M 27.65 4.200969 
L 585.65 4.200969 
" style="fill: none; stroke: #262626; stroke-width: 1.25; stroke-linejoin: miter; stroke-linecap: square"/>
   </g>
   <g id="text_12">
    <!-- 278.060 -->
    <g style="fill: #262626" transform="translate(67.797403 30.813872) scale(0.132 -0.132)">
     <defs>
      <path id="TimesNewRomanPSMT-37" d="M 644 4238 
L 2916 4238 
L 2916 4119 
L 1503 -88 
L 1153 -88 
L 2419 3728 
L 1253 3728 
Q 900 3728 750 3644 
Q 488 3500 328 3200 
L 238 3234 
L 644 4238 
z
" transform="scale(0.015625)"/>
      <path id="TimesNewRomanPSMT-38" d="M 1228 2134 
Q 725 2547 579 2797 
Q 434 3047 434 3316 
Q 434 3728 753 4026 
Q 1072 4325 1600 4325 
Q 2113 4325 2425 4047 
Q 2738 3769 2738 3413 
Q 2738 3175 2569 2928 
Q 2400 2681 1866 2347 
Q 2416 1922 2594 1678 
Q 2831 1359 2831 1006 
Q 2831 559 2490 242 
Q 2150 -75 1597 -75 
Q 994 -75 656 303 
Q 388 606 388 966 
Q 388 1247 577 1523 
Q 766 1800 1228 2134 
z
M 1719 2469 
Q 2094 2806 2194 3001 
Q 2294 3197 2294 3444 
Q 2294 3772 2109 3958 
Q 1925 4144 1606 4144 
Q 1288 4144 1088 3959 
Q 888 3775 888 3528 
Q 888 3366 970 3203 
Q 1053 3041 1206 2894 
L 1719 2469 
z
M 1375 2016 
Q 1116 1797 991 1539 
Q 866 1281 866 981 
Q 866 578 1086 336 
Q 1306 94 1647 94 
Q 1984 94 2187 284 
Q 2391 475 2391 747 
Q 2391 972 2272 1150 
Q 2050 1481 1375 2016 
z
" transform="scale(0.015625)"/>
      <path id="TimesNewRomanPSMT-2e" d="M 800 606 
Q 947 606 1047 504 
Q 1147 403 1147 259 
Q 1147 116 1045 14 
Q 944 -88 800 -88 
Q 656 -88 554 14 
Q 453 116 453 259 
Q 453 406 554 506 
Q 656 606 800 606 
z
" transform="scale(0.015625)"/>
      <path id="TimesNewRomanPSMT-36" d="M 2869 4325 
L 2869 4209 
Q 2456 4169 2195 4045 
Q 1934 3922 1679 3669 
Q 1425 3416 1258 3105 
Q 1091 2794 978 2366 
Q 1428 2675 1881 2675 
Q 2316 2675 2634 2325 
Q 2953 1975 2953 1425 
Q 2953 894 2631 456 
Q 2244 -75 1606 -75 
Q 1172 -75 869 213 
Q 275 772 275 1663 
Q 275 2231 503 2743 
Q 731 3256 1154 3653 
Q 1578 4050 1965 4187 
Q 2353 4325 2688 4325 
L 2869 4325 
z
M 925 2138 
Q 869 1716 869 1456 
Q 869 1156 980 804 
Q 1091 453 1309 247 
Q 1469 100 1697 100 
Q 1969 100 2183 356 
Q 2397 613 2397 1088 
Q 2397 1622 2184 2012 
Q 1972 2403 1581 2403 
Q 1463 2403 1327 2353 
Q 1191 2303 925 2138 
z
" transform="scale(0.015625)"/>
     </defs>
     <use xlink:href="#TimesNewRomanPSMT-32"/>
     <use xlink:href="#TimesNewRomanPSMT-37" x="50"/>
     <use xlink:href="#TimesNewRomanPSMT-38" x="100"/>
     <use xlink:href="#TimesNewRomanPSMT-2e" x="150"/>
     <use xlink:href="#TimesNewRomanPSMT-30" x="175"/>
     <use xlink:href="#TimesNewRomanPSMT-36" x="225"/>
     <use xlink:href="#TimesNewRomanPSMT-30" x="275"/>
    </g>
   </g>
   <g id="text_13">
    <!-- 137.058 -->
    <g style="fill: #262626" transform="translate(212.732468 239.27141) scale(0.132 -0.132)">
     <use xlink:href="#TimesNewRomanPSMT-31"/>
     <use xlink:href="#TimesNewRomanPSMT-33" x="50"/>
     <use xlink:href="#TimesNewRomanPSMT-37" x="100"/>
     <use xlink:href="#TimesNewRomanPSMT-2e" x="150"/>
     <use xlink:href="#TimesNewRomanPSMT-30" x="175"/>
     <use xlink:href="#TimesNewRomanPSMT-35" x="225"/>
     <use xlink:href="#TimesNewRomanPSMT-38" x="275"/>
    </g>
   </g>
   <g id="text_14">
    <!-- 16.350 -->
    <g style="fill: #262626" transform="translate(360.967532 417.725373) scale(0.132 -0.132)">
     <use xlink:href="#TimesNewRomanPSMT-31"/>
     <use xlink:href="#TimesNewRomanPSMT-36" x="50"/>
     <use xlink:href="#TimesNewRomanPSMT-2e" x="100"/>
     <use xlink:href="#TimesNewRomanPSMT-33" x="125"/>
     <use xlink:href="#TimesNewRomanPSMT-35" x="175"/>
     <use xlink:href="#TimesNewRomanPSMT-30" x="225"/>
    </g>
   </g>
   <g id="text_15">
    <!-- 15.312 -->
    <g style="fill: #262626" transform="translate(505.902597 419.260499) scale(0.132 -0.132)">
     <use xlink:href="#TimesNewRomanPSMT-31"/>
     <use xlink:href="#TimesNewRomanPSMT-35" x="50"/>
     <use xlink:href="#TimesNewRomanPSMT-2e" x="100"/>
     <use xlink:href="#TimesNewRomanPSMT-33" x="125"/>
     <use xlink:href="#TimesNewRomanPSMT-31" x="175"/>
     <use xlink:href="#TimesNewRomanPSMT-32" x="225"/>
    </g>
   </g>
   <g id="legend_1">
    <g id="patch_11">
     <path d="M 311.49 32.254303 
L 335.69 32.254303 
L 335.69 23.784303 
L 311.49 23.784303 
z
" style="fill: #4c72b0; stroke: #ffffff; stroke-linejoin: miter"/>
    </g>
    <g id="text_16">
     <!-- 数字化转型绩效 -->
     <g style="fill: #262626" transform="translate(345.37 32.254303) scale(0.121 -0.121)">
      <defs>
       <path id="STHeitiTC-Medium-6570" d="M 3200 1472 
Q 3117 1190 3049 1014 
Q 2982 838 2899 691 
Q 3046 640 3180 585 
Q 3315 531 3450 461 
Q 3347 352 3286 269 
Q 3226 186 3168 64 
Q 3040 134 2912 201 
Q 2784 269 2637 326 
Q 2496 179 2323 67 
Q 2150 -45 1926 -137 
Q 1702 -230 1417 -310 
Q 1133 -390 781 -474 
Q 717 -346 595 -198 
Q 474 -51 346 45 
Q 934 58 1392 157 
Q 1850 256 2157 493 
Q 1914 563 1635 617 
Q 1357 672 1030 717 
Q 1126 883 1216 1072 
Q 1306 1261 1395 1485 
Q 877 1485 563 1446 
L 563 1901 
Q 742 1882 982 1872 
Q 1222 1862 1530 1856 
Q 1574 1984 1616 2115 
Q 1658 2246 1696 2394 
Q 1843 2336 1955 2310 
Q 2067 2285 2214 2272 
Q 2342 2259 2345 2233 
Q 2349 2208 2253 2144 
Q 2221 2118 2173 2060 
Q 2125 2003 2048 1856 
Q 2368 1856 2598 1859 
Q 2829 1862 3001 1865 
Q 3174 1869 3302 1878 
Q 3430 1888 3552 1901 
L 3552 1446 
Q 3482 1459 3376 1465 
Q 3270 1472 3200 1472 
z
M 1862 1491 
Q 1811 1389 1753 1261 
Q 1696 1133 1626 979 
Q 1869 941 2077 902 
Q 2285 864 2470 819 
Q 2541 928 2614 1107 
Q 2688 1286 2739 1485 
Q 2515 1491 2291 1491 
Q 2067 1491 1862 1491 
z
M 4378 2739 
Q 4384 2291 4441 1936 
Q 4499 1581 4627 1299 
Q 4813 1722 4931 2288 
Q 5050 2854 5088 3642 
L 4352 3642 
Q 4294 3450 4201 3245 
Q 4109 3040 3997 2838 
Q 3885 2637 3760 2448 
Q 3635 2259 3520 2112 
Q 3366 2355 3206 2458 
Q 3398 2720 3561 3037 
Q 3725 3354 3846 3699 
Q 3968 4045 4045 4403 
Q 4122 4762 4147 5107 
Q 4294 5056 4486 5021 
Q 4678 4986 4800 4973 
Q 4870 4966 4880 4924 
Q 4890 4883 4781 4832 
Q 4768 4826 4745 4797 
Q 4723 4768 4691 4688 
Q 4659 4608 4608 4461 
Q 4557 4314 4480 4064 
L 5216 4064 
Q 5498 4064 5690 4077 
Q 5882 4090 6003 4115 
L 6003 3597 
Q 5926 3610 5808 3622 
Q 5690 3635 5562 3635 
Q 5530 3110 5472 2688 
Q 5414 2266 5337 1923 
Q 5261 1581 5158 1315 
Q 5056 1050 4934 832 
Q 5114 627 5386 476 
Q 5658 326 6112 186 
Q 5978 58 5898 -80 
Q 5818 -218 5754 -429 
Q 5523 -288 5350 -176 
Q 5178 -64 5046 35 
Q 4915 134 4819 227 
Q 4723 320 4640 416 
Q 4416 166 4064 -70 
Q 3712 -307 3194 -531 
Q 3136 -429 3037 -313 
Q 2938 -198 2803 -90 
Q 3008 -45 3229 41 
Q 3450 128 3658 246 
Q 3866 365 4048 512 
Q 4230 659 4365 826 
Q 4269 998 4195 1216 
Q 4122 1434 4067 1677 
Q 4013 1920 3984 2173 
Q 3955 2426 3955 2675 
L 4378 2739 
z
M 1549 3462 
Q 1331 3462 1059 3452 
Q 787 3443 589 3424 
L 589 3878 
Q 832 3853 1139 3843 
Q 1446 3834 1850 3834 
L 1850 4435 
Q 1850 4614 1834 4774 
Q 1818 4934 1786 5101 
Q 1933 5088 2073 5081 
Q 2214 5075 2362 5075 
Q 2451 5075 2464 5036 
Q 2477 4998 2406 4966 
Q 2349 4934 2333 4902 
Q 2317 4870 2317 4781 
L 2317 3834 
Q 2675 3834 2995 3846 
Q 3315 3859 3507 3878 
L 3507 3424 
Q 3328 3443 3005 3456 
Q 2682 3469 2317 3469 
Q 2317 3174 2326 2937 
Q 2336 2701 2362 2451 
L 1805 2451 
Q 1830 2682 1840 2899 
Q 1850 3117 1850 3392 
Q 1734 3162 1625 2992 
Q 1517 2822 1392 2678 
Q 1267 2534 1113 2403 
Q 960 2272 755 2125 
Q 685 2234 573 2326 
Q 461 2419 282 2509 
Q 666 2630 1002 2896 
Q 1338 3162 1549 3462 
z
M 3386 4634 
Q 3360 4621 3331 4592 
Q 3302 4563 3260 4499 
Q 3219 4435 3158 4329 
Q 3098 4224 3014 4058 
Q 2944 4077 2832 4093 
Q 2720 4109 2560 4122 
Q 2669 4288 2733 4451 
Q 2797 4614 2861 4858 
Q 2995 4813 3142 4777 
Q 3290 4742 3386 4730 
Q 3456 4717 3459 4691 
Q 3462 4666 3386 4634 
z
M 973 4090 
Q 966 4237 947 4397 
Q 928 4557 883 4742 
L 1389 4806 
Q 1434 4640 1462 4477 
Q 1491 4314 1510 4166 
L 973 4090 
z
M 3046 2451 
Q 2918 2598 2774 2752 
Q 2630 2906 2464 3053 
L 2790 3302 
Q 2970 3149 3104 3017 
Q 3238 2886 3360 2765 
L 3046 2451 
z
" transform="scale(0.015625)"/>
       <path id="STHeitiTC-Medium-5b57" d="M 3002 4371 
Q 2950 4544 2886 4729 
Q 2822 4915 2765 5037 
L 3405 5197 
Q 3456 5011 3526 4787 
Q 3597 4563 3667 4371 
Q 4109 4371 4425 4374 
Q 4742 4378 4979 4381 
Q 5216 4384 5385 4393 
Q 5555 4403 5709 4416 
L 5709 3110 
L 5133 3110 
L 5133 3917 
L 1203 3917 
L 1203 3008 
L 653 3008 
L 653 4416 
Q 819 4403 1008 4393 
Q 1197 4384 1465 4381 
Q 1734 4378 2102 4374 
Q 2470 4371 3002 4371 
z
M 3622 1754 
Q 4403 1760 4963 1773 
Q 5523 1786 5978 1818 
L 5978 1235 
Q 5523 1267 4963 1280 
Q 4403 1293 3622 1299 
L 3622 -26 
Q 3622 -160 3580 -262 
Q 3539 -365 3414 -441 
Q 3290 -518 3066 -576 
Q 2842 -634 2477 -672 
Q 2458 -506 2406 -365 
Q 2355 -224 2240 -32 
Q 2509 -45 2665 -41 
Q 2822 -38 2905 -6 
Q 2989 26 3014 86 
Q 3040 147 3040 250 
L 3040 1299 
Q 2150 1299 1529 1283 
Q 909 1267 422 1235 
L 422 1818 
Q 666 1798 941 1788 
Q 1216 1779 1533 1769 
Q 1850 1760 2224 1757 
Q 2598 1754 3040 1754 
L 3040 2221 
Q 3341 2362 3545 2493 
Q 3750 2624 3898 2758 
L 2163 2758 
Q 1958 2758 1801 2755 
Q 1645 2752 1478 2739 
L 1478 3264 
Q 1664 3251 1827 3244 
Q 1990 3238 2176 3232 
Q 2362 3226 2595 3226 
Q 2829 3226 3155 3226 
Q 3552 3226 3833 3229 
Q 4115 3232 4307 3235 
Q 4499 3238 4624 3244 
Q 4749 3251 4838 3264 
L 4838 2784 
Q 4710 2746 4416 2557 
Q 4122 2368 3622 1984 
L 3622 1754 
z
" transform="scale(0.015625)"/>
       <path id="STHeitiTC-Medium-5316" d="M 1325 2899 
Q 1178 2656 1021 2432 
Q 864 2208 730 2022 
Q 666 2138 557 2256 
Q 448 2374 314 2464 
Q 442 2566 570 2713 
Q 698 2861 819 3027 
Q 941 3194 1043 3376 
Q 1146 3558 1229 3725 
Q 1427 4141 1539 4541 
Q 1651 4941 1683 5210 
Q 1843 5139 2003 5078 
Q 2163 5018 2317 4986 
Q 2445 4960 2461 4915 
Q 2477 4870 2362 4781 
Q 2342 4768 2316 4729 
Q 2291 4691 2233 4595 
Q 2176 4499 2086 4323 
Q 1997 4147 1856 3859 
L 1856 -595 
L 1254 -595 
Q 1286 -390 1305 -108 
Q 1325 173 1325 435 
L 1325 2899 
z
M 3750 2445 
Q 4122 2797 4464 3225 
Q 4806 3654 5158 4243 
Q 5286 4134 5452 4019 
Q 5619 3904 5766 3827 
Q 5837 3789 5837 3753 
Q 5837 3718 5754 3706 
Q 5722 3699 5664 3657 
Q 5606 3616 5539 3555 
Q 5472 3494 5401 3427 
Q 5331 3360 5280 3302 
Q 5082 3078 4915 2899 
Q 4749 2720 4576 2550 
Q 4403 2381 4204 2205 
Q 4006 2029 3750 1811 
L 3750 384 
Q 3750 262 3782 188 
Q 3814 115 3897 76 
Q 3981 38 4131 28 
Q 4282 19 4518 19 
Q 4774 19 4937 38 
Q 5101 58 5203 150 
Q 5306 243 5363 428 
Q 5421 614 5472 941 
Q 5549 845 5613 781 
Q 5677 717 5747 669 
Q 5818 621 5894 585 
Q 5971 550 6080 512 
Q 5971 147 5881 -54 
Q 5792 -256 5641 -355 
Q 5491 -454 5232 -473 
Q 4973 -493 4518 -493 
Q 4083 -493 3827 -467 
Q 3571 -442 3430 -374 
Q 3290 -307 3248 -182 
Q 3206 -58 3206 134 
L 3206 4358 
Q 3206 4589 3196 4813 
Q 3187 5037 3155 5165 
Q 3226 5146 3318 5133 
Q 3411 5120 3507 5110 
Q 3603 5101 3692 5094 
Q 3782 5088 3840 5088 
Q 3930 5088 3939 5043 
Q 3949 4998 3878 4947 
Q 3827 4915 3788 4825 
Q 3750 4736 3750 4672 
L 3750 2445 
z
" transform="scale(0.015625)"/>
       <path id="STHeitiTC-Medium-8f6c" d="M 1594 2413 
Q 1587 2758 1574 2998 
Q 1562 3238 1549 3379 
Q 1606 3366 1683 3360 
Q 1760 3354 1843 3347 
Q 1926 3341 2006 3337 
Q 2086 3334 2144 3334 
Q 2208 3334 2211 3308 
Q 2214 3283 2163 3258 
Q 2125 3238 2102 3196 
Q 2080 3155 2080 3078 
L 2080 2413 
Q 2285 2419 2409 2428 
Q 2534 2438 2656 2464 
L 2656 1984 
Q 2566 1997 2425 2003 
Q 2285 2010 2080 2016 
L 2080 1126 
Q 2381 1178 2576 1219 
Q 2771 1261 2880 1293 
Q 2848 1165 2835 1021 
Q 2822 877 2822 768 
Q 2714 755 2547 732 
Q 2381 710 2080 666 
Q 2080 288 2093 -41 
Q 2106 -371 2138 -710 
L 1536 -710 
Q 1568 -384 1581 -73 
Q 1594 237 1594 589 
Q 1210 518 947 454 
Q 685 390 499 320 
Q 480 461 448 643 
Q 416 826 384 966 
Q 480 966 624 976 
Q 768 986 937 998 
Q 1107 1011 1276 1024 
Q 1446 1037 1594 1056 
L 1594 2010 
Q 1222 1997 979 1968 
Q 736 1939 563 1894 
Q 506 2150 352 2374 
Q 410 2413 474 2486 
Q 538 2560 618 2713 
Q 698 2867 797 3126 
Q 896 3386 1030 3789 
Q 794 3782 678 3772 
Q 563 3763 448 3744 
L 448 4282 
Q 576 4256 736 4246 
Q 896 4237 1171 4230 
Q 1274 4563 1322 4784 
Q 1370 5005 1382 5210 
Q 1459 5178 1548 5149 
Q 1638 5120 1728 5091 
Q 1818 5062 1898 5040 
Q 1978 5018 2035 5005 
Q 2170 4973 2029 4883 
Q 2003 4870 1974 4832 
Q 1946 4794 1907 4717 
Q 1869 4640 1817 4521 
Q 1766 4403 1690 4230 
Q 2118 4230 2352 4243 
Q 2586 4256 2733 4282 
L 2733 3744 
Q 2656 3757 2576 3766 
Q 2496 3776 2368 3779 
Q 2240 3782 2035 3785 
Q 1830 3789 1510 3789 
L 986 2413 
L 1594 2413 
z
M 4640 134 
Q 4819 0 4988 -137 
Q 5158 -275 5344 -429 
L 4922 -870 
Q 4698 -646 4506 -464 
Q 4314 -282 4122 -125 
Q 3930 32 3722 176 
Q 3514 320 3264 467 
L 3578 858 
Q 3782 730 3948 618 
Q 4115 506 4262 403 
L 4915 1350 
L 3341 1350 
Q 3392 1594 3443 1843 
Q 3494 2093 3558 2490 
Q 3328 2477 3097 2467 
Q 2867 2458 2733 2432 
L 2733 2976 
Q 2893 2957 3139 2944 
Q 3386 2931 3616 2925 
Q 3648 3162 3670 3357 
Q 3693 3552 3718 3718 
Q 3514 3712 3296 3699 
Q 3078 3686 2957 3667 
L 2957 4211 
Q 3021 4198 3117 4188 
Q 3213 4179 3321 4172 
Q 3430 4166 3548 4160 
Q 3667 4154 3770 4154 
Q 3795 4352 3808 4496 
Q 3821 4640 3830 4752 
Q 3840 4864 3846 4957 
Q 3853 5050 3853 5146 
Q 4013 5094 4192 5062 
Q 4371 5030 4474 5030 
Q 4550 5030 4556 5001 
Q 4563 4973 4474 4890 
Q 4454 4877 4438 4838 
Q 4422 4800 4400 4717 
Q 4378 4634 4349 4496 
Q 4320 4358 4288 4147 
L 4973 4147 
Q 5158 4147 5334 4163 
Q 5510 4179 5677 4211 
L 5677 3667 
Q 5338 3725 4973 3725 
L 4218 3725 
Q 4192 3558 4163 3360 
Q 4134 3162 4102 2918 
L 5184 2918 
Q 5645 2918 6042 2976 
L 6042 2432 
Q 5843 2464 5625 2480 
Q 5408 2496 5184 2496 
L 4045 2496 
Q 4026 2336 4003 2160 
Q 3981 1984 3955 1792 
L 4992 1792 
Q 5434 1792 5734 1830 
L 5734 1389 
Q 5619 1344 5478 1232 
Q 5338 1120 5248 992 
L 4640 134 
z
" transform="scale(0.015625)"/>
       <path id="STHeitiTC-Medium-578b" d="M 3008 768 
Q 2381 768 1926 761 
Q 1472 755 1120 723 
L 1120 1248 
Q 1485 1216 1933 1209 
Q 2381 1203 3008 1203 
Q 3002 1382 2992 1529 
Q 2982 1677 2970 1760 
Q 3110 1741 3251 1731 
Q 3392 1722 3558 1722 
Q 3648 1722 3657 1690 
Q 3667 1658 3590 1606 
Q 3558 1581 3529 1513 
Q 3501 1446 3501 1389 
L 3501 1203 
Q 4109 1203 4550 1212 
Q 4992 1222 5338 1248 
L 5338 723 
Q 4992 749 4550 758 
Q 4109 768 3501 768 
L 3501 58 
Q 4346 58 4954 67 
Q 5562 77 6035 102 
L 6035 -416 
Q 5530 -390 4864 -380 
Q 4198 -371 3251 -371 
Q 2310 -371 1641 -384 
Q 973 -397 474 -416 
L 474 102 
Q 922 77 1539 67 
Q 2157 58 3008 58 
L 3008 768 
z
M 5702 4909 
Q 5670 4877 5657 4841 
Q 5645 4806 5645 4723 
L 5645 2208 
Q 5645 2016 5606 1897 
Q 5568 1779 5462 1708 
Q 5357 1638 5174 1603 
Q 4992 1568 4698 1536 
Q 4685 1715 4637 1852 
Q 4589 1990 4461 2138 
Q 4826 2067 4989 2131 
Q 5152 2195 5152 2374 
L 5152 4038 
Q 5152 4198 5149 4355 
Q 5146 4512 5136 4649 
Q 5126 4787 5116 4899 
Q 5107 5011 5101 5082 
Q 5350 5030 5658 5050 
Q 5747 5056 5756 5011 
Q 5766 4966 5702 4909 
z
M 4557 4525 
Q 4518 4493 4518 4352 
L 4518 3226 
Q 4518 3034 4524 2835 
Q 4531 2637 4550 2419 
L 4019 2419 
Q 4038 2650 4044 2842 
Q 4051 3034 4051 3226 
L 4051 3994 
Q 4051 4237 4038 4406 
Q 4026 4576 4000 4698 
Q 4147 4666 4291 4653 
Q 4435 4640 4531 4646 
Q 4602 4653 4614 4611 
Q 4627 4570 4557 4525 
z
M 1894 4410 
L 1894 3405 
L 2605 3405 
L 2605 4410 
L 1894 4410 
z
M 1408 4410 
Q 1197 4416 1005 4403 
Q 813 4390 710 4365 
L 710 4864 
Q 787 4851 899 4844 
Q 1011 4838 1180 4832 
Q 1350 4826 1590 4822 
Q 1830 4819 2163 4819 
Q 2509 4819 2752 4822 
Q 2995 4826 3161 4829 
Q 3328 4832 3433 4841 
Q 3539 4851 3610 4864 
L 3610 4365 
Q 3520 4378 3382 4387 
Q 3245 4397 3078 4403 
L 3078 3405 
Q 3283 3411 3465 3420 
Q 3648 3430 3731 3443 
L 3731 2950 
Q 3642 2963 3462 2969 
Q 3283 2976 3078 2976 
Q 3072 2746 3085 2461 
Q 3098 2176 3123 1901 
L 2560 1901 
Q 2592 2176 2601 2464 
Q 2611 2752 2605 2982 
L 1875 2982 
Q 1818 2541 1542 2137 
Q 1267 1734 710 1402 
Q 582 1670 358 1786 
Q 870 2118 1100 2400 
Q 1331 2682 1389 2982 
Q 1062 2982 825 2972 
Q 589 2963 480 2950 
L 480 3443 
Q 589 3430 838 3417 
Q 1088 3405 1408 3405 
L 1408 4410 
z
" transform="scale(0.015625)"/>
       <path id="STHeitiTC-Medium-7ee9" d="M 5536 -698 
Q 5235 -410 4931 -176 
Q 4627 58 4314 230 
L 4634 608 
Q 4966 403 5276 192 
Q 5587 -19 5926 -275 
L 5536 -698 
z
M 2317 858 
Q 2278 755 2268 604 
Q 2259 454 2278 346 
Q 1632 262 1184 150 
Q 736 38 506 -64 
Q 480 122 448 253 
Q 416 384 333 589 
Q 602 570 1117 634 
Q 1632 698 2317 858 
z
M 4429 1434 
Q 4371 1357 4333 1043 
Q 4320 928 4291 803 
Q 4262 678 4220 556 
Q 4179 435 4124 323 
Q 4070 211 3994 128 
Q 3757 -147 3395 -345 
Q 3034 -544 2509 -698 
Q 2406 -410 2099 -256 
Q 2726 -154 3120 41 
Q 3514 237 3661 493 
Q 3712 582 3747 681 
Q 3782 781 3804 912 
Q 3827 1043 3840 1216 
Q 3853 1389 3866 1632 
Q 3994 1606 4154 1593 
Q 4314 1581 4403 1581 
Q 4486 1581 4489 1552 
Q 4493 1523 4429 1434 
z
M 4979 653 
L 4979 1882 
L 3258 1882 
L 3258 570 
L 2720 570 
Q 2739 710 2752 876 
Q 2765 1043 2765 1171 
L 2765 1843 
Q 2765 1971 2755 2118 
Q 2746 2266 2726 2355 
Q 2803 2342 2896 2332 
Q 2989 2323 3136 2316 
Q 3283 2310 3504 2307 
Q 3725 2304 4064 2304 
Q 4403 2304 4640 2307 
Q 4877 2310 5043 2320 
Q 5210 2330 5318 2336 
Q 5427 2342 5510 2355 
Q 5498 2266 5485 2118 
Q 5472 1971 5472 1843 
L 5472 1242 
Q 5472 1114 5485 947 
Q 5498 781 5517 653 
L 4979 653 
z
M 979 2867 
Q 851 2848 739 2816 
Q 627 2784 525 2746 
Q 486 2906 444 3008 
Q 403 3110 339 3213 
Q 442 3270 528 3360 
Q 614 3450 704 3645 
Q 794 3840 906 4185 
Q 1018 4531 1184 5107 
Q 1293 5037 1456 4985 
Q 1619 4934 1766 4909 
Q 1856 4896 1856 4854 
Q 1856 4813 1786 4787 
Q 1766 4781 1728 4726 
Q 1690 4672 1603 4512 
Q 1517 4352 1366 4054 
Q 1216 3757 979 3264 
L 1670 3354 
Q 1741 3494 1792 3609 
Q 1843 3725 1901 3891 
Q 2029 3802 2166 3728 
Q 2304 3654 2394 3622 
Q 2541 3565 2387 3501 
Q 2374 3494 2329 3436 
Q 2285 3379 2160 3203 
Q 2035 3027 1808 2688 
Q 1581 2349 1210 1786 
Q 1357 1805 1485 1824 
Q 1613 1843 1737 1862 
Q 1862 1882 2003 1901 
Q 2144 1920 2317 1946 
Q 2240 1702 2259 1459 
L 1306 1370 
Q 1120 1350 937 1315 
Q 755 1280 602 1235 
Q 589 1382 560 1500 
Q 531 1619 480 1728 
Q 582 1766 672 1820 
Q 762 1875 867 2000 
Q 973 2125 1113 2349 
Q 1254 2573 1459 2950 
L 979 2867 
z
M 3859 4211 
Q 3398 4198 3056 4179 
Q 2714 4160 2432 4128 
L 2432 4666 
Q 2714 4634 3056 4621 
Q 3398 4608 3859 4602 
Q 3853 4768 3840 4915 
Q 3827 5062 3814 5139 
Q 3955 5120 4089 5110 
Q 4224 5101 4390 5101 
Q 4557 5101 4416 4998 
Q 4397 4986 4381 4963 
Q 4365 4941 4355 4899 
Q 4346 4858 4339 4787 
Q 4333 4717 4333 4602 
Q 4832 4608 5197 4621 
Q 5562 4634 5850 4666 
L 5850 4147 
Q 5562 4179 5197 4192 
Q 4832 4205 4333 4211 
L 4333 3840 
Q 4736 3846 5021 3859 
Q 5306 3872 5530 3904 
L 5530 3386 
Q 5306 3418 5021 3430 
Q 4736 3443 4333 3450 
L 4333 3066 
Q 4915 3066 5331 3082 
Q 5747 3098 6067 3130 
L 6067 2611 
Q 5722 2643 5270 2659 
Q 4819 2675 4166 2675 
Q 3520 2675 3078 2659 
Q 2637 2643 2298 2611 
L 2298 3130 
Q 2605 3098 2973 3085 
Q 3341 3072 3859 3066 
L 3859 3450 
Q 3475 3437 3200 3417 
Q 2925 3398 2701 3366 
L 2701 3904 
Q 2925 3872 3200 3859 
Q 3475 3846 3859 3840 
L 3859 4211 
z
" transform="scale(0.015625)"/>
       <path id="STHeitiTC-Medium-6548" d="M 1741 3187 
Q 1869 3155 1722 3066 
Q 1690 3046 1626 2982 
Q 1562 2918 1446 2784 
Q 1331 2650 1148 2426 
Q 966 2202 698 1862 
Q 506 2074 269 2234 
Q 621 2502 880 2822 
Q 1139 3142 1267 3469 
Q 1389 3379 1529 3292 
Q 1670 3206 1741 3187 
z
M 3002 2214 
Q 2912 2336 2787 2477 
Q 2662 2618 2528 2752 
Q 2394 2886 2266 2995 
Q 2138 3104 2042 3162 
L 2451 3469 
Q 2662 3245 2896 3033 
Q 3130 2822 3386 2618 
L 3002 2214 
z
M 3296 3629 
Q 2957 3661 2605 3670 
Q 2253 3680 1869 3680 
Q 1376 3680 1033 3661 
Q 691 3642 454 3622 
L 454 4218 
Q 691 4186 1017 4170 
Q 1344 4154 1882 4154 
Q 2291 4154 2640 4170 
Q 2989 4186 3296 4218 
L 3296 3629 
z
M 1824 4320 
Q 1792 4480 1728 4672 
Q 1664 4864 1574 5088 
L 2176 5242 
Q 2234 5075 2317 4860 
Q 2400 4646 2477 4480 
L 1824 4320 
z
M 1984 1523 
Q 2093 1734 2173 1964 
Q 2253 2195 2291 2387 
Q 2426 2291 2573 2195 
Q 2720 2099 2778 2086 
Q 2829 2074 2822 2045 
Q 2816 2016 2758 1984 
Q 2746 1978 2723 1946 
Q 2701 1914 2662 1843 
Q 2624 1773 2563 1657 
Q 2502 1542 2419 1370 
Q 2400 1331 2377 1289 
Q 2355 1248 2330 1203 
Q 2560 979 2755 774 
Q 2950 570 3078 422 
L 2656 58 
Q 2534 243 2380 428 
Q 2227 614 2061 800 
Q 1459 -45 768 -550 
Q 698 -429 573 -320 
Q 448 -211 288 -141 
Q 474 -51 646 57 
Q 819 166 992 316 
Q 1165 467 1347 665 
Q 1530 864 1728 1133 
Q 1498 1357 1280 1533 
Q 1062 1709 896 1805 
L 1254 2150 
Q 1421 2022 1609 1862 
Q 1798 1702 1984 1523 
z
M 4070 3533 
Q 3974 3328 3888 3158 
Q 3802 2989 3693 2810 
Q 3571 2880 3452 2925 
Q 3334 2970 3206 3002 
Q 3571 3520 3795 4086 
Q 4019 4653 4102 5210 
Q 4250 5158 4432 5110 
Q 4614 5062 4736 5050 
Q 4890 5030 4736 4922 
Q 4704 4902 4675 4864 
Q 4646 4826 4598 4733 
Q 4550 4640 4476 4470 
Q 4403 4301 4282 4026 
Q 4698 4026 4986 4032 
Q 5274 4038 5472 4048 
Q 5670 4058 5792 4067 
Q 5914 4077 6003 4096 
L 6003 3494 
Q 5869 3514 5728 3520 
Q 5587 3526 5414 3533 
Q 5382 2976 5334 2560 
Q 5286 2144 5209 1824 
Q 5133 1504 5030 1254 
Q 4928 1005 4787 787 
Q 5094 499 5456 304 
Q 5818 109 6131 32 
Q 5997 -96 5869 -285 
Q 5741 -474 5690 -621 
Q 5587 -570 5436 -464 
Q 5286 -358 5116 -220 
Q 4947 -83 4784 70 
Q 4621 224 4486 371 
Q 4198 51 3782 -246 
Q 3366 -544 2899 -749 
Q 2822 -634 2716 -518 
Q 2611 -403 2483 -307 
Q 2963 -154 3401 121 
Q 3840 397 4186 781 
Q 3955 1178 3804 1645 
Q 3654 2112 3584 2528 
L 4077 2682 
Q 4083 2547 4121 2352 
Q 4160 2157 4214 1945 
Q 4269 1734 4336 1532 
Q 4403 1331 4480 1178 
Q 4666 1542 4762 2112 
Q 4858 2682 4883 3533 
L 4070 3533 
z
" transform="scale(0.015625)"/>
      </defs>
      <use xlink:href="#STHeitiTC-Medium-6570"/>
      <use xlink:href="#STHeitiTC-Medium-5b57" x="99.999985"/>
      <use xlink:href="#STHeitiTC-Medium-5316" x="199.999969"/>
      <use xlink:href="#STHeitiTC-Medium-8f6c" x="299.999954"/>
      <use xlink:href="#STHeitiTC-Medium-578b" x="399.999939"/>
      <use xlink:href="#STHeitiTC-Medium-7ee9" x="499.999924"/>
      <use xlink:href="#STHeitiTC-Medium-6548" x="599.999908"/>
     </g>
    </g>
   </g>
  </g>
  <g id="axes_2">
   <g id="matplotlib.axis_3">
    <g id="ytick_8">
     <g id="line2d_23">
      <path d="M 27.65 447.720969 
L 585.65 447.720969 
" clip-path="url(#pa64ca06698)" style="fill: none; stroke-dasharray: 1,1.65; stroke-dashoffset: 0; stroke: #999999"/>
     </g>
     <g id="line2d_24">
      <defs>
       <path id="mfd74858b7f" d="M 0 0 
L 6 0 
" style="stroke: #262626; stroke-width: 1.25"/>
      </defs>
      <g>
       <use xlink:href="#mfd74858b7f" x="585.65" y="447.720969" style="fill: #262626; stroke: #262626; stroke-width: 1.25"/>
      </g>
     </g>
     <g id="text_17">
      <!-- 2.0% -->
      <g style="fill: #262626" transform="translate(595.15 451.887219) scale(0.12 -0.12)">
       <defs>
        <path id="TimesNewRomanPSMT-25" d="M 4350 4334 
L 1263 -175 
L 984 -175 
L 4072 4334 
L 4350 4334 
z
M 1138 4334 
Q 1559 4334 1792 3984 
Q 2025 3634 2025 3181 
Q 2025 2638 1762 2341 
Q 1500 2044 1131 2044 
Q 884 2044 678 2180 
Q 472 2316 348 2584 
Q 225 2853 225 3181 
Q 225 3509 350 3786 
Q 475 4063 692 4198 
Q 909 4334 1138 4334 
z
M 1128 4159 
Q 969 4159 845 3971 
Q 722 3784 722 3184 
Q 722 2750 791 2522 
Q 844 2350 956 2256 
Q 1022 2200 1119 2200 
Q 1269 2200 1375 2363 
Q 1531 2603 1531 3166 
Q 1531 3759 1378 4000 
Q 1278 4159 1128 4159 
z
M 4206 2103 
Q 4428 2103 4648 1962 
Q 4869 1822 4989 1553 
Q 5109 1284 5109 963 
Q 5109 409 4843 117 
Q 4578 -175 4216 -175 
Q 3988 -175 3773 -34 
Q 3559 106 3436 367 
Q 3313 628 3313 963 
Q 3313 1291 3436 1562 
Q 3559 1834 3773 1968 
Q 3988 2103 4206 2103 
z
M 4209 1938 
Q 4059 1938 3950 1769 
Q 3809 1550 3809 941 
Q 3809 381 3953 159 
Q 4059 0 4209 0 
Q 4353 0 4466 172 
Q 4616 400 4616 956 
Q 4616 1544 4466 1778 
Q 4363 1938 4209 1938 
z
" transform="scale(0.015625)"/>
       </defs>
       <use xlink:href="#TimesNewRomanPSMT-32"/>
       <use xlink:href="#TimesNewRomanPSMT-2e" x="50"/>
       <use xlink:href="#TimesNewRomanPSMT-30" x="75"/>
       <use xlink:href="#TimesNewRomanPSMT-25" x="125"/>
      </g>
     </g>
    </g>
    <g id="ytick_9">
     <g id="line2d_25">
      <path d="M 27.65 373.800969 
L 585.65 373.800969 
" clip-path="url(#pa64ca06698)" style="fill: none; stroke-dasharray: 1,1.65; stroke-dashoffset: 0; stroke: #999999"/>
     </g>
     <g id="line2d_26">
      <g>
       <use xlink:href="#mfd74858b7f" x="585.65" y="373.800969" style="fill: #262626; stroke: #262626; stroke-width: 1.25"/>
      </g>
     </g>
     <g id="text_18">
      <!-- 3.0% -->
      <g style="fill: #262626" transform="translate(595.15 377.967219) scale(0.12 -0.12)">
       <use xlink:href="#TimesNewRomanPSMT-33"/>
       <use xlink:href="#TimesNewRomanPSMT-2e" x="50"/>
       <use xlink:href="#TimesNewRomanPSMT-30" x="75"/>
       <use xlink:href="#TimesNewRomanPSMT-25" x="125"/>
      </g>
     </g>
    </g>
    <g id="ytick_10">
     <g id="line2d_27">
      <path d="M 27.65 299.880969 
L 585.65 299.880969 
" clip-path="url(#pa64ca06698)" style="fill: none; stroke-dasharray: 1,1.65; stroke-dashoffset: 0; stroke: #999999"/>
     </g>
     <g id="line2d_28">
      <g>
       <use xlink:href="#mfd74858b7f" x="585.65" y="299.880969" style="fill: #262626; stroke: #262626; stroke-width: 1.25"/>
      </g>
     </g>
     <g id="text_19">
      <!-- 4.0% -->
      <g style="fill: #262626" transform="translate(595.15 304.047219) scale(0.12 -0.12)">
       <defs>
        <path id="TimesNewRomanPSMT-34" d="M 2978 1563 
L 2978 1119 
L 2409 1119 
L 2409 0 
L 1894 0 
L 1894 1119 
L 100 1119 
L 100 1519 
L 2066 4325 
L 2409 4325 
L 2409 1563 
L 2978 1563 
z
M 1894 1563 
L 1894 3666 
L 406 1563 
L 1894 1563 
z
" transform="scale(0.015625)"/>
       </defs>
       <use xlink:href="#TimesNewRomanPSMT-34"/>
       <use xlink:href="#TimesNewRomanPSMT-2e" x="50"/>
       <use xlink:href="#TimesNewRomanPSMT-30" x="75"/>
       <use xlink:href="#TimesNewRomanPSMT-25" x="125"/>
      </g>
     </g>
    </g>
    <g id="ytick_11">
     <g id="line2d_29">
      <path d="M 27.65 225.960969 
L 585.65 225.960969 
" clip-path="url(#pa64ca06698)" style="fill: none; stroke-dasharray: 1,1.65; stroke-dashoffset: 0; stroke: #999999"/>
     </g>
     <g id="line2d_30">
      <g>
       <use xlink:href="#mfd74858b7f" x="585.65" y="225.960969" style="fill: #262626; stroke: #262626; stroke-width: 1.25"/>
      </g>
     </g>
     <g id="text_20">
      <!-- 5.0% -->
      <g style="fill: #262626" transform="translate(595.15 230.127219) scale(0.12 -0.12)">
       <use xlink:href="#TimesNewRomanPSMT-35"/>
       <use xlink:href="#TimesNewRomanPSMT-2e" x="50"/>
       <use xlink:href="#TimesNewRomanPSMT-30" x="75"/>
       <use xlink:href="#TimesNewRomanPSMT-25" x="125"/>
      </g>
     </g>
    </g>
    <g id="ytick_12">
     <g id="line2d_31">
      <path d="M 27.65 152.040969 
L 585.65 152.040969 
" clip-path="url(#pa64ca06698)" style="fill: none; stroke-dasharray: 1,1.65; stroke-dashoffset: 0; stroke: #999999"/>
     </g>
     <g id="line2d_32">
      <g>
       <use xlink:href="#mfd74858b7f" x="585.65" y="152.040969" style="fill: #262626; stroke: #262626; stroke-width: 1.25"/>
      </g>
     </g>
     <g id="text_21">
      <!-- 6.0% -->
      <g style="fill: #262626" transform="translate(595.15 156.207219) scale(0.12 -0.12)">
       <use xlink:href="#TimesNewRomanPSMT-36"/>
       <use xlink:href="#TimesNewRomanPSMT-2e" x="50"/>
       <use xlink:href="#TimesNewRomanPSMT-30" x="75"/>
       <use xlink:href="#TimesNewRomanPSMT-25" x="125"/>
      </g>
     </g>
    </g>
    <g id="ytick_13">
     <g id="line2d_33">
      <path d="M 27.65 78.120969 
L 585.65 78.120969 
" clip-path="url(#pa64ca06698)" style="fill: none; stroke-dasharray: 1,1.65; stroke-dashoffset: 0; stroke: #999999"/>
     </g>
     <g id="line2d_34">
      <g>
       <use xlink:href="#mfd74858b7f" x="585.65" y="78.120969" style="fill: #262626; stroke: #262626; stroke-width: 1.25"/>
      </g>
     </g>
     <g id="text_22">
      <!-- 7.0% -->
      <g style="fill: #262626" transform="translate(595.15 82.287219) scale(0.12 -0.12)">
       <use xlink:href="#TimesNewRomanPSMT-37"/>
       <use xlink:href="#TimesNewRomanPSMT-2e" x="50"/>
       <use xlink:href="#TimesNewRomanPSMT-30" x="75"/>
       <use xlink:href="#TimesNewRomanPSMT-25" x="125"/>
      </g>
     </g>
    </g>
    <g id="ytick_14">
     <g id="line2d_35">
      <path d="M 27.65 4.200969 
L 585.65 4.200969 
" clip-path="url(#pa64ca06698)" style="fill: none; stroke-dasharray: 1,1.65; stroke-dashoffset: 0; stroke: #999999"/>
     </g>
     <g id="line2d_36">
      <g>
       <use xlink:href="#mfd74858b7f" x="585.65" y="4.200969" style="fill: #262626; stroke: #262626; stroke-width: 1.25"/>
      </g>
     </g>
     <g id="text_23">
      <!-- 8.0% -->
      <g style="fill: #262626" transform="translate(595.15 8.367219) scale(0.12 -0.12)">
       <use xlink:href="#TimesNewRomanPSMT-38"/>
       <use xlink:href="#TimesNewRomanPSMT-2e" x="50"/>
       <use xlink:href="#TimesNewRomanPSMT-30" x="75"/>
       <use xlink:href="#TimesNewRomanPSMT-25" x="125"/>
      </g>
     </g>
    </g>
   </g>
   <g id="line2d_37">
    <path d="M 89.247403 232.60535 
L 234.182468 156.025186 
L 379.117532 237.986507 
L 524.052597 230.449569 
" clip-path="url(#pa64ca06698)" style="fill: none; stroke: #c44e52; stroke-width: 2; stroke-linecap: round"/>
    <defs>
     <path id="mbc5636404b" d="M 0 3 
C 0.795609 3 1.55874 2.683901 2.12132 2.12132 
C 2.683901 1.55874 3 0.795609 3 0 
C 3 -0.795609 2.683901 -1.55874 2.12132 -2.12132 
C 1.55874 -2.683901 0.795609 -3 0 -3 
C -0.795609 -3 -1.55874 -2.683901 -2.12132 -2.12132 
C -2.683901 -1.55874 -3 -0.795609 -3 0 
C -3 0.795609 -2.683901 1.55874 -2.12132 2.12132 
C -1.55874 2.683901 -0.795609 3 0 3 
z
" style="stroke: #c44e52"/>
    </defs>
    <g clip-path="url(#pa64ca06698)">
     <use xlink:href="#mbc5636404b" x="89.247403" y="232.60535" style="fill: #c44e52; stroke: #c44e52"/>
     <use xlink:href="#mbc5636404b" x="234.182468" y="156.025186" style="fill: #c44e52; stroke: #c44e52"/>
     <use xlink:href="#mbc5636404b" x="379.117532" y="237.986507" style="fill: #c44e52; stroke: #c44e52"/>
     <use xlink:href="#mbc5636404b" x="524.052597" y="230.449569" style="fill: #c44e52; stroke: #c44e52"/>
    </g>
   </g>
   <g id="patch_12">
    <path d="M 27.65 447.720969 
L 27.65 4.200969 
" style="fill: none; stroke: #262626; stroke-width: 1.25; stroke-linejoin: miter; stroke-linecap: square"/>
   </g>
   <g id="patch_13">
    <path d="M 585.65 447.720969 
L 585.65 4.200969 
" style="fill: none; stroke: #262626; stroke-width: 1.25; stroke-linejoin: miter; stroke-linecap: square"/>
   </g>
   <g id="patch_14">
    <path d="M 27.65 447.720969 
L 585.65 447.720969 
" style="fill: none; stroke: #262626; stroke-width: 1.25; stroke-linejoin: miter; stroke-linecap: square"/>
   </g>
   <g id="patch_15">
    <path d="M 27.65 4.200969 
L 585.65 4.200969 
" style="fill: none; stroke: #262626; stroke-width: 1.25; stroke-linejoin: miter; stroke-linecap: square"/>
   </g>
   <g id="legend_2">
    <g id="line2d_38">
     <path d="M 478.89 28.019303 
L 490.99 28.019303 
L 503.09 28.019303 
" style="fill: none; stroke: #c44e52; stroke-width: 2; stroke-linecap: round"/>
     <g>
      <use xlink:href="#mbc5636404b" x="490.99" y="28.019303" style="fill: #c44e52; stroke: #c44e52"/>
     </g>
    </g>
    <g id="text_24">
     <!-- 均值 -->
     <g style="fill: #262626" transform="translate(512.77 32.254303) scale(0.121 -0.121)">
      <defs>
       <path id="STHeitiTC-Medium-5747" d="M 3699 3584 
Q 3546 3258 3376 2960 
Q 3206 2662 2957 2285 
Q 2848 2368 2713 2425 
Q 2579 2483 2413 2534 
Q 2534 2656 2627 2774 
Q 2720 2893 2813 3037 
Q 2906 3181 3005 3376 
Q 3104 3571 3238 3853 
Q 3290 3968 3344 4121 
Q 3398 4275 3446 4444 
Q 3494 4614 3532 4790 
Q 3571 4966 3590 5126 
Q 3795 5062 3968 5027 
Q 4141 4992 4339 4960 
Q 4410 4947 4413 4915 
Q 4416 4883 4333 4832 
Q 4282 4800 4240 4752 
Q 4198 4704 4150 4614 
Q 4102 4525 4044 4384 
Q 3987 4243 3904 4038 
L 5062 4038 
Q 5338 4038 5587 4054 
Q 5837 4070 6003 4090 
L 5875 352 
Q 5862 38 5820 -157 
Q 5779 -352 5635 -470 
Q 5491 -589 5216 -646 
Q 4941 -704 4474 -749 
Q 4442 -557 4381 -400 
Q 4320 -243 4173 -45 
Q 4550 -83 4777 -70 
Q 5005 -58 5126 9 
Q 5248 77 5289 214 
Q 5331 352 5338 563 
L 5440 3584 
L 3699 3584 
z
M 5018 1216 
Q 4749 1107 4509 1011 
Q 4269 915 4038 816 
Q 3808 717 3581 611 
Q 3354 506 3110 390 
Q 3059 563 2995 713 
Q 2931 864 2848 1030 
Q 3123 1088 3379 1161 
Q 3635 1235 3894 1324 
Q 4154 1414 4426 1532 
Q 4698 1651 4998 1798 
Q 4986 1638 4989 1507 
Q 4992 1376 5018 1216 
z
M 4000 1811 
Q 3910 2054 3772 2304 
Q 3635 2554 3488 2714 
L 4026 2989 
Q 4128 2790 4275 2531 
Q 4422 2272 4550 2067 
L 4000 1811 
z
M 1824 998 
Q 2067 1069 2275 1149 
Q 2483 1229 2643 1299 
Q 2611 1146 2604 1018 
Q 2598 890 2611 723 
Q 2406 672 2156 595 
Q 1907 518 1641 416 
Q 1376 314 1117 195 
Q 858 77 627 -45 
Q 602 160 544 345 
Q 486 531 397 691 
Q 602 710 826 752 
Q 1050 794 1286 851 
L 1286 2995 
Q 1062 2995 873 2985 
Q 685 2976 557 2957 
L 557 3514 
Q 691 3494 876 3484 
Q 1062 3475 1286 3469 
Q 1286 3808 1283 4048 
Q 1280 4288 1277 4454 
Q 1274 4621 1264 4733 
Q 1254 4845 1248 4934 
Q 1395 4915 1555 4908 
Q 1715 4902 1882 4909 
Q 1958 4909 1968 4877 
Q 1978 4845 1907 4806 
Q 1862 4781 1843 4739 
Q 1824 4698 1824 4646 
L 1824 3469 
Q 2061 3475 2240 3484 
Q 2419 3494 2566 3514 
L 2566 2957 
Q 2426 2976 2246 2985 
Q 2067 2995 1824 3002 
L 1824 998 
z
" transform="scale(0.015625)"/>
       <path id="STHeitiTC-Medium-503c" d="M 1594 -691 
L 1011 -691 
Q 1037 -416 1059 -38 
Q 1082 339 1082 685 
L 1082 3002 
Q 966 2797 854 2617 
Q 742 2438 640 2285 
Q 563 2406 467 2502 
Q 371 2598 230 2688 
Q 454 2950 675 3289 
Q 896 3629 1037 3974 
Q 1165 4275 1273 4585 
Q 1382 4896 1453 5152 
Q 1600 5075 1760 5008 
Q 1920 4941 2010 4922 
Q 2106 4902 2109 4857 
Q 2112 4813 2022 4762 
Q 1978 4736 1907 4624 
Q 1837 4512 1722 4243 
Q 1690 4173 1658 4102 
Q 1626 4032 1594 3962 
L 1594 -691 
z
M 2970 909 
L 4960 909 
L 4960 1402 
L 2970 1402 
L 2970 909 
z
M 4960 3091 
L 2970 3091 
L 2970 2624 
L 4960 2624 
L 4960 3091 
z
M 2970 1760 
L 4960 1760 
L 4960 2259 
L 2970 2259 
L 2970 1760 
z
M 2483 2848 
Q 2483 2899 2480 2992 
Q 2477 3085 2473 3190 
Q 2470 3296 2464 3392 
Q 2458 3488 2451 3546 
Q 2630 3533 2896 3520 
Q 3162 3507 3552 3501 
Q 3578 3648 3590 3801 
Q 3603 3955 3616 4122 
Q 3142 4115 2780 4108 
Q 2419 4102 2131 4083 
L 2131 4582 
Q 2426 4557 2790 4547 
Q 3155 4538 3642 4531 
Q 3648 4723 3648 4886 
Q 3648 5050 3635 5165 
Q 3699 5152 3795 5142 
Q 3891 5133 3990 5126 
Q 4090 5120 4179 5117 
Q 4269 5114 4326 5120 
Q 4378 5126 4387 5097 
Q 4397 5069 4346 5024 
Q 4288 4973 4249 4873 
Q 4211 4774 4173 4531 
Q 4794 4531 5261 4540 
Q 5728 4550 6067 4582 
L 6067 4083 
Q 5722 4109 5245 4118 
Q 4768 4128 4122 4122 
Q 4109 3994 4093 3840 
Q 4077 3686 4058 3501 
Q 4589 3501 4921 3510 
Q 5254 3520 5478 3546 
Q 5472 3494 5465 3408 
Q 5459 3322 5456 3222 
Q 5453 3123 5453 3024 
Q 5453 2925 5453 2848 
L 5453 38 
Q 5645 45 5817 54 
Q 5990 64 6163 83 
L 6163 -429 
Q 6067 -422 5932 -412 
Q 5798 -403 5561 -396 
Q 5325 -390 4953 -387 
Q 4582 -384 4019 -384 
Q 3456 -384 3094 -387 
Q 2733 -390 2499 -393 
Q 2266 -397 2128 -406 
Q 1990 -416 1875 -422 
L 1875 83 
Q 2150 58 2483 45 
L 2483 2848 
z
M 4960 544 
L 2970 544 
L 2970 38 
L 4960 38 
L 4960 544 
z
" transform="scale(0.015625)"/>
      </defs>
      <use xlink:href="#STHeitiTC-Medium-5747"/>
      <use xlink:href="#STHeitiTC-Medium-503c" x="99.999985"/>
     </g>
    </g>
   </g>
  </g>
 </g>
 <defs>
  <clipPath id="pa64ca06698">
   <rect x="27.65" y="4.200969" width="558" height="443.52"/>
  </clipPath>
 </defs>
</svg>
