<?xml version="1.0" encoding="utf-8" standalone="no"?>
<!DOCTYPE svg PUBLIC "-//W3C//DTD SVG 1.1//EN"
  "http://www.w3.org/Graphics/SVG/1.1/DTD/svg11.dtd">
<svg xmlns:xlink="http://www.w3.org/1999/xlink" width="583.757812pt" height="243.159pt" viewBox="0 0 583.757812 243.159" xmlns="http://www.w3.org/2000/svg" version="1.1">
 <metadata>
  <rdf:RDF xmlns:dc="http://purl.org/dc/elements/1.1/" xmlns:cc="http://creativecommons.org/ns#" xmlns:rdf="http://www.w3.org/1999/02/22-rdf-syntax-ns#">
   <cc:Work>
    <dc:type rdf:resource="http://purl.org/dc/dcmitype/StillImage"/>
    <dc:date>2025-02-07T10:56:20.446442</dc:date>
    <dc:format>image/svg+xml</dc:format>
    <dc:creator>
     <cc:Agent>
      <dc:title>Matplotlib v3.6.0, https://matplotlib.org/</dc:title>
     </cc:Agent>
    </dc:creator>
   </cc:Work>
  </rdf:RDF>
 </metadata>
 <defs>
  <style type="text/css">*{stroke-linejoin: round; stroke-linecap: butt}</style>
 </defs>
 <g id="figure_1">
  <g id="patch_1">
   <path d="M 0 243.159 
L 583.757812 243.159 
L 583.757812 0 
L 0 0 
L 0 243.159 
z
" style="fill: none"/>
  </g>
  <g id="axes_1">
   <g id="patch_2">
    <path d="M 25.757812 213.513688 
L 279.394176 213.513688 
L 279.394176 13.929687 
L 25.757812 13.929687 
L 25.757812 213.513688 
z
" style="fill: none"/>
   </g>
   <g id="matplotlib.axis_1">
    <g id="xtick_1">
     <g id="line2d_1">
      <path d="M 25.757812 213.513688 
L 25.757812 13.929687 
" clip-path="url(#pb567d58736)" style="fill: none; stroke-dasharray: 1.85,0.8; stroke-dashoffset: 0; stroke: #4e616c; stroke-width: 0.5"/>
     </g>
     <g id="line2d_2">
      <defs>
       <path id="mbd563ae4a7" d="M 0 0 
L 0 4 
" style="stroke: #262626"/>
      </defs>
      <g>
       <use xlink:href="#mbd563ae4a7" x="25.757812" y="213.513688" style="fill: #262626; stroke: #262626"/>
      </g>
     </g>
     <g id="text_1">
      <!-- 0 -->
      <g style="fill: #262626" transform="translate(23.257812 227.957437) scale(0.1 -0.1)">
       <defs>
        <path id="TimesNewRomanPSMT-30" d="M 231 2094 
Q 231 2819 450 3342 
Q 669 3866 1031 4122 
Q 1313 4325 1613 4325 
Q 2100 4325 2488 3828 
Q 2972 3213 2972 2159 
Q 2972 1422 2759 906 
Q 2547 391 2217 158 
Q 1888 -75 1581 -75 
Q 975 -75 572 641 
Q 231 1244 231 2094 
z
M 844 2016 
Q 844 1141 1059 588 
Q 1238 122 1591 122 
Q 1759 122 1940 273 
Q 2122 425 2216 781 
Q 2359 1319 2359 2297 
Q 2359 3022 2209 3506 
Q 2097 3866 1919 4016 
Q 1791 4119 1609 4119 
Q 1397 4119 1231 3928 
Q 1006 3669 925 3112 
Q 844 2556 844 2016 
z
" transform="scale(0.015625)"/>
       </defs>
       <use xlink:href="#TimesNewRomanPSMT-30"/>
      </g>
     </g>
    </g>
    <g id="xtick_2">
     <g id="line2d_3">
      <path d="M 64.187565 213.513688 
L 64.187565 13.929687 
" clip-path="url(#pb567d58736)" style="fill: none; stroke-dasharray: 1.85,0.8; stroke-dashoffset: 0; stroke: #4e616c; stroke-width: 0.5"/>
     </g>
     <g id="line2d_4">
      <g>
       <use xlink:href="#mbd563ae4a7" x="64.187565" y="213.513688" style="fill: #262626; stroke: #262626"/>
      </g>
     </g>
     <g id="text_2">
      <!-- 5 -->
      <g style="fill: #262626" transform="translate(61.687565 227.957437) scale(0.1 -0.1)">
       <defs>
        <path id="TimesNewRomanPSMT-35" d="M 2778 4238 
L 2534 3706 
L 1259 3706 
L 981 3138 
Q 1809 3016 2294 2522 
Q 2709 2097 2709 1522 
Q 2709 1188 2573 903 
Q 2438 619 2231 419 
Q 2025 219 1772 97 
Q 1413 -75 1034 -75 
Q 653 -75 479 54 
Q 306 184 306 341 
Q 306 428 378 495 
Q 450 563 559 563 
Q 641 563 702 538 
Q 763 513 909 409 
Q 1144 247 1384 247 
Q 1750 247 2026 523 
Q 2303 800 2303 1197 
Q 2303 1581 2056 1914 
Q 1809 2247 1375 2428 
Q 1034 2569 447 2591 
L 1259 4238 
L 2778 4238 
z
" transform="scale(0.015625)"/>
       </defs>
       <use xlink:href="#TimesNewRomanPSMT-35"/>
      </g>
     </g>
    </g>
    <g id="xtick_3">
     <g id="line2d_5">
      <path d="M 102.617317 213.513688 
L 102.617317 13.929687 
" clip-path="url(#pb567d58736)" style="fill: none; stroke-dasharray: 1.85,0.8; stroke-dashoffset: 0; stroke: #4e616c; stroke-width: 0.5"/>
     </g>
     <g id="line2d_6">
      <g>
       <use xlink:href="#mbd563ae4a7" x="102.617317" y="213.513688" style="fill: #262626; stroke: #262626"/>
      </g>
     </g>
     <g id="text_3">
      <!-- 10 -->
      <g style="fill: #262626" transform="translate(97.617317 227.957437) scale(0.1 -0.1)">
       <defs>
        <path id="TimesNewRomanPSMT-31" d="M 750 3822 
L 1781 4325 
L 1884 4325 
L 1884 747 
Q 1884 391 1914 303 
Q 1944 216 2037 169 
Q 2131 122 2419 116 
L 2419 0 
L 825 0 
L 825 116 
Q 1125 122 1212 167 
Q 1300 213 1334 289 
Q 1369 366 1369 747 
L 1369 3034 
Q 1369 3497 1338 3628 
Q 1316 3728 1258 3775 
Q 1200 3822 1119 3822 
Q 1003 3822 797 3725 
L 750 3822 
z
" transform="scale(0.015625)"/>
       </defs>
       <use xlink:href="#TimesNewRomanPSMT-31"/>
       <use xlink:href="#TimesNewRomanPSMT-30" x="50"/>
      </g>
     </g>
    </g>
    <g id="xtick_4">
     <g id="line2d_7">
      <path d="M 141.047069 213.513688 
L 141.047069 13.929687 
" clip-path="url(#pb567d58736)" style="fill: none; stroke-dasharray: 1.85,0.8; stroke-dashoffset: 0; stroke: #4e616c; stroke-width: 0.5"/>
     </g>
     <g id="line2d_8">
      <g>
       <use xlink:href="#mbd563ae4a7" x="141.047069" y="213.513688" style="fill: #262626; stroke: #262626"/>
      </g>
     </g>
     <g id="text_4">
      <!-- 15 -->
      <g style="fill: #262626" transform="translate(136.047069 227.957437) scale(0.1 -0.1)">
       <use xlink:href="#TimesNewRomanPSMT-31"/>
       <use xlink:href="#TimesNewRomanPSMT-35" x="50"/>
      </g>
     </g>
    </g>
    <g id="xtick_5">
     <g id="line2d_9">
      <path d="M 179.476821 213.513688 
L 179.476821 13.929687 
" clip-path="url(#pb567d58736)" style="fill: none; stroke-dasharray: 1.85,0.8; stroke-dashoffset: 0; stroke: #4e616c; stroke-width: 0.5"/>
     </g>
     <g id="line2d_10">
      <g>
       <use xlink:href="#mbd563ae4a7" x="179.476821" y="213.513688" style="fill: #262626; stroke: #262626"/>
      </g>
     </g>
     <g id="text_5">
      <!-- 20 -->
      <g style="fill: #262626" transform="translate(174.476821 227.957437) scale(0.1 -0.1)">
       <defs>
        <path id="TimesNewRomanPSMT-32" d="M 2934 816 
L 2638 0 
L 138 0 
L 138 116 
Q 1241 1122 1691 1759 
Q 2141 2397 2141 2925 
Q 2141 3328 1894 3587 
Q 1647 3847 1303 3847 
Q 991 3847 742 3664 
Q 494 3481 375 3128 
L 259 3128 
Q 338 3706 661 4015 
Q 984 4325 1469 4325 
Q 1984 4325 2329 3994 
Q 2675 3663 2675 3213 
Q 2675 2891 2525 2569 
Q 2294 2063 1775 1497 
Q 997 647 803 472 
L 1909 472 
Q 2247 472 2383 497 
Q 2519 522 2628 598 
Q 2738 675 2819 816 
L 2934 816 
z
" transform="scale(0.015625)"/>
       </defs>
       <use xlink:href="#TimesNewRomanPSMT-32"/>
       <use xlink:href="#TimesNewRomanPSMT-30" x="50"/>
      </g>
     </g>
    </g>
    <g id="xtick_6">
     <g id="line2d_11">
      <path d="M 217.906573 213.513688 
L 217.906573 13.929687 
" clip-path="url(#pb567d58736)" style="fill: none; stroke-dasharray: 1.85,0.8; stroke-dashoffset: 0; stroke: #4e616c; stroke-width: 0.5"/>
     </g>
     <g id="line2d_12">
      <g>
       <use xlink:href="#mbd563ae4a7" x="217.906573" y="213.513688" style="fill: #262626; stroke: #262626"/>
      </g>
     </g>
     <g id="text_6">
      <!-- 25 -->
      <g style="fill: #262626" transform="translate(212.906573 227.957437) scale(0.1 -0.1)">
       <use xlink:href="#TimesNewRomanPSMT-32"/>
       <use xlink:href="#TimesNewRomanPSMT-35" x="50"/>
      </g>
     </g>
    </g>
    <g id="xtick_7">
     <g id="line2d_13">
      <path d="M 256.336325 213.513688 
L 256.336325 13.929687 
" clip-path="url(#pb567d58736)" style="fill: none; stroke-dasharray: 1.85,0.8; stroke-dashoffset: 0; stroke: #4e616c; stroke-width: 0.5"/>
     </g>
     <g id="line2d_14">
      <g>
       <use xlink:href="#mbd563ae4a7" x="256.336325" y="213.513688" style="fill: #262626; stroke: #262626"/>
      </g>
     </g>
     <g id="text_7">
      <!-- 30 -->
      <g style="fill: #262626" transform="translate(251.336325 227.957437) scale(0.1 -0.1)">
       <defs>
        <path id="TimesNewRomanPSMT-33" d="M 325 3431 
Q 506 3859 782 4092 
Q 1059 4325 1472 4325 
Q 1981 4325 2253 3994 
Q 2459 3747 2459 3466 
Q 2459 3003 1878 2509 
Q 2269 2356 2469 2072 
Q 2669 1788 2669 1403 
Q 2669 853 2319 450 
Q 1863 -75 997 -75 
Q 569 -75 414 31 
Q 259 138 259 259 
Q 259 350 332 419 
Q 406 488 509 488 
Q 588 488 669 463 
Q 722 447 909 348 
Q 1097 250 1169 231 
Q 1284 197 1416 197 
Q 1734 197 1970 444 
Q 2206 691 2206 1028 
Q 2206 1275 2097 1509 
Q 2016 1684 1919 1775 
Q 1784 1900 1550 2001 
Q 1316 2103 1072 2103 
L 972 2103 
L 972 2197 
Q 1219 2228 1467 2375 
Q 1716 2522 1828 2728 
Q 1941 2934 1941 3181 
Q 1941 3503 1739 3701 
Q 1538 3900 1238 3900 
Q 753 3900 428 3381 
L 325 3431 
z
" transform="scale(0.015625)"/>
       </defs>
       <use xlink:href="#TimesNewRomanPSMT-33"/>
       <use xlink:href="#TimesNewRomanPSMT-30" x="50"/>
      </g>
     </g>
    </g>
    <g id="text_8">
     <!-- 主成分号 -->
     <g style="fill: #262626" transform="translate(132.575994 241.869937) scale(0.1 -0.1)">
      <defs>
       <path id="SimSun-4e3b" d="M 2450 5100 
Q 3125 4750 3337 4562 
Q 3550 4375 3550 4200 
Q 3550 4075 3437 3925 
Q 3325 3775 3275 3775 
Q 3175 3775 3100 4025 
Q 2975 4400 2400 5025 
L 2450 5100 
z
M 675 3675 
L 4900 3675 
L 5275 4050 
L 5800 3525 
L 3375 3525 
L 3375 1900 
L 4525 1900 
L 4875 2250 
L 5375 1750 
L 3375 1750 
L 3375 -100 
L 5100 -100 
L 5500 300 
L 6050 -250 
L 1125 -250 
Q 800 -250 525 -325 
L 300 -100 
L 3000 -100 
L 3000 1725 
L 1900 1725 
Q 1575 1725 1300 1650 
L 1075 1875 
L 3000 1875 
L 3000 3525 
L 1500 3525 
Q 1175 3525 900 3450 
L 675 3675 
z
" transform="scale(0.015625)"/>
       <path id="SimSun-6210" d="M 4325 5075 
Q 4850 4775 5025 4612 
Q 5200 4450 5162 4287 
Q 5125 4125 5025 4062 
Q 4925 4000 4900 4000 
Q 4800 4000 4750 4200 
Q 4675 4475 4250 5000 
L 4325 5075 
z
M 5625 100 
L 5925 1175 
L 6025 1150 
Q 5925 375 5925 125 
Q 5925 -125 6050 -350 
Q 6100 -450 6000 -450 
Q 5825 -450 5350 -275 
Q 4875 -100 4250 675 
Q 3475 -125 2550 -525 
L 2525 -425 
Q 3525 225 4050 950 
Q 3550 1875 3400 3650 
L 1425 3650 
L 1400 2450 
L 2550 2450 
L 2775 2700 
L 3150 2350 
L 2925 2175 
Q 2850 675 2725 437 
Q 2600 200 2250 50 
Q 2175 400 1575 625 
L 1575 725 
Q 2050 650 2237 625 
Q 2425 600 2475 837 
Q 2525 1075 2575 2300 
L 1400 2300 
Q 1325 225 350 -600 
L 300 -525 
Q 950 400 987 1462 
Q 1025 2525 1025 3075 
Q 1025 3625 1000 4025 
L 1450 3800 
L 3375 3800 
Q 3300 4625 3250 5150 
L 3900 4900 
L 3725 4700 
Q 3725 4300 3775 3800 
L 5150 3800 
L 5500 4150 
L 6000 3650 
L 3775 3650 
Q 3925 2000 4300 1325 
Q 4500 1625 4700 2100 
Q 4900 2575 5100 3175 
L 5625 2775 
L 5400 2650 
Q 4975 1625 4525 975 
Q 5050 350 5625 100 
z
" transform="scale(0.015625)"/>
       <path id="SimSun-5206" d="M 2350 5050 
L 2850 4675 
L 2625 4550 
Q 2200 3750 1687 3125 
Q 1175 2500 375 2025 
L 325 2100 
Q 975 2625 1475 3337 
Q 1975 4050 2350 5050 
z
M 4100 4975 
L 3900 4850 
Q 4175 3850 4800 3300 
Q 5425 2750 6125 2625 
L 6125 2550 
Q 5750 2500 5600 2225 
Q 4775 2675 4287 3425 
Q 3800 4175 3625 5175 
L 4100 4975 
z
M 1375 2625 
L 4225 2625 
L 4475 2875 
L 4825 2525 
L 4625 2375 
Q 4575 400 4375 -12 
Q 4175 -425 3675 -600 
Q 3600 -200 2975 -25 
L 2975 75 
Q 3600 -25 3787 -12 
Q 3975 0 4075 275 
Q 4175 550 4275 2475 
L 2975 2475 
Q 2825 1400 2375 662 
Q 1925 -75 650 -625 
L 600 -525 
Q 1725 50 2112 837 
Q 2500 1625 2575 2475 
L 1800 2475 
L 1575 2425 
L 1375 2625 
z
" transform="scale(0.015625)"/>
       <path id="SimSun-53f7" d="M 4800 4675 
Q 4800 3550 4825 3225 
L 4450 3075 
L 4450 3325 
L 1950 3325 
L 1950 3100 
L 1575 2975 
Q 1600 3475 1600 4037 
Q 1600 4600 1575 5100 
L 1950 4900 
L 4425 4900 
L 4650 5150 
L 5000 4850 
L 4800 4675 
z
M 1950 4750 
L 1950 3475 
L 4450 3475 
L 4450 4750 
L 1950 4750 
z
M 4950 1375 
Q 4725 75 4550 -125 
Q 4375 -325 4200 -412 
Q 4025 -500 3625 -600 
Q 3575 -225 2850 75 
L 2875 175 
Q 3550 -25 3875 -25 
Q 4000 -25 4187 50 
Q 4375 125 4575 1500 
L 2275 1500 
L 2050 1300 
L 1750 1650 
Q 1925 1750 2037 1975 
Q 2150 2200 2250 2550 
L 825 2550 
L 600 2500 
L 400 2700 
L 5225 2700 
L 5550 3025 
L 6000 2550 
L 2675 2550 
L 2325 1650 
L 4550 1650 
L 4825 1925 
L 5200 1550 
L 4950 1375 
z
" transform="scale(0.015625)"/>
      </defs>
      <use xlink:href="#SimSun-4e3b"/>
      <use xlink:href="#SimSun-6210" x="100"/>
      <use xlink:href="#SimSun-5206" x="200"/>
      <use xlink:href="#SimSun-53f7" x="300"/>
     </g>
    </g>
   </g>
   <g id="matplotlib.axis_2">
    <g id="ytick_1">
     <g id="line2d_15">
      <path d="M 25.757812 206.040021 
L 279.394176 206.040021 
" clip-path="url(#pb567d58736)" style="fill: none; stroke-dasharray: 1.85,0.8; stroke-dashoffset: 0; stroke: #4e616c; stroke-width: 0.5"/>
     </g>
     <g id="line2d_16">
      <defs>
       <path id="m845dda1cfc" d="M 0 0 
L -4 0 
" style="stroke: #262626"/>
      </defs>
      <g>
       <use xlink:href="#m845dda1cfc" x="25.757812" y="206.040021" style="fill: #262626; stroke: #262626"/>
      </g>
     </g>
     <g id="text_9">
      <!-- 0 -->
      <g style="fill: #262626" transform="translate(13.257812 209.511896) scale(0.1 -0.1)">
       <use xlink:href="#TimesNewRomanPSMT-30"/>
      </g>
     </g>
    </g>
    <g id="ytick_2">
     <g id="line2d_17">
      <path d="M 25.757812 178.595688 
L 279.394176 178.595688 
" clip-path="url(#pb567d58736)" style="fill: none; stroke-dasharray: 1.85,0.8; stroke-dashoffset: 0; stroke: #4e616c; stroke-width: 0.5"/>
     </g>
     <g id="line2d_18">
      <g>
       <use xlink:href="#m845dda1cfc" x="25.757812" y="178.595688" style="fill: #262626; stroke: #262626"/>
      </g>
     </g>
     <g id="text_10">
      <!-- 1 -->
      <g style="fill: #262626" transform="translate(13.257812 182.067563) scale(0.1 -0.1)">
       <use xlink:href="#TimesNewRomanPSMT-31"/>
      </g>
     </g>
    </g>
    <g id="ytick_3">
     <g id="line2d_19">
      <path d="M 25.757812 151.151355 
L 279.394176 151.151355 
" clip-path="url(#pb567d58736)" style="fill: none; stroke-dasharray: 1.85,0.8; stroke-dashoffset: 0; stroke: #4e616c; stroke-width: 0.5"/>
     </g>
     <g id="line2d_20">
      <g>
       <use xlink:href="#m845dda1cfc" x="25.757812" y="151.151355" style="fill: #262626; stroke: #262626"/>
      </g>
     </g>
     <g id="text_11">
      <!-- 2 -->
      <g style="fill: #262626" transform="translate(13.257812 154.62323) scale(0.1 -0.1)">
       <use xlink:href="#TimesNewRomanPSMT-32"/>
      </g>
     </g>
    </g>
    <g id="ytick_4">
     <g id="line2d_21">
      <path d="M 25.757812 123.707021 
L 279.394176 123.707021 
" clip-path="url(#pb567d58736)" style="fill: none; stroke-dasharray: 1.85,0.8; stroke-dashoffset: 0; stroke: #4e616c; stroke-width: 0.5"/>
     </g>
     <g id="line2d_22">
      <g>
       <use xlink:href="#m845dda1cfc" x="25.757812" y="123.707021" style="fill: #262626; stroke: #262626"/>
      </g>
     </g>
     <g id="text_12">
      <!-- 3 -->
      <g style="fill: #262626" transform="translate(13.257812 127.178896) scale(0.1 -0.1)">
       <use xlink:href="#TimesNewRomanPSMT-33"/>
      </g>
     </g>
    </g>
    <g id="ytick_5">
     <g id="line2d_23">
      <path d="M 25.757812 96.262688 
L 279.394176 96.262688 
" clip-path="url(#pb567d58736)" style="fill: none; stroke-dasharray: 1.85,0.8; stroke-dashoffset: 0; stroke: #4e616c; stroke-width: 0.5"/>
     </g>
     <g id="line2d_24">
      <g>
       <use xlink:href="#m845dda1cfc" x="25.757812" y="96.262688" style="fill: #262626; stroke: #262626"/>
      </g>
     </g>
     <g id="text_13">
      <!-- 4 -->
      <g style="fill: #262626" transform="translate(13.257812 99.734563) scale(0.1 -0.1)">
       <defs>
        <path id="TimesNewRomanPSMT-34" d="M 2978 1563 
L 2978 1119 
L 2409 1119 
L 2409 0 
L 1894 0 
L 1894 1119 
L 100 1119 
L 100 1519 
L 2066 4325 
L 2409 4325 
L 2409 1563 
L 2978 1563 
z
M 1894 1563 
L 1894 3666 
L 406 1563 
L 1894 1563 
z
" transform="scale(0.015625)"/>
       </defs>
       <use xlink:href="#TimesNewRomanPSMT-34"/>
      </g>
     </g>
    </g>
    <g id="ytick_6">
     <g id="line2d_25">
      <path d="M 25.757812 68.818354 
L 279.394176 68.818354 
" clip-path="url(#pb567d58736)" style="fill: none; stroke-dasharray: 1.85,0.8; stroke-dashoffset: 0; stroke: #4e616c; stroke-width: 0.5"/>
     </g>
     <g id="line2d_26">
      <g>
       <use xlink:href="#m845dda1cfc" x="25.757812" y="68.818354" style="fill: #262626; stroke: #262626"/>
      </g>
     </g>
     <g id="text_14">
      <!-- 5 -->
      <g style="fill: #262626" transform="translate(13.257812 72.290229) scale(0.1 -0.1)">
       <use xlink:href="#TimesNewRomanPSMT-35"/>
      </g>
     </g>
    </g>
    <g id="ytick_7">
     <g id="line2d_27">
      <path d="M 25.757812 41.374021 
L 279.394176 41.374021 
" clip-path="url(#pb567d58736)" style="fill: none; stroke-dasharray: 1.85,0.8; stroke-dashoffset: 0; stroke: #4e616c; stroke-width: 0.5"/>
     </g>
     <g id="line2d_28">
      <g>
       <use xlink:href="#m845dda1cfc" x="25.757812" y="41.374021" style="fill: #262626; stroke: #262626"/>
      </g>
     </g>
     <g id="text_15">
      <!-- 6 -->
      <g style="fill: #262626" transform="translate(13.257812 44.845896) scale(0.1 -0.1)">
       <defs>
        <path id="TimesNewRomanPSMT-36" d="M 2869 4325 
L 2869 4209 
Q 2456 4169 2195 4045 
Q 1934 3922 1679 3669 
Q 1425 3416 1258 3105 
Q 1091 2794 978 2366 
Q 1428 2675 1881 2675 
Q 2316 2675 2634 2325 
Q 2953 1975 2953 1425 
Q 2953 894 2631 456 
Q 2244 -75 1606 -75 
Q 1172 -75 869 213 
Q 275 772 275 1663 
Q 275 2231 503 2743 
Q 731 3256 1154 3653 
Q 1578 4050 1965 4187 
Q 2353 4325 2688 4325 
L 2869 4325 
z
M 925 2138 
Q 869 1716 869 1456 
Q 869 1156 980 804 
Q 1091 453 1309 247 
Q 1469 100 1697 100 
Q 1969 100 2183 356 
Q 2397 613 2397 1088 
Q 2397 1622 2184 2012 
Q 1972 2403 1581 2403 
Q 1463 2403 1327 2353 
Q 1191 2303 925 2138 
z
" transform="scale(0.015625)"/>
       </defs>
       <use xlink:href="#TimesNewRomanPSMT-36"/>
      </g>
     </g>
    </g>
    <g id="ytick_8">
     <g id="line2d_29">
      <path d="M 25.757812 13.929687 
L 279.394176 13.929687 
" clip-path="url(#pb567d58736)" style="fill: none; stroke-dasharray: 1.85,0.8; stroke-dashoffset: 0; stroke: #4e616c; stroke-width: 0.5"/>
     </g>
     <g id="line2d_30">
      <g>
       <use xlink:href="#m845dda1cfc" x="25.757812" y="13.929687" style="fill: #262626; stroke: #262626"/>
      </g>
     </g>
     <g id="text_16">
      <!-- 7 -->
      <g style="fill: #262626" transform="translate(13.257812 17.401562) scale(0.1 -0.1)">
       <defs>
        <path id="TimesNewRomanPSMT-37" d="M 644 4238 
L 2916 4238 
L 2916 4119 
L 1503 -88 
L 1153 -88 
L 2419 3728 
L 1253 3728 
Q 900 3728 750 3644 
Q 488 3500 328 3200 
L 238 3234 
L 644 4238 
z
" transform="scale(0.015625)"/>
       </defs>
       <use xlink:href="#TimesNewRomanPSMT-37"/>
      </g>
     </g>
    </g>
    <g id="text_17">
     <!-- 特征值 -->
     <g style="fill: #262626" transform="translate(7.96875 128.721687) rotate(-90) scale(0.1 -0.1)">
      <defs>
       <path id="SimSun-7279" d="M 2600 4225 
L 3800 4225 
Q 3800 4875 3775 5275 
L 4325 5050 
L 4150 4900 
L 4150 4225 
L 4850 4225 
L 5200 4525 
L 5625 4075 
L 4150 4075 
L 4150 3025 
L 5300 3025 
L 5675 3375 
L 6125 2875 
L 3100 2875 
Q 2775 2875 2500 2800 
L 2275 3025 
L 3800 3025 
L 3800 4075 
L 3425 4075 
Q 3100 4075 2825 4000 
L 2600 4225 
z
M 3475 50 
Q 4050 0 4275 0 
Q 4400 0 4487 25 
Q 4575 50 4575 225 
L 4575 1800 
L 3200 1800 
Q 2875 1800 2600 1725 
L 2375 1950 
L 4575 1950 
Q 4575 2550 4550 2825 
L 5125 2550 
L 4925 2375 
L 4925 1950 
L 5400 1950 
L 5725 2275 
L 6175 1800 
L 4925 1800 
L 4925 150 
Q 4950 -425 4325 -600 
Q 4300 -225 3475 -50 
L 3475 50 
z
M 2875 1550 
Q 3325 1250 3475 1062 
Q 3625 875 3625 750 
Q 3625 625 3512 475 
Q 3400 325 3350 325 
Q 3275 325 3200 625 
Q 3100 1050 2800 1500 
L 2875 1550 
z
M 1475 -650 
Q 1500 -175 1500 1625 
Q 1150 1425 775 1200 
L 625 975 
L 300 1450 
Q 550 1500 1500 1900 
L 1500 3275 
L 800 3275 
Q 600 2725 325 2275 
L 250 2325 
Q 450 2950 550 3537 
Q 650 4125 650 4450 
L 1200 4250 
Q 1050 4150 975 3900 
Q 900 3650 825 3425 
L 1500 3425 
Q 1500 4850 1475 5225 
L 2050 4950 
L 1850 4775 
L 1850 3425 
L 2150 3425 
L 2450 3725 
L 2875 3275 
L 1850 3275 
L 1850 2075 
L 2750 2450 
L 2800 2375 
L 1850 1825 
Q 1850 -75 1875 -500 
L 1475 -650 
z
" transform="scale(0.015625)"/>
       <path id="SimSun-5f81" d="M 1600 5200 
L 2075 4825 
L 1825 4700 
Q 900 3550 400 3225 
L 350 3300 
Q 775 3750 1100 4262 
Q 1425 4775 1600 5200 
z
M 1600 2600 
L 1600 -475 
L 1225 -650 
Q 1250 -125 1250 400 
L 1250 2200 
Q 850 1750 375 1400 
L 325 1475 
Q 775 1925 1250 2625 
Q 1725 3325 1975 3950 
L 2425 3550 
L 2200 3450 
Q 1875 3025 1600 2600 
z
M 2750 2200 
Q 2750 2650 2725 3125 
L 3300 2825 
L 3075 2625 
L 3075 25 
L 4000 25 
L 4000 4450 
L 3200 4450 
Q 2875 4450 2600 4375 
L 2375 4600 
L 5175 4600 
L 5500 4925 
L 5975 4450 
L 4325 4450 
L 4325 2500 
L 5125 2500 
L 5425 2800 
L 5875 2350 
L 4325 2350 
L 4325 25 
L 5250 25 
L 5600 375 
L 6100 -125 
L 2600 -125 
Q 2275 -125 2000 -200 
L 1775 25 
L 2750 25 
L 2750 2200 
z
" transform="scale(0.015625)"/>
       <path id="SimSun-503c" d="M 1525 650 
Q 1525 -225 1550 -525 
L 1175 -650 
Q 1200 250 1200 550 
L 1200 3025 
Q 750 2300 325 1850 
L 250 1900 
Q 725 2625 1100 3525 
Q 1475 4425 1675 5200 
L 2200 4875 
L 1950 4725 
Q 1550 3800 1425 3475 
L 1725 3300 
L 1525 3150 
L 1525 650 
z
M 2875 3225 
L 2875 2475 
L 4800 2475 
L 4800 3225 
L 2875 3225 
z
M 2875 2325 
L 2875 1575 
L 4800 1575 
L 4800 2325 
L 2875 2325 
z
M 2875 1425 
L 2875 675 
L 4800 675 
L 4800 1425 
L 2875 1425 
z
M 2875 525 
L 2875 -225 
L 4800 -225 
L 4800 525 
L 2875 525 
z
M 3550 4250 
Q 3575 4825 3550 5225 
L 4125 4950 
L 3925 4800 
L 3900 4250 
L 5025 4250 
L 5350 4575 
L 5825 4100 
L 3900 4100 
L 3875 3375 
L 4750 3375 
L 4975 3625 
L 5350 3300 
L 5125 3150 
L 5125 -225 
L 5350 -225 
L 5675 100 
L 6150 -375 
L 2450 -375 
Q 2125 -375 1850 -450 
L 1625 -225 
L 2550 -225 
L 2550 2550 
Q 2550 2850 2525 3575 
L 2875 3375 
L 3525 3375 
L 3550 4100 
L 2800 4100 
Q 2475 4100 2200 4025 
L 1975 4250 
L 3550 4250 
z
" transform="scale(0.015625)"/>
      </defs>
      <use xlink:href="#SimSun-7279"/>
      <use xlink:href="#SimSun-5f81" x="100"/>
      <use xlink:href="#SimSun-503c" x="200"/>
     </g>
    </g>
   </g>
   <g id="line2d_31">
    <path d="M 33.443763 47.610019 
L 41.129713 80.654716 
L 48.815664 141.000581 
L 56.501614 155.361514 
L 64.187565 158.689469 
L 71.873515 168.153293 
L 79.559465 170.968256 
L 87.245416 173.502841 
L 94.931366 175.627684 
L 102.617317 178.884246 
L 110.303267 179.06134 
L 117.989217 179.504509 
L 125.675168 182.367192 
L 133.361118 183.700298 
L 141.047069 184.953922 
L 148.733019 186.822571 
L 156.41897 188.360365 
L 164.10492 190.332998 
L 171.79087 191.438955 
L 179.476821 192.126574 
L 187.162771 193.312491 
L 194.848722 195.149994 
L 202.534672 196.499717 
L 210.220622 197.208894 
L 217.906573 198.730585 
L 225.592523 200.421574 
L 233.278474 201.476583 
L 240.964424 203.152134 
L 248.650374 204.364512 
L 256.336325 204.802324 
L 264.022275 205.208353 
L 271.708226 205.613513 
" clip-path="url(#pb567d58736)" style="fill: none; stroke: #808080; stroke-opacity: 0.8; stroke-width: 2; stroke-linecap: round"/>
    <defs>
     <path id="m14302cc5e5" d="M 0 2.5 
C 0.663008 2.5 1.29895 2.236584 1.767767 1.767767 
C 2.236584 1.29895 2.5 0.663008 2.5 0 
C 2.5 -0.663008 2.236584 -1.29895 1.767767 -1.767767 
C 1.29895 -2.236584 0.663008 -2.5 0 -2.5 
C -0.663008 -2.5 -1.29895 -2.236584 -1.767767 -1.767767 
C -2.236584 -1.29895 -2.5 -0.663008 -2.5 0 
C -2.5 0.663008 -2.236584 1.29895 -1.767767 1.767767 
C -1.29895 2.236584 -0.663008 2.5 0 2.5 
z
" style="stroke: #000000; stroke-opacity: 0.8"/>
    </defs>
    <g clip-path="url(#pb567d58736)">
     <use xlink:href="#m14302cc5e5" x="33.443763" y="47.610019" style="fill: #808080; fill-opacity: 0.8; stroke: #000000; stroke-opacity: 0.8"/>
     <use xlink:href="#m14302cc5e5" x="41.129713" y="80.654716" style="fill: #808080; fill-opacity: 0.8; stroke: #000000; stroke-opacity: 0.8"/>
     <use xlink:href="#m14302cc5e5" x="48.815664" y="141.000581" style="fill: #808080; fill-opacity: 0.8; stroke: #000000; stroke-opacity: 0.8"/>
     <use xlink:href="#m14302cc5e5" x="56.501614" y="155.361514" style="fill: #808080; fill-opacity: 0.8; stroke: #000000; stroke-opacity: 0.8"/>
     <use xlink:href="#m14302cc5e5" x="64.187565" y="158.689469" style="fill: #808080; fill-opacity: 0.8; stroke: #000000; stroke-opacity: 0.8"/>
     <use xlink:href="#m14302cc5e5" x="71.873515" y="168.153293" style="fill: #808080; fill-opacity: 0.8; stroke: #000000; stroke-opacity: 0.8"/>
     <use xlink:href="#m14302cc5e5" x="79.559465" y="170.968256" style="fill: #808080; fill-opacity: 0.8; stroke: #000000; stroke-opacity: 0.8"/>
     <use xlink:href="#m14302cc5e5" x="87.245416" y="173.502841" style="fill: #808080; fill-opacity: 0.8; stroke: #000000; stroke-opacity: 0.8"/>
     <use xlink:href="#m14302cc5e5" x="94.931366" y="175.627684" style="fill: #808080; fill-opacity: 0.8; stroke: #000000; stroke-opacity: 0.8"/>
     <use xlink:href="#m14302cc5e5" x="102.617317" y="178.884246" style="fill: #808080; fill-opacity: 0.8; stroke: #000000; stroke-opacity: 0.8"/>
     <use xlink:href="#m14302cc5e5" x="110.303267" y="179.06134" style="fill: #808080; fill-opacity: 0.8; stroke: #000000; stroke-opacity: 0.8"/>
     <use xlink:href="#m14302cc5e5" x="117.989217" y="179.504509" style="fill: #808080; fill-opacity: 0.8; stroke: #000000; stroke-opacity: 0.8"/>
     <use xlink:href="#m14302cc5e5" x="125.675168" y="182.367192" style="fill: #808080; fill-opacity: 0.8; stroke: #000000; stroke-opacity: 0.8"/>
     <use xlink:href="#m14302cc5e5" x="133.361118" y="183.700298" style="fill: #808080; fill-opacity: 0.8; stroke: #000000; stroke-opacity: 0.8"/>
     <use xlink:href="#m14302cc5e5" x="141.047069" y="184.953922" style="fill: #808080; fill-opacity: 0.8; stroke: #000000; stroke-opacity: 0.8"/>
     <use xlink:href="#m14302cc5e5" x="148.733019" y="186.822571" style="fill: #808080; fill-opacity: 0.8; stroke: #000000; stroke-opacity: 0.8"/>
     <use xlink:href="#m14302cc5e5" x="156.41897" y="188.360365" style="fill: #808080; fill-opacity: 0.8; stroke: #000000; stroke-opacity: 0.8"/>
     <use xlink:href="#m14302cc5e5" x="164.10492" y="190.332998" style="fill: #808080; fill-opacity: 0.8; stroke: #000000; stroke-opacity: 0.8"/>
     <use xlink:href="#m14302cc5e5" x="171.79087" y="191.438955" style="fill: #808080; fill-opacity: 0.8; stroke: #000000; stroke-opacity: 0.8"/>
     <use xlink:href="#m14302cc5e5" x="179.476821" y="192.126574" style="fill: #808080; fill-opacity: 0.8; stroke: #000000; stroke-opacity: 0.8"/>
     <use xlink:href="#m14302cc5e5" x="187.162771" y="193.312491" style="fill: #808080; fill-opacity: 0.8; stroke: #000000; stroke-opacity: 0.8"/>
     <use xlink:href="#m14302cc5e5" x="194.848722" y="195.149994" style="fill: #808080; fill-opacity: 0.8; stroke: #000000; stroke-opacity: 0.8"/>
     <use xlink:href="#m14302cc5e5" x="202.534672" y="196.499717" style="fill: #808080; fill-opacity: 0.8; stroke: #000000; stroke-opacity: 0.8"/>
     <use xlink:href="#m14302cc5e5" x="210.220622" y="197.208894" style="fill: #808080; fill-opacity: 0.8; stroke: #000000; stroke-opacity: 0.8"/>
     <use xlink:href="#m14302cc5e5" x="217.906573" y="198.730585" style="fill: #808080; fill-opacity: 0.8; stroke: #000000; stroke-opacity: 0.8"/>
     <use xlink:href="#m14302cc5e5" x="225.592523" y="200.421574" style="fill: #808080; fill-opacity: 0.8; stroke: #000000; stroke-opacity: 0.8"/>
     <use xlink:href="#m14302cc5e5" x="233.278474" y="201.476583" style="fill: #808080; fill-opacity: 0.8; stroke: #000000; stroke-opacity: 0.8"/>
     <use xlink:href="#m14302cc5e5" x="240.964424" y="203.152134" style="fill: #808080; fill-opacity: 0.8; stroke: #000000; stroke-opacity: 0.8"/>
     <use xlink:href="#m14302cc5e5" x="248.650374" y="204.364512" style="fill: #808080; fill-opacity: 0.8; stroke: #000000; stroke-opacity: 0.8"/>
     <use xlink:href="#m14302cc5e5" x="256.336325" y="204.802324" style="fill: #808080; fill-opacity: 0.8; stroke: #000000; stroke-opacity: 0.8"/>
     <use xlink:href="#m14302cc5e5" x="264.022275" y="205.208353" style="fill: #808080; fill-opacity: 0.8; stroke: #000000; stroke-opacity: 0.8"/>
     <use xlink:href="#m14302cc5e5" x="271.708226" y="205.613513" style="fill: #808080; fill-opacity: 0.8; stroke: #000000; stroke-opacity: 0.8"/>
    </g>
   </g>
   <g id="patch_3">
    <path d="M 25.757812 213.513687 
L 25.757812 13.929687 
" style="fill: none; stroke: #000000; stroke-linejoin: miter; stroke-linecap: square"/>
   </g>
   <g id="patch_4">
    <path d="M 279.394176 213.513687 
L 279.394176 13.929687 
" style="fill: none; stroke: #000000; stroke-linejoin: miter; stroke-linecap: square"/>
   </g>
   <g id="patch_5">
    <path d="M 25.757812 213.513688 
L 279.394176 213.513688 
" style="fill: none; stroke: #000000; stroke-linejoin: miter; stroke-linecap: square"/>
   </g>
   <g id="patch_6">
    <path d="M 25.757812 13.929687 
L 279.394176 13.929687 
" style="fill: none; stroke: #000000; stroke-linejoin: miter; stroke-linecap: square"/>
   </g>
   <g id="text_18">
    <!-- 碎石图 -->
    <g style="fill: #262626" transform="translate(137.575994 7.929687) scale(0.1 -0.1)">
     <defs>
      <path id="SimSun-788e" d="M 3775 5225 
Q 4250 5000 4362 4875 
Q 4475 4750 4475 4675 
Q 4475 4525 4275 4350 
L 5250 4350 
L 5550 4650 
L 5975 4200 
L 3425 4200 
Q 3100 4200 2825 4125 
L 2600 4350 
L 4100 4350 
Q 4050 4825 3725 5175 
L 3775 5225 
z
M 3275 4100 
L 3800 3850 
L 3600 3750 
Q 3475 3475 3350 3175 
Q 3900 2800 3912 2612 
Q 3925 2425 3837 2312 
Q 3750 2200 3700 2200 
Q 3625 2200 3575 2450 
Q 3475 2800 3300 3050 
Q 2975 2400 2500 1875 
L 2425 1925 
Q 3075 2950 3275 4100 
z
M 4900 4100 
L 5375 3825 
L 5175 3700 
Q 5050 3450 4950 3200 
Q 5425 2950 5550 2800 
Q 5675 2650 5675 2575 
Q 5675 2475 5575 2337 
Q 5475 2200 5450 2200 
Q 5375 2200 5300 2450 
Q 5200 2800 4900 3100 
Q 4625 2550 4275 2175 
L 4200 2225 
Q 4700 3075 4900 4100 
z
M 2325 1400 
L 3900 1400 
Q 3900 1900 3875 2250 
L 4425 2000 
L 4225 1850 
L 4225 1400 
L 5350 1400 
L 5675 1700 
L 6100 1250 
L 4225 1250 
Q 4225 -50 4250 -450 
L 3875 -650 
Q 3900 550 3900 1250 
L 3150 1250 
Q 2825 1250 2550 1175 
L 2325 1400 
z
M 1225 2650 
L 1225 625 
L 1900 625 
L 1900 2650 
L 1225 2650 
z
M 875 -350 
Q 900 850 900 2250 
Q 575 1725 275 1425 
L 225 1500 
Q 850 2400 1275 4275 
L 1100 4275 
Q 775 4275 500 4200 
L 275 4425 
L 1900 4425 
L 2175 4700 
L 2575 4275 
L 1650 4275 
Q 1325 3175 1200 2875 
L 1300 2800 
L 1875 2800 
L 2025 3000 
L 2425 2725 
L 2225 2575 
Q 2225 1000 2250 225 
L 1900 75 
L 1900 475 
L 1225 475 
L 1225 -200 
L 875 -350 
z
" transform="scale(0.015625)"/>
      <path id="SimSun-77f3" d="M 2375 2375 
L 2375 425 
L 4800 425 
L 4800 2375 
L 2375 2375 
z
M 2000 -550 
Q 2025 125 2025 2400 
Q 1250 1425 325 850 
L 275 925 
Q 1175 1700 1775 2600 
Q 2375 3500 2725 4400 
L 1125 4400 
Q 925 4400 650 4325 
L 425 4550 
L 5175 4550 
L 5575 4925 
L 6075 4400 
L 3175 4400 
Q 2700 3400 2200 2625 
L 2400 2525 
L 4750 2525 
L 4950 2800 
L 5375 2450 
L 5150 2275 
Q 5150 350 5175 -250 
L 4800 -400 
L 4800 275 
L 2375 275 
L 2375 -350 
L 2000 -550 
z
" transform="scale(0.015625)"/>
      <path id="SimSun-56fe" d="M 5675 4700 
L 5675 550 
Q 5675 50 5700 -350 
L 5325 -550 
L 5325 -50 
L 1250 -50 
L 1250 -450 
L 875 -600 
Q 900 -100 900 425 
L 900 4200 
Q 900 4625 875 5150 
L 1250 4925 
L 5275 4925 
L 5450 5175 
L 5850 4850 
L 5675 4700 
z
M 1250 4775 
L 1250 1700 
Q 2425 2200 3075 2825 
Q 2750 3275 2500 3850 
Q 2100 3225 1650 2800 
L 1575 2850 
Q 1975 3375 2250 3937 
Q 2525 4500 2575 4775 
L 1250 4775 
z
M 1250 100 
L 5325 100 
L 5325 4775 
L 2625 4775 
L 3050 4550 
L 2900 4475 
Q 2750 4250 2675 4125 
L 4000 4125 
L 4175 4350 
L 4550 4000 
L 4350 3875 
Q 3925 3275 3475 2775 
Q 4250 2200 5250 2100 
L 5250 2000 
Q 4875 1975 4775 1700 
Q 3900 2025 3250 2600 
Q 2375 1900 1250 1575 
L 1250 100 
z
M 2600 3975 
Q 2950 3350 3275 3000 
Q 3625 3400 3975 3975 
L 2600 3975 
z
M 2750 2050 
Q 3350 1925 3600 1825 
Q 3850 1725 3825 1487 
Q 3800 1250 3725 1250 
Q 3650 1250 3550 1375 
Q 3300 1625 2725 1975 
L 2750 2050 
z
M 2275 1150 
Q 3425 1025 3787 912 
Q 4150 800 4175 525 
Q 4200 250 4075 250 
Q 4000 250 3825 400 
Q 3450 700 2275 1050 
L 2275 1150 
z
" transform="scale(0.015625)"/>
     </defs>
     <use xlink:href="#SimSun-788e"/>
     <use xlink:href="#SimSun-77f3" x="100"/>
     <use xlink:href="#SimSun-56fe" x="200"/>
    </g>
   </g>
  </g>
  <g id="axes_2">
   <g id="patch_7">
    <path d="M 330.121449 213.513688 
L 583.757812 213.513688 
L 583.757812 13.929687 
L 330.121449 13.929687 
L 330.121449 213.513688 
z
" style="fill: none"/>
   </g>
   <g id="matplotlib.axis_3">
    <g id="xtick_8">
     <g id="line2d_32">
      <path d="M 334.212358 213.513688 
L 334.212358 13.929687 
" clip-path="url(#p2126599336)" style="fill: none; stroke-dasharray: 1.85,0.8; stroke-dashoffset: 0; stroke: #4e616c; stroke-width: 0.5"/>
     </g>
     <g id="line2d_33">
      <g>
       <use xlink:href="#mbd563ae4a7" x="334.212358" y="213.513688" style="fill: #262626; stroke: #262626"/>
      </g>
     </g>
     <g id="text_19">
      <!-- 0 -->
      <g style="fill: #262626" transform="translate(331.712358 227.957437) scale(0.1 -0.1)">
       <use xlink:href="#TimesNewRomanPSMT-30"/>
      </g>
     </g>
    </g>
    <g id="xtick_9">
     <g id="line2d_34">
      <path d="M 371.402441 213.513688 
L 371.402441 13.929687 
" clip-path="url(#p2126599336)" style="fill: none; stroke-dasharray: 1.85,0.8; stroke-dashoffset: 0; stroke: #4e616c; stroke-width: 0.5"/>
     </g>
     <g id="line2d_35">
      <g>
       <use xlink:href="#mbd563ae4a7" x="371.402441" y="213.513688" style="fill: #262626; stroke: #262626"/>
      </g>
     </g>
     <g id="text_20">
      <!-- 5 -->
      <g style="fill: #262626" transform="translate(368.902441 227.957437) scale(0.1 -0.1)">
       <use xlink:href="#TimesNewRomanPSMT-35"/>
      </g>
     </g>
    </g>
    <g id="xtick_10">
     <g id="line2d_36">
      <path d="M 408.592523 213.513688 
L 408.592523 13.929687 
" clip-path="url(#p2126599336)" style="fill: none; stroke-dasharray: 1.85,0.8; stroke-dashoffset: 0; stroke: #4e616c; stroke-width: 0.5"/>
     </g>
     <g id="line2d_37">
      <g>
       <use xlink:href="#mbd563ae4a7" x="408.592523" y="213.513688" style="fill: #262626; stroke: #262626"/>
      </g>
     </g>
     <g id="text_21">
      <!-- 10 -->
      <g style="fill: #262626" transform="translate(403.592523 227.957437) scale(0.1 -0.1)">
       <use xlink:href="#TimesNewRomanPSMT-31"/>
       <use xlink:href="#TimesNewRomanPSMT-30" x="50"/>
      </g>
     </g>
    </g>
    <g id="xtick_11">
     <g id="line2d_38">
      <path d="M 445.782606 213.513688 
L 445.782606 13.929687 
" clip-path="url(#p2126599336)" style="fill: none; stroke-dasharray: 1.85,0.8; stroke-dashoffset: 0; stroke: #4e616c; stroke-width: 0.5"/>
     </g>
     <g id="line2d_39">
      <g>
       <use xlink:href="#mbd563ae4a7" x="445.782606" y="213.513688" style="fill: #262626; stroke: #262626"/>
      </g>
     </g>
     <g id="text_22">
      <!-- 15 -->
      <g style="fill: #262626" transform="translate(440.782606 227.957437) scale(0.1 -0.1)">
       <use xlink:href="#TimesNewRomanPSMT-31"/>
       <use xlink:href="#TimesNewRomanPSMT-35" x="50"/>
      </g>
     </g>
    </g>
    <g id="xtick_12">
     <g id="line2d_40">
      <path d="M 482.972689 213.513688 
L 482.972689 13.929687 
" clip-path="url(#p2126599336)" style="fill: none; stroke-dasharray: 1.85,0.8; stroke-dashoffset: 0; stroke: #4e616c; stroke-width: 0.5"/>
     </g>
     <g id="line2d_41">
      <g>
       <use xlink:href="#mbd563ae4a7" x="482.972689" y="213.513688" style="fill: #262626; stroke: #262626"/>
      </g>
     </g>
     <g id="text_23">
      <!-- 20 -->
      <g style="fill: #262626" transform="translate(477.972689 227.957437) scale(0.1 -0.1)">
       <use xlink:href="#TimesNewRomanPSMT-32"/>
       <use xlink:href="#TimesNewRomanPSMT-30" x="50"/>
      </g>
     </g>
    </g>
    <g id="xtick_13">
     <g id="line2d_42">
      <path d="M 520.162771 213.513688 
L 520.162771 13.929687 
" clip-path="url(#p2126599336)" style="fill: none; stroke-dasharray: 1.85,0.8; stroke-dashoffset: 0; stroke: #4e616c; stroke-width: 0.5"/>
     </g>
     <g id="line2d_43">
      <g>
       <use xlink:href="#mbd563ae4a7" x="520.162771" y="213.513688" style="fill: #262626; stroke: #262626"/>
      </g>
     </g>
     <g id="text_24">
      <!-- 25 -->
      <g style="fill: #262626" transform="translate(515.162771 227.957437) scale(0.1 -0.1)">
       <use xlink:href="#TimesNewRomanPSMT-32"/>
       <use xlink:href="#TimesNewRomanPSMT-35" x="50"/>
      </g>
     </g>
    </g>
    <g id="xtick_14">
     <g id="line2d_44">
      <path d="M 557.352854 213.513688 
L 557.352854 13.929687 
" clip-path="url(#p2126599336)" style="fill: none; stroke-dasharray: 1.85,0.8; stroke-dashoffset: 0; stroke: #4e616c; stroke-width: 0.5"/>
     </g>
     <g id="line2d_45">
      <g>
       <use xlink:href="#mbd563ae4a7" x="557.352854" y="213.513688" style="fill: #262626; stroke: #262626"/>
      </g>
     </g>
     <g id="text_25">
      <!-- 30 -->
      <g style="fill: #262626" transform="translate(552.352854 227.957437) scale(0.1 -0.1)">
       <use xlink:href="#TimesNewRomanPSMT-33"/>
       <use xlink:href="#TimesNewRomanPSMT-30" x="50"/>
      </g>
     </g>
    </g>
    <g id="text_26">
     <!-- 主成分号 -->
     <g style="fill: #262626" transform="translate(436.939631 241.869937) scale(0.1 -0.1)">
      <use xlink:href="#SimSun-4e3b"/>
      <use xlink:href="#SimSun-6210" x="100"/>
      <use xlink:href="#SimSun-5206" x="200"/>
      <use xlink:href="#SimSun-53f7" x="300"/>
     </g>
    </g>
   </g>
   <g id="matplotlib.axis_4">
    <g id="ytick_9">
     <g id="line2d_46">
      <path d="M 330.121449 204.529847 
L 583.757812 204.529847 
" clip-path="url(#p2126599336)" style="fill: none; stroke-dasharray: 1.85,0.8; stroke-dashoffset: 0; stroke: #4e616c; stroke-width: 0.5"/>
     </g>
     <g id="line2d_47">
      <g>
       <use xlink:href="#m845dda1cfc" x="330.121449" y="204.529847" style="fill: #262626; stroke: #262626"/>
      </g>
     </g>
     <g id="text_27">
      <!-- 0 -->
      <g style="fill: #262626" transform="translate(317.621449 208.001722) scale(0.1 -0.1)">
       <use xlink:href="#TimesNewRomanPSMT-30"/>
      </g>
     </g>
    </g>
    <g id="ytick_10">
     <g id="line2d_48">
      <path d="M 330.121449 168.224215 
L 583.757812 168.224215 
" clip-path="url(#p2126599336)" style="fill: none; stroke-dasharray: 1.85,0.8; stroke-dashoffset: 0; stroke: #4e616c; stroke-width: 0.5"/>
     </g>
     <g id="line2d_49">
      <g>
       <use xlink:href="#m845dda1cfc" x="330.121449" y="168.224215" style="fill: #262626; stroke: #262626"/>
      </g>
     </g>
     <g id="text_28">
      <!-- 20 -->
      <g style="fill: #262626" transform="translate(312.621449 171.69609) scale(0.1 -0.1)">
       <use xlink:href="#TimesNewRomanPSMT-32"/>
       <use xlink:href="#TimesNewRomanPSMT-30" x="50"/>
      </g>
     </g>
    </g>
    <g id="ytick_11">
     <g id="line2d_50">
      <path d="M 330.121449 131.918583 
L 583.757812 131.918583 
" clip-path="url(#p2126599336)" style="fill: none; stroke-dasharray: 1.85,0.8; stroke-dashoffset: 0; stroke: #4e616c; stroke-width: 0.5"/>
     </g>
     <g id="line2d_51">
      <g>
       <use xlink:href="#m845dda1cfc" x="330.121449" y="131.918583" style="fill: #262626; stroke: #262626"/>
      </g>
     </g>
     <g id="text_29">
      <!-- 40 -->
      <g style="fill: #262626" transform="translate(312.621449 135.390458) scale(0.1 -0.1)">
       <use xlink:href="#TimesNewRomanPSMT-34"/>
       <use xlink:href="#TimesNewRomanPSMT-30" x="50"/>
      </g>
     </g>
    </g>
    <g id="ytick_12">
     <g id="line2d_52">
      <path d="M 330.121449 95.612951 
L 583.757812 95.612951 
" clip-path="url(#p2126599336)" style="fill: none; stroke-dasharray: 1.85,0.8; stroke-dashoffset: 0; stroke: #4e616c; stroke-width: 0.5"/>
     </g>
     <g id="line2d_53">
      <g>
       <use xlink:href="#m845dda1cfc" x="330.121449" y="95.612951" style="fill: #262626; stroke: #262626"/>
      </g>
     </g>
     <g id="text_30">
      <!-- 60 -->
      <g style="fill: #262626" transform="translate(312.621449 99.084826) scale(0.1 -0.1)">
       <use xlink:href="#TimesNewRomanPSMT-36"/>
       <use xlink:href="#TimesNewRomanPSMT-30" x="50"/>
      </g>
     </g>
    </g>
    <g id="ytick_13">
     <g id="line2d_54">
      <path d="M 330.121449 59.307319 
L 583.757812 59.307319 
" clip-path="url(#p2126599336)" style="fill: none; stroke-dasharray: 1.85,0.8; stroke-dashoffset: 0; stroke: #4e616c; stroke-width: 0.5"/>
     </g>
     <g id="line2d_55">
      <g>
       <use xlink:href="#m845dda1cfc" x="330.121449" y="59.307319" style="fill: #262626; stroke: #262626"/>
      </g>
     </g>
     <g id="text_31">
      <!-- 80 -->
      <g style="fill: #262626" transform="translate(312.621449 62.779194) scale(0.1 -0.1)">
       <defs>
        <path id="TimesNewRomanPSMT-38" d="M 1228 2134 
Q 725 2547 579 2797 
Q 434 3047 434 3316 
Q 434 3728 753 4026 
Q 1072 4325 1600 4325 
Q 2113 4325 2425 4047 
Q 2738 3769 2738 3413 
Q 2738 3175 2569 2928 
Q 2400 2681 1866 2347 
Q 2416 1922 2594 1678 
Q 2831 1359 2831 1006 
Q 2831 559 2490 242 
Q 2150 -75 1597 -75 
Q 994 -75 656 303 
Q 388 606 388 966 
Q 388 1247 577 1523 
Q 766 1800 1228 2134 
z
M 1719 2469 
Q 2094 2806 2194 3001 
Q 2294 3197 2294 3444 
Q 2294 3772 2109 3958 
Q 1925 4144 1606 4144 
Q 1288 4144 1088 3959 
Q 888 3775 888 3528 
Q 888 3366 970 3203 
Q 1053 3041 1206 2894 
L 1719 2469 
z
M 1375 2016 
Q 1116 1797 991 1539 
Q 866 1281 866 981 
Q 866 578 1086 336 
Q 1306 94 1647 94 
Q 1984 94 2187 284 
Q 2391 475 2391 747 
Q 2391 972 2272 1150 
Q 2050 1481 1375 2016 
z
" transform="scale(0.015625)"/>
       </defs>
       <use xlink:href="#TimesNewRomanPSMT-38"/>
       <use xlink:href="#TimesNewRomanPSMT-30" x="50"/>
      </g>
     </g>
    </g>
    <g id="ytick_14">
     <g id="line2d_56">
      <path d="M 330.121449 23.001688 
L 583.757812 23.001688 
" clip-path="url(#p2126599336)" style="fill: none; stroke-dasharray: 1.85,0.8; stroke-dashoffset: 0; stroke: #4e616c; stroke-width: 0.5"/>
     </g>
     <g id="line2d_57">
      <g>
       <use xlink:href="#m845dda1cfc" x="330.121449" y="23.001688" style="fill: #262626; stroke: #262626"/>
      </g>
     </g>
     <g id="text_32">
      <!-- 100 -->
      <g style="fill: #262626" transform="translate(307.621449 26.473563) scale(0.1 -0.1)">
       <use xlink:href="#TimesNewRomanPSMT-31"/>
       <use xlink:href="#TimesNewRomanPSMT-30" x="50"/>
       <use xlink:href="#TimesNewRomanPSMT-30" x="100"/>
      </g>
     </g>
    </g>
    <g id="text_33">
     <!-- 方差解释率(%) -->
     <g style="fill: #262626" transform="translate(302.332386 146.221687) rotate(-90) scale(0.1 -0.1)">
      <defs>
       <path id="SimSun-65b9" d="M 275 3925 
L 5250 3925 
L 5625 4300 
L 6150 3775 
L 3075 3775 
Q 3050 3300 2950 2675 
L 4575 2675 
L 4825 2925 
L 5225 2550 
L 4975 2400 
Q 4725 475 4625 125 
Q 4525 -225 4312 -362 
Q 4100 -500 3725 -600 
Q 3625 -200 2900 100 
L 2925 200 
Q 3600 0 3812 -12 
Q 4025 -25 4137 75 
Q 4250 175 4350 712 
Q 4450 1250 4600 2525 
L 2925 2525 
Q 2500 350 475 -575 
L 425 -475 
Q 2675 800 2675 3775 
L 1100 3775 
Q 775 3775 500 3700 
L 275 3925 
z
M 2675 5150 
Q 3325 4900 3437 4725 
Q 3550 4550 3550 4450 
Q 3550 4350 3450 4212 
Q 3350 4075 3325 4075 
Q 3225 4075 3125 4350 
Q 2975 4725 2625 5075 
L 2675 5150 
z
" transform="scale(0.015625)"/>
       <path id="SimSun-5dee" d="M 1600 5100 
L 1650 5175 
Q 2300 4925 2400 4775 
Q 2500 4625 2500 4525 
Q 2500 4400 2437 4287 
Q 2375 4175 2325 4175 
Q 2250 4175 2175 4375 
Q 2025 4700 1600 5100 
z
M 3200 3925 
Q 3100 3450 3025 3175 
L 4650 3175 
L 4975 3500 
L 5450 3025 
L 3000 3025 
Q 2900 2675 2725 2275 
L 5075 2275 
L 5475 2675 
L 6025 2125 
L 2675 2125 
Q 1900 675 350 -200 
L 325 -100 
Q 1650 825 2325 2125 
L 950 2125 
L 600 2075 
L 400 2275 
L 2375 2275 
Q 2525 2650 2650 3025 
L 1550 3025 
L 1225 2975 
L 1025 3175 
L 2675 3175 
Q 2775 3575 2825 3925 
L 1250 3925 
L 900 3875 
L 700 4075 
L 3750 4075 
Q 4200 4925 4250 5250 
L 4800 4925 
Q 4550 4900 3900 4075 
L 5050 4075 
L 5425 4450 
L 5950 3925 
L 3200 3925 
z
M 2150 1275 
L 4650 1275 
L 4950 1575 
L 5400 1125 
L 3850 1125 
L 3850 -175 
L 5200 -175 
L 5550 175 
L 6050 -325 
L 2050 -325 
Q 1725 -325 1450 -400 
L 1225 -175 
L 3500 -175 
L 3500 1125 
L 2625 1125 
L 2350 1075 
L 2150 1275 
z
" transform="scale(0.015625)"/>
       <path id="SimSun-89e3" d="M 5700 4550 
Q 5675 3850 5637 3625 
Q 5600 3400 5500 3262 
Q 5400 3125 5075 3025 
Q 5100 3250 4475 3450 
L 4500 3550 
Q 4875 3475 5062 3462 
Q 5250 3450 5300 3625 
Q 5350 3800 5375 4625 
L 4375 4625 
Q 4350 4100 4075 3675 
Q 3800 3250 3075 2900 
L 3000 2975 
Q 3550 3325 3775 3787 
Q 4000 4250 4000 4625 
L 3650 4625 
L 3425 4550 
L 3200 4775 
L 5350 4775 
L 5550 5000 
L 5900 4700 
L 5700 4550 
z
M 4400 -625 
Q 4425 -100 4425 975 
L 3775 975 
Q 3450 975 3175 900 
L 2950 1125 
L 4425 1125 
L 4425 2025 
L 3750 2025 
Q 3400 1525 3100 1275 
L 3050 1325 
Q 3300 1700 3487 2200 
Q 3675 2700 3725 3000 
L 4200 2700 
L 3975 2575 
L 3800 2175 
L 4425 2175 
Q 4425 2825 4400 3175 
L 4950 2900 
L 4750 2750 
L 4750 2175 
L 5200 2175 
L 5475 2450 
L 5875 2025 
L 4750 2025 
L 4750 1125 
L 5450 1125 
L 5750 1425 
L 6175 975 
L 4750 975 
Q 4750 -50 4775 -450 
L 4400 -625 
z
M 1475 5200 
L 1975 4875 
L 1750 4775 
Q 1600 4525 1500 4275 
L 2175 4275 
L 2400 4500 
L 2775 4125 
Q 2550 4025 2437 3912 
Q 2325 3800 1975 3375 
L 2525 3375 
L 2750 3600 
L 3075 3275 
L 2875 3125 
L 2875 -200 
Q 2875 -325 2800 -425 
Q 2725 -525 2500 -625 
Q 2500 -425 2075 -250 
L 2075 -150 
Q 2375 -200 2475 -200 
Q 2575 -200 2575 -75 
L 2575 1300 
L 2000 1300 
Q 2000 400 2025 -50 
L 1675 -250 
Q 1700 250 1700 1300 
L 1125 1300 
Q 1075 150 275 -625 
L 225 -550 
Q 575 -50 687 412 
Q 800 875 812 1137 
Q 825 1400 825 3250 
Q 600 3000 350 2775 
L 300 2850 
Q 850 3550 1112 4162 
Q 1375 4775 1475 5200 
z
M 1125 2275 
L 1125 1450 
L 1700 1450 
L 1700 2275 
L 1125 2275 
z
M 1125 3225 
L 1125 2425 
L 1700 2425 
L 1700 3225 
L 1125 3225 
z
M 2000 3225 
L 2000 2425 
L 2575 2425 
L 2575 3225 
L 2000 3225 
z
M 2000 2275 
L 2000 1450 
L 2575 1450 
L 2575 2275 
L 2000 2275 
z
M 1450 4125 
Q 1275 3825 1050 3475 
L 1175 3375 
L 1850 3375 
L 2200 4125 
L 1450 4125 
z
" transform="scale(0.015625)"/>
       <path id="SimSun-91ca" d="M 2825 4750 
L 4900 4750 
L 5075 4975 
L 5500 4625 
L 5275 4500 
Q 4800 3750 4375 3300 
Q 5075 2775 6075 2750 
L 6075 2650 
Q 5625 2600 5550 2350 
Q 4800 2600 4175 3125 
Q 3475 2550 2475 2225 
L 2450 2300 
Q 3400 2775 3950 3300 
Q 3525 3850 3300 4625 
L 3025 4550 
L 2825 4750 
z
M 3400 4600 
Q 3700 3925 4150 3475 
Q 4675 4075 4925 4600 
L 3400 4600 
z
M 3950 -600 
Q 3975 25 3975 850 
L 3275 850 
Q 2950 850 2675 775 
L 2450 1000 
L 3975 1000 
L 3975 1725 
L 3650 1725 
Q 3325 1725 3050 1650 
L 2825 1875 
L 3975 1875 
Q 3975 2325 3950 2725 
L 4475 2475 
L 4300 2350 
L 4300 1875 
L 4850 1875 
L 5150 2175 
L 5575 1725 
L 4300 1725 
L 4300 1000 
L 5300 1000 
L 5600 1300 
L 6025 850 
L 4300 850 
Q 4300 -100 4325 -425 
L 3950 -600 
z
M 1850 2200 
Q 1850 425 1875 -475 
L 1500 -650 
Q 1525 525 1525 2100 
Q 1025 1200 275 475 
L 225 550 
Q 1150 1775 1425 2775 
L 1125 2775 
Q 800 2775 525 2700 
L 300 2925 
L 1525 2925 
L 1525 4450 
Q 950 4375 400 4325 
L 400 4425 
Q 1075 4525 1612 4687 
Q 2150 4850 2400 5050 
L 2750 4625 
Q 2475 4650 1850 4500 
L 1850 3275 
Q 2225 3925 2350 4275 
L 2775 3950 
Q 2600 3925 2400 3700 
Q 2200 3475 1850 3100 
L 1850 2925 
L 2400 2925 
L 2675 3225 
L 3075 2775 
L 1850 2775 
L 1850 2325 
Q 2250 2175 2425 2037 
Q 2600 1900 2600 1750 
Q 2600 1650 2550 1525 
Q 2500 1400 2450 1400 
Q 2400 1400 2300 1600 
Q 2150 1925 1850 2200 
z
M 600 4050 
L 650 4100 
Q 1050 3825 1137 3687 
Q 1225 3550 1225 3475 
Q 1225 3350 1125 3237 
Q 1025 3125 975 3125 
Q 900 3125 875 3325 
Q 825 3625 600 4050 
z
" transform="scale(0.015625)"/>
       <path id="SimSun-7387" d="M 875 3725 
L 925 3800 
Q 1375 3650 1550 3525 
Q 1725 3400 1725 3250 
Q 1725 3175 1662 3025 
Q 1600 2875 1550 2875 
Q 1500 2875 1425 3050 
Q 1275 3325 875 3725 
z
M 550 1850 
Q 875 1925 2000 2575 
L 2050 2500 
Q 1675 2225 1337 1937 
Q 1000 1650 875 1425 
L 550 1850 
z
M 5200 3450 
Q 4800 3150 4275 2800 
L 4225 2875 
Q 4775 3400 5050 3925 
L 5450 3525 
L 5200 3450 
z
M 4325 2500 
L 4350 2575 
Q 5225 2350 5375 2212 
Q 5525 2075 5525 1900 
Q 5525 1775 5487 1662 
Q 5450 1550 5400 1550 
Q 5325 1550 5200 1800 
Q 4975 2150 4325 2500 
z
M 3150 3900 
Q 2500 3300 2300 3150 
Q 2800 3150 3400 3175 
Q 3700 3500 3850 3825 
L 4250 3450 
Q 4050 3400 3450 2825 
Q 2850 2250 2475 1950 
Q 3150 1975 3850 2000 
Q 3750 2175 3550 2450 
L 3600 2500 
Q 4050 2250 4200 2100 
Q 4350 1950 4350 1850 
Q 4350 1775 4250 1625 
Q 4150 1475 4100 1475 
Q 4075 1475 4050 1550 
Q 4000 1700 3900 1900 
Q 3650 1875 3075 1800 
L 3500 1550 
L 3325 1425 
L 3325 975 
L 5325 975 
L 5650 1300 
L 6100 825 
L 3325 825 
Q 3325 -275 3350 -525 
L 2975 -650 
Q 3000 0 3000 825 
L 1125 825 
Q 800 825 525 750 
L 300 975 
L 3000 975 
L 3000 1775 
Q 2450 1700 2200 1525 
L 1950 1950 
Q 2275 1950 2675 2350 
Q 3075 2750 3325 3050 
Q 2400 2950 2150 2775 
L 1950 3175 
Q 2150 3150 2475 3575 
Q 2800 4000 2900 4225 
L 1450 4225 
Q 1125 4225 850 4150 
L 625 4375 
L 3100 4375 
Q 3050 4800 2675 5200 
L 2725 5250 
Q 3225 5050 3337 4912 
Q 3450 4775 3450 4700 
Q 3450 4550 3250 4375 
L 5025 4375 
L 5350 4675 
L 5775 4225 
L 3050 4225 
L 3375 3950 
L 3150 3900 
z
" transform="scale(0.015625)"/>
       <path id="SimSun-28" d="M 2900 5025 
Q 2325 4425 2037 3737 
Q 1750 3050 1750 2300 
Q 1750 1525 2037 850 
Q 2325 175 2900 -425 
L 2775 -550 
Q 2075 75 1725 787 
Q 1375 1500 1375 2300 
Q 1375 3075 1725 3787 
Q 2075 4500 2775 5150 
L 2900 5025 
z
" transform="scale(0.015625)"/>
       <path id="SimSun-25" d="M 750 4250 
Q 600 4250 500 4050 
Q 400 3850 400 3300 
Q 400 2675 512 2487 
Q 625 2300 750 2300 
Q 925 2300 1012 2525 
Q 1100 2750 1100 3300 
Q 1100 3750 1037 4000 
Q 975 4250 750 4250 
z
M 1425 3275 
Q 1425 2825 1275 2487 
Q 1125 2150 750 2150 
Q 450 2150 262 2450 
Q 75 2750 75 3275 
Q 75 3825 275 4125 
Q 475 4425 750 4425 
Q 1050 4425 1237 4112 
Q 1425 3800 1425 3275 
z
M 2725 1200 
Q 2725 1625 2650 1900 
Q 2575 2175 2375 2175 
Q 2225 2175 2125 1937 
Q 2025 1700 2025 1200 
Q 2025 575 2137 400 
Q 2250 225 2375 225 
Q 2550 225 2637 437 
Q 2725 650 2725 1200 
z
M 3050 1175 
Q 3050 675 2875 362 
Q 2700 50 2375 50 
Q 2100 50 1900 362 
Q 1700 675 1700 1175 
Q 1700 1725 1900 2037 
Q 2100 2350 2375 2350 
Q 2675 2350 2862 2025 
Q 3050 1700 3050 1175 
z
M 2525 4350 
L 725 50 
L 575 125 
L 2350 4425 
L 2525 4350 
z
" transform="scale(0.015625)"/>
       <path id="SimSun-29" d="M 275 5025 
L 400 5150 
Q 1100 4500 1450 3787 
Q 1800 3075 1800 2300 
Q 1800 1500 1450 787 
Q 1100 75 400 -550 
L 275 -425 
Q 850 175 1137 850 
Q 1425 1525 1425 2300 
Q 1425 3050 1137 3737 
Q 850 4425 275 5025 
z
" transform="scale(0.015625)"/>
      </defs>
      <use xlink:href="#SimSun-65b9"/>
      <use xlink:href="#SimSun-5dee" x="100"/>
      <use xlink:href="#SimSun-89e3" x="200"/>
      <use xlink:href="#SimSun-91ca" x="300"/>
      <use xlink:href="#SimSun-7387" x="400"/>
      <use xlink:href="#SimSun-28" x="500"/>
      <use xlink:href="#SimSun-25" x="550"/>
      <use xlink:href="#SimSun-29" x="600"/>
     </g>
    </g>
   </g>
   <g id="line2d_58">
    <path d="M 341.650374 171.7823 
L 349.088391 178.612653 
L 356.526408 191.086168 
L 363.964424 194.054579 
L 371.402441 194.742468 
L 378.840457 196.698645 
L 386.278474 197.280499 
L 393.71649 197.804398 
L 401.154507 198.243604 
L 408.592523 198.916737 
L 416.03054 198.953342 
L 423.468556 199.044946 
L 430.906573 199.636664 
L 438.344589 199.912217 
L 445.782606 200.171342 
L 453.220622 200.557592 
L 460.658639 200.875455 
L 468.096655 201.283199 
L 475.534672 201.511801 
L 482.972689 201.653932 
L 490.410705 201.899061 
L 497.848722 202.278874 
L 505.286738 202.557862 
L 512.724755 202.704449 
L 520.162771 203.018983 
L 527.600788 203.368512 
L 535.038804 203.586582 
L 542.476821 203.93292 
L 549.914837 204.183518 
L 557.352854 204.274014 
L 564.79087 204.357941 
L 572.228887 204.441688 
" clip-path="url(#p2126599336)" style="fill: none; stroke: #808080; stroke-opacity: 0.8; stroke-width: 2; stroke-linecap: round"/>
    <g clip-path="url(#p2126599336)">
     <use xlink:href="#m14302cc5e5" x="341.650374" y="171.7823" style="fill: #808080; fill-opacity: 0.8; stroke: #000000; stroke-opacity: 0.8"/>
     <use xlink:href="#m14302cc5e5" x="349.088391" y="178.612653" style="fill: #808080; fill-opacity: 0.8; stroke: #000000; stroke-opacity: 0.8"/>
     <use xlink:href="#m14302cc5e5" x="356.526408" y="191.086168" style="fill: #808080; fill-opacity: 0.8; stroke: #000000; stroke-opacity: 0.8"/>
     <use xlink:href="#m14302cc5e5" x="363.964424" y="194.054579" style="fill: #808080; fill-opacity: 0.8; stroke: #000000; stroke-opacity: 0.8"/>
     <use xlink:href="#m14302cc5e5" x="371.402441" y="194.742468" style="fill: #808080; fill-opacity: 0.8; stroke: #000000; stroke-opacity: 0.8"/>
     <use xlink:href="#m14302cc5e5" x="378.840457" y="196.698645" style="fill: #808080; fill-opacity: 0.8; stroke: #000000; stroke-opacity: 0.8"/>
     <use xlink:href="#m14302cc5e5" x="386.278474" y="197.280499" style="fill: #808080; fill-opacity: 0.8; stroke: #000000; stroke-opacity: 0.8"/>
     <use xlink:href="#m14302cc5e5" x="393.71649" y="197.804398" style="fill: #808080; fill-opacity: 0.8; stroke: #000000; stroke-opacity: 0.8"/>
     <use xlink:href="#m14302cc5e5" x="401.154507" y="198.243604" style="fill: #808080; fill-opacity: 0.8; stroke: #000000; stroke-opacity: 0.8"/>
     <use xlink:href="#m14302cc5e5" x="408.592523" y="198.916737" style="fill: #808080; fill-opacity: 0.8; stroke: #000000; stroke-opacity: 0.8"/>
     <use xlink:href="#m14302cc5e5" x="416.03054" y="198.953342" style="fill: #808080; fill-opacity: 0.8; stroke: #000000; stroke-opacity: 0.8"/>
     <use xlink:href="#m14302cc5e5" x="423.468556" y="199.044946" style="fill: #808080; fill-opacity: 0.8; stroke: #000000; stroke-opacity: 0.8"/>
     <use xlink:href="#m14302cc5e5" x="430.906573" y="199.636664" style="fill: #808080; fill-opacity: 0.8; stroke: #000000; stroke-opacity: 0.8"/>
     <use xlink:href="#m14302cc5e5" x="438.344589" y="199.912217" style="fill: #808080; fill-opacity: 0.8; stroke: #000000; stroke-opacity: 0.8"/>
     <use xlink:href="#m14302cc5e5" x="445.782606" y="200.171342" style="fill: #808080; fill-opacity: 0.8; stroke: #000000; stroke-opacity: 0.8"/>
     <use xlink:href="#m14302cc5e5" x="453.220622" y="200.557592" style="fill: #808080; fill-opacity: 0.8; stroke: #000000; stroke-opacity: 0.8"/>
     <use xlink:href="#m14302cc5e5" x="460.658639" y="200.875455" style="fill: #808080; fill-opacity: 0.8; stroke: #000000; stroke-opacity: 0.8"/>
     <use xlink:href="#m14302cc5e5" x="468.096655" y="201.283199" style="fill: #808080; fill-opacity: 0.8; stroke: #000000; stroke-opacity: 0.8"/>
     <use xlink:href="#m14302cc5e5" x="475.534672" y="201.511801" style="fill: #808080; fill-opacity: 0.8; stroke: #000000; stroke-opacity: 0.8"/>
     <use xlink:href="#m14302cc5e5" x="482.972689" y="201.653932" style="fill: #808080; fill-opacity: 0.8; stroke: #000000; stroke-opacity: 0.8"/>
     <use xlink:href="#m14302cc5e5" x="490.410705" y="201.899061" style="fill: #808080; fill-opacity: 0.8; stroke: #000000; stroke-opacity: 0.8"/>
     <use xlink:href="#m14302cc5e5" x="497.848722" y="202.278874" style="fill: #808080; fill-opacity: 0.8; stroke: #000000; stroke-opacity: 0.8"/>
     <use xlink:href="#m14302cc5e5" x="505.286738" y="202.557862" style="fill: #808080; fill-opacity: 0.8; stroke: #000000; stroke-opacity: 0.8"/>
     <use xlink:href="#m14302cc5e5" x="512.724755" y="202.704449" style="fill: #808080; fill-opacity: 0.8; stroke: #000000; stroke-opacity: 0.8"/>
     <use xlink:href="#m14302cc5e5" x="520.162771" y="203.018983" style="fill: #808080; fill-opacity: 0.8; stroke: #000000; stroke-opacity: 0.8"/>
     <use xlink:href="#m14302cc5e5" x="527.600788" y="203.368512" style="fill: #808080; fill-opacity: 0.8; stroke: #000000; stroke-opacity: 0.8"/>
     <use xlink:href="#m14302cc5e5" x="535.038804" y="203.586582" style="fill: #808080; fill-opacity: 0.8; stroke: #000000; stroke-opacity: 0.8"/>
     <use xlink:href="#m14302cc5e5" x="542.476821" y="203.93292" style="fill: #808080; fill-opacity: 0.8; stroke: #000000; stroke-opacity: 0.8"/>
     <use xlink:href="#m14302cc5e5" x="549.914837" y="204.183518" style="fill: #808080; fill-opacity: 0.8; stroke: #000000; stroke-opacity: 0.8"/>
     <use xlink:href="#m14302cc5e5" x="557.352854" y="204.274014" style="fill: #808080; fill-opacity: 0.8; stroke: #000000; stroke-opacity: 0.8"/>
     <use xlink:href="#m14302cc5e5" x="564.79087" y="204.357941" style="fill: #808080; fill-opacity: 0.8; stroke: #000000; stroke-opacity: 0.8"/>
     <use xlink:href="#m14302cc5e5" x="572.228887" y="204.441688" style="fill: #808080; fill-opacity: 0.8; stroke: #000000; stroke-opacity: 0.8"/>
    </g>
   </g>
   <g id="line2d_59">
    <path d="M 341.650374 171.7823 
L 349.088391 145.865106 
L 356.526408 132.421427 
L 363.964424 121.946159 
L 371.402441 112.15878 
L 378.840457 104.327578 
L 386.278474 97.07823 
L 393.71649 90.352781 
L 401.154507 84.066538 
L 408.592523 78.453428 
L 416.03054 72.876924 
L 423.468556 67.392023 
L 430.906573 62.498839 
L 438.344589 57.881209 
L 445.782606 53.522704 
L 453.220622 49.550449 
L 460.658639 45.896057 
L 468.096655 42.649408 
L 475.534672 39.631362 
L 482.972689 36.755447 
L 490.410705 34.124661 
L 497.848722 31.873688 
L 505.286738 29.901703 
L 512.724755 28.076305 
L 520.162771 26.565442 
L 527.600788 25.404107 
L 535.038804 24.460842 
L 542.476821 23.863914 
L 549.914837 23.517586 
L 557.352854 23.261753 
L 564.79087 23.089847 
L 572.228887 23.001687 
" clip-path="url(#p2126599336)" style="fill: none; stroke-dasharray: 12.8,3.2,2,3.2; stroke-dashoffset: 0; stroke: #808080; stroke-opacity: 0.8; stroke-width: 2"/>
    <g clip-path="url(#p2126599336)">
     <use xlink:href="#m14302cc5e5" x="341.650374" y="171.7823" style="fill: #808080; fill-opacity: 0.8; stroke: #000000; stroke-opacity: 0.8"/>
     <use xlink:href="#m14302cc5e5" x="349.088391" y="145.865106" style="fill: #808080; fill-opacity: 0.8; stroke: #000000; stroke-opacity: 0.8"/>
     <use xlink:href="#m14302cc5e5" x="356.526408" y="132.421427" style="fill: #808080; fill-opacity: 0.8; stroke: #000000; stroke-opacity: 0.8"/>
     <use xlink:href="#m14302cc5e5" x="363.964424" y="121.946159" style="fill: #808080; fill-opacity: 0.8; stroke: #000000; stroke-opacity: 0.8"/>
     <use xlink:href="#m14302cc5e5" x="371.402441" y="112.15878" style="fill: #808080; fill-opacity: 0.8; stroke: #000000; stroke-opacity: 0.8"/>
     <use xlink:href="#m14302cc5e5" x="378.840457" y="104.327578" style="fill: #808080; fill-opacity: 0.8; stroke: #000000; stroke-opacity: 0.8"/>
     <use xlink:href="#m14302cc5e5" x="386.278474" y="97.07823" style="fill: #808080; fill-opacity: 0.8; stroke: #000000; stroke-opacity: 0.8"/>
     <use xlink:href="#m14302cc5e5" x="393.71649" y="90.352781" style="fill: #808080; fill-opacity: 0.8; stroke: #000000; stroke-opacity: 0.8"/>
     <use xlink:href="#m14302cc5e5" x="401.154507" y="84.066538" style="fill: #808080; fill-opacity: 0.8; stroke: #000000; stroke-opacity: 0.8"/>
     <use xlink:href="#m14302cc5e5" x="408.592523" y="78.453428" style="fill: #808080; fill-opacity: 0.8; stroke: #000000; stroke-opacity: 0.8"/>
     <use xlink:href="#m14302cc5e5" x="416.03054" y="72.876924" style="fill: #808080; fill-opacity: 0.8; stroke: #000000; stroke-opacity: 0.8"/>
     <use xlink:href="#m14302cc5e5" x="423.468556" y="67.392023" style="fill: #808080; fill-opacity: 0.8; stroke: #000000; stroke-opacity: 0.8"/>
     <use xlink:href="#m14302cc5e5" x="430.906573" y="62.498839" style="fill: #808080; fill-opacity: 0.8; stroke: #000000; stroke-opacity: 0.8"/>
     <use xlink:href="#m14302cc5e5" x="438.344589" y="57.881209" style="fill: #808080; fill-opacity: 0.8; stroke: #000000; stroke-opacity: 0.8"/>
     <use xlink:href="#m14302cc5e5" x="445.782606" y="53.522704" style="fill: #808080; fill-opacity: 0.8; stroke: #000000; stroke-opacity: 0.8"/>
     <use xlink:href="#m14302cc5e5" x="453.220622" y="49.550449" style="fill: #808080; fill-opacity: 0.8; stroke: #000000; stroke-opacity: 0.8"/>
     <use xlink:href="#m14302cc5e5" x="460.658639" y="45.896057" style="fill: #808080; fill-opacity: 0.8; stroke: #000000; stroke-opacity: 0.8"/>
     <use xlink:href="#m14302cc5e5" x="468.096655" y="42.649408" style="fill: #808080; fill-opacity: 0.8; stroke: #000000; stroke-opacity: 0.8"/>
     <use xlink:href="#m14302cc5e5" x="475.534672" y="39.631362" style="fill: #808080; fill-opacity: 0.8; stroke: #000000; stroke-opacity: 0.8"/>
     <use xlink:href="#m14302cc5e5" x="482.972689" y="36.755447" style="fill: #808080; fill-opacity: 0.8; stroke: #000000; stroke-opacity: 0.8"/>
     <use xlink:href="#m14302cc5e5" x="490.410705" y="34.124661" style="fill: #808080; fill-opacity: 0.8; stroke: #000000; stroke-opacity: 0.8"/>
     <use xlink:href="#m14302cc5e5" x="497.848722" y="31.873688" style="fill: #808080; fill-opacity: 0.8; stroke: #000000; stroke-opacity: 0.8"/>
     <use xlink:href="#m14302cc5e5" x="505.286738" y="29.901703" style="fill: #808080; fill-opacity: 0.8; stroke: #000000; stroke-opacity: 0.8"/>
     <use xlink:href="#m14302cc5e5" x="512.724755" y="28.076305" style="fill: #808080; fill-opacity: 0.8; stroke: #000000; stroke-opacity: 0.8"/>
     <use xlink:href="#m14302cc5e5" x="520.162771" y="26.565442" style="fill: #808080; fill-opacity: 0.8; stroke: #000000; stroke-opacity: 0.8"/>
     <use xlink:href="#m14302cc5e5" x="527.600788" y="25.404107" style="fill: #808080; fill-opacity: 0.8; stroke: #000000; stroke-opacity: 0.8"/>
     <use xlink:href="#m14302cc5e5" x="535.038804" y="24.460842" style="fill: #808080; fill-opacity: 0.8; stroke: #000000; stroke-opacity: 0.8"/>
     <use xlink:href="#m14302cc5e5" x="542.476821" y="23.863914" style="fill: #808080; fill-opacity: 0.8; stroke: #000000; stroke-opacity: 0.8"/>
     <use xlink:href="#m14302cc5e5" x="549.914837" y="23.517586" style="fill: #808080; fill-opacity: 0.8; stroke: #000000; stroke-opacity: 0.8"/>
     <use xlink:href="#m14302cc5e5" x="557.352854" y="23.261753" style="fill: #808080; fill-opacity: 0.8; stroke: #000000; stroke-opacity: 0.8"/>
     <use xlink:href="#m14302cc5e5" x="564.79087" y="23.089847" style="fill: #808080; fill-opacity: 0.8; stroke: #000000; stroke-opacity: 0.8"/>
     <use xlink:href="#m14302cc5e5" x="572.228887" y="23.001687" style="fill: #808080; fill-opacity: 0.8; stroke: #000000; stroke-opacity: 0.8"/>
    </g>
   </g>
   <g id="patch_8">
    <path d="M 330.121449 213.513688 
L 330.121449 13.929687 
" style="fill: none; stroke: #000000; stroke-linejoin: miter; stroke-linecap: square"/>
   </g>
   <g id="patch_9">
    <path d="M 583.757812 213.513688 
L 583.757812 13.929687 
" style="fill: none; stroke: #000000; stroke-linejoin: miter; stroke-linecap: square"/>
   </g>
   <g id="patch_10">
    <path d="M 330.121449 213.513688 
L 583.757812 213.513688 
" style="fill: none; stroke: #000000; stroke-linejoin: miter; stroke-linecap: square"/>
   </g>
   <g id="patch_11">
    <path d="M 330.121449 13.929687 
L 583.757812 13.929687 
" style="fill: none; stroke: #000000; stroke-linejoin: miter; stroke-linecap: square"/>
   </g>
   <g id="text_34">
    <!-- 方差解释及累计方差贡献率图 -->
    <g style="fill: #262626" transform="translate(391.939631 7.929687) scale(0.1 -0.1)">
     <defs>
      <path id="SimSun-53ca" d="M 4625 4450 
L 4100 3075 
L 4925 3075 
L 5150 3300 
L 5525 2900 
L 5300 2775 
Q 4700 1550 4075 900 
Q 4500 475 5037 237 
Q 5575 0 6050 -50 
L 6050 -125 
Q 5700 -175 5550 -475 
Q 4450 0 3850 675 
Q 2875 -150 1025 -550 
L 1000 -450 
Q 2750 50 3650 900 
Q 2800 2125 2525 3425 
Q 2425 2575 1987 1550 
Q 1550 525 275 -475 
L 225 -400 
Q 1000 375 1425 1112 
Q 1850 1850 2062 2825 
Q 2275 3800 2325 4600 
L 1500 4600 
L 1275 4550 
L 1075 4750 
L 4250 4750 
L 4475 4975 
L 4900 4625 
L 4625 4450 
z
M 3600 3075 
Q 3825 3225 3975 3687 
Q 4125 4150 4250 4600 
L 2700 4600 
Q 2650 4275 2575 3575 
Q 3050 2075 3875 1150 
Q 4575 1925 4950 2925 
L 4100 2925 
L 3925 2750 
L 3600 3075 
z
" transform="scale(0.015625)"/>
      <path id="SimSun-7d2f" d="M 1675 4725 
L 1675 4100 
L 3125 4100 
L 3125 4725 
L 1675 4725 
z
M 3450 4725 
L 3450 4100 
L 4925 4100 
L 4925 4725 
L 3450 4725 
z
M 1675 3950 
L 1675 3375 
L 3125 3375 
L 3125 3950 
L 1675 3950 
z
M 3450 3950 
L 3450 3375 
L 4925 3375 
L 4925 3950 
L 3450 3950 
z
M 5250 4625 
Q 5250 4275 5250 3875 
Q 5250 3475 5275 3075 
L 4925 2950 
L 4925 3225 
L 1675 3225 
L 1675 3000 
L 1325 2875 
Q 1350 3500 1350 4125 
Q 1350 4750 1325 5075 
L 1675 4875 
L 4900 4875 
L 5075 5075 
L 5425 4775 
L 5250 4625 
z
M 3525 2875 
Q 3225 2850 2875 2700 
Q 2525 2550 1825 2275 
L 3550 2300 
Q 3925 2550 4175 2800 
L 4500 2400 
Q 4275 2400 3675 2100 
Q 3050 1775 1875 1300 
L 4775 1475 
Q 4550 1725 4300 1975 
L 4375 2025 
Q 5100 1675 5262 1487 
Q 5425 1300 5412 1150 
Q 5400 1000 5337 900 
Q 5275 800 5250 800 
Q 5200 800 5125 950 
Q 5000 1150 4875 1350 
L 3550 1225 
L 3550 100 
Q 3575 -425 3000 -525 
Q 3000 -175 2200 0 
L 2200 100 
Q 2900 25 3062 37 
Q 3225 50 3225 325 
L 3225 1200 
Q 2750 1150 2250 1075 
Q 1750 1000 1450 825 
L 1175 1350 
Q 1550 1400 2000 1562 
Q 2450 1725 3375 2175 
Q 2300 2075 2000 2037 
Q 1700 2000 1550 1900 
L 1325 2350 
Q 1625 2350 2200 2612 
Q 2775 2875 3150 3250 
L 3525 2875 
z
M 2625 500 
Q 2325 450 1850 175 
Q 1375 -125 550 -450 
L 500 -375 
Q 1125 -50 1562 300 
Q 2000 650 2225 950 
L 2625 500 
z
M 4075 900 
Q 5000 575 5312 387 
Q 5625 200 5650 12 
Q 5675 -175 5612 -287 
Q 5550 -400 5525 -400 
Q 5425 -400 5250 -150 
Q 4975 250 4025 825 
L 4075 900 
z
" transform="scale(0.015625)"/>
      <path id="SimSun-8ba1" d="M 975 4975 
L 1000 5050 
Q 1550 4800 1762 4625 
Q 1975 4450 1975 4275 
Q 1975 4100 1887 4025 
Q 1800 3950 1775 3950 
Q 1650 3950 1550 4250 
Q 1375 4625 975 4975 
z
M 1650 375 
L 2625 1225 
L 2675 1150 
Q 1800 25 1600 -350 
L 1225 75 
Q 1325 225 1325 550 
L 1325 2800 
L 675 2800 
L 900 2800 
Q 750 2800 475 2725 
L 250 2950 
L 1275 2950 
L 1550 3225 
L 1900 2875 
L 1650 2700 
L 1650 375 
z
M 3850 2925 
Q 3850 4600 3825 5100 
L 4425 4825 
L 4225 4625 
L 4225 2925 
L 5350 2925 
L 5675 3250 
L 6125 2775 
L 4225 2775 
L 4225 500 
Q 4225 0 4250 -425 
L 3825 -600 
Q 3850 175 3850 575 
L 3850 2775 
L 2575 2775 
L 2950 2775 
Q 2650 2775 2375 2700 
L 2150 2925 
L 3850 2925 
z
" transform="scale(0.015625)"/>
      <path id="SimSun-8d21" d="M 1025 4800 
L 4750 4800 
L 5025 5075 
L 5425 4650 
L 3325 4650 
L 3325 3650 
L 5450 3650 
L 5725 3925 
L 6125 3500 
L 1025 3500 
Q 825 3500 550 3425 
L 325 3650 
L 2975 3650 
L 2975 4650 
L 1725 4650 
Q 1525 4650 1250 4575 
L 1025 4800 
z
M 1375 725 
Q 1400 1350 1400 1950 
Q 1400 2550 1375 3150 
L 1750 2925 
L 4575 2925 
L 4800 3150 
L 5175 2775 
L 4975 2650 
Q 4975 1350 5000 1000 
L 4625 850 
L 4625 2775 
L 1750 2775 
L 1750 900 
L 1375 725 
z
M 3325 2075 
Q 3225 625 2475 125 
Q 1725 -375 375 -600 
L 350 -500 
Q 1600 -175 2125 237 
Q 2650 650 2800 1150 
Q 2950 1650 2950 2525 
L 3525 2250 
L 3325 2075 
z
M 3400 625 
L 3425 725 
Q 4825 375 5175 150 
Q 5525 -75 5462 -300 
Q 5400 -525 5325 -525 
Q 5225 -525 5100 -400 
Q 4800 -100 4437 125 
Q 4075 350 3400 625 
z
" transform="scale(0.015625)"/>
      <path id="SimSun-732e" d="M 4625 4675 
L 4575 3225 
L 5325 3225 
L 5650 3550 
L 6100 3075 
L 4800 3075 
Q 5150 575 6150 -100 
L 6150 -200 
Q 5750 -200 5625 -425 
Q 4825 750 4700 3075 
L 4575 3075 
Q 4525 525 3075 -625 
L 3025 -550 
Q 4125 650 4225 3075 
L 4200 3075 
Q 3875 3075 3600 3000 
L 3375 3225 
L 4225 3225 
Q 4250 4675 4225 5150 
L 4825 4875 
L 4625 4675 
z
M 4925 4650 
Q 5450 4425 5575 4275 
Q 5700 4125 5700 4025 
Q 5700 3925 5612 3775 
Q 5525 3625 5475 3625 
Q 5425 3625 5350 3850 
Q 5225 4175 4875 4575 
L 4925 4650 
z
M 1225 2900 
Q 1550 2675 1625 2562 
Q 1700 2450 1700 2350 
Q 1700 2250 1625 2162 
Q 1550 2075 1500 2075 
Q 1450 2075 1425 2225 
Q 1400 2450 1175 2850 
L 1225 2900 
z
M 2150 2950 
L 2575 2700 
Q 2325 2575 2000 1975 
L 2225 1975 
L 2450 2200 
L 2750 1825 
L 2025 1825 
L 2025 1200 
L 2250 1200 
L 2475 1425 
L 2800 1050 
L 2025 1050 
Q 2025 475 2050 -100 
L 1700 -225 
Q 1725 425 1725 1050 
L 1675 1050 
Q 1400 1050 1200 975 
L 975 1200 
L 1725 1200 
L 1725 1825 
Q 1500 1825 1275 1750 
L 1075 1975 
L 1875 1975 
Q 2075 2525 2150 2950 
z
M 2250 150 
Q 2700 125 2800 137 
Q 2900 150 2900 400 
L 2900 3025 
L 900 3025 
L 900 -350 
L 550 -500 
Q 575 25 575 1437 
Q 575 2850 550 3400 
L 900 3175 
L 1625 3175 
L 1675 3950 
L 1100 3950 
Q 775 3950 500 3875 
L 275 4100 
L 1675 4100 
Q 1725 4975 1725 5225 
L 2225 4975 
L 2050 4825 
L 2000 4100 
L 2825 4100 
L 3150 4425 
L 3600 3950 
L 2000 3950 
L 1950 3175 
L 2875 3175 
L 3050 3400 
L 3400 3125 
L 3225 2950 
L 3225 300 
Q 3250 -225 2800 -375 
Q 2750 -50 2250 50 
L 2250 150 
z
" transform="scale(0.015625)"/>
     </defs>
     <use xlink:href="#SimSun-65b9"/>
     <use xlink:href="#SimSun-5dee" x="100"/>
     <use xlink:href="#SimSun-89e3" x="200"/>
     <use xlink:href="#SimSun-91ca" x="300"/>
     <use xlink:href="#SimSun-53ca" x="400"/>
     <use xlink:href="#SimSun-7d2f" x="500"/>
     <use xlink:href="#SimSun-8ba1" x="600"/>
     <use xlink:href="#SimSun-65b9" x="700"/>
     <use xlink:href="#SimSun-5dee" x="800"/>
     <use xlink:href="#SimSun-8d21" x="900"/>
     <use xlink:href="#SimSun-732e" x="1000"/>
     <use xlink:href="#SimSun-7387" x="1100"/>
     <use xlink:href="#SimSun-56fe" x="1200"/>
    </g>
   </g>
  </g>
 </g>
 <defs>
  <clipPath id="pb567d58736">
   <rect x="25.757812" y="13.929687" width="253.636364" height="199.584"/>
  </clipPath>
  <clipPath id="p2126599336">
   <rect x="330.121449" y="13.929687" width="253.636364" height="199.584"/>
  </clipPath>
 </defs>
</svg>
